{"glyphs":{"0":{"ha":758,"x_min":-16,"x_max":701,"o":"m 97 441 q 82 257 77 343 l 589 694 q 529 788 570 755 q 424 821 488 821 q 220 719 304 821 q 97 441 135 618 m 97 182 q 262 62 139 62 q 465 164 379 62 q 589 441 551 265 q 603 534 600 490 q 603 618 606 578 l 97 182 m 4 441 q 60 613 24 530 q 150 760 96 696 q 276 862 204 823 q 440 900 349 900 q 589 862 532 900 q 673 760 646 823 q 701 613 700 696 q 682 441 701 530 q 627 270 663 353 q 538 124 591 187 q 412 23 485 61 q 245 -16 339 -16 q 96 23 153 -16 q 13 124 40 61 q -15 270 -14 187 q 4 441 -16 353 z "},"1":{"ha":758,"x_min":40,"x_max":484,"o":"m 439 0 l 60 0 l 77 79 l 220 79 l 347 684 q 296 624 329 656 q 221 567 262 593 q 133 523 179 541 q 40 505 86 505 l 61 602 q 155 627 103 602 q 256 693 207 653 q 342 784 306 733 q 390 885 379 835 l 484 885 l 313 79 l 456 79 l 439 0 z "},"2":{"ha":758,"x_min":-40,"x_max":684,"o":"m 671 656 q 650 590 663 619 q 614 531 637 561 q 557 468 591 501 q 472 392 524 435 l 98 79 l 472 79 l 509 253 l 587 253 l 534 0 l -40 0 l -24 82 l 396 432 q 458 485 428 458 q 512 538 488 511 q 554 595 536 566 q 578 656 571 624 q 549 779 595 737 q 425 821 504 821 q 244 759 314 821 q 149 581 174 697 l 62 581 q 192 815 94 730 q 441 900 290 900 q 546 883 498 900 q 626 836 593 867 q 671 759 659 804 q 671 656 684 714 z "},"3":{"ha":758,"x_min":-3,"x_max":692,"o":"m 608 244 q 562 138 596 186 q 481 56 528 90 q 378 3 435 22 q 265 -16 322 -16 q 149 2 201 -16 q 62 54 97 20 q 13 139 28 87 q 5 257 -3 191 l 98 269 q 137 115 85 167 q 282 64 189 64 q 360 77 322 64 q 431 115 399 90 q 485 172 463 139 q 515 244 507 204 q 517 333 526 298 q 479 386 507 367 q 404 412 450 406 q 294 419 357 419 l 311 498 q 401 506 357 498 q 484 532 446 514 q 549 580 522 550 q 586 656 576 610 q 562 775 602 730 q 443 821 522 821 q 274 769 345 821 q 179 606 203 717 l 92 606 q 141 730 107 675 q 223 822 175 785 q 331 880 271 860 q 460 900 392 900 q 563 883 517 900 q 639 836 608 867 q 681 759 669 804 q 679 656 692 714 q 607 531 663 581 q 465 468 551 481 q 543 441 511 461 q 591 390 574 421 q 612 322 608 359 q 608 244 616 285 z "},"4":{"ha":758,"x_min":-14,"x_max":636,"o":"m 566 0 l 186 0 l 203 79 l 346 79 l 382 253 l -14 253 l 4 334 l 492 885 l 610 885 l 493 334 l 636 334 l 618 253 l 475 253 l 439 79 l 582 79 l 566 0 m 400 334 l 493 775 l 103 334 l 400 334 z "},"5":{"ha":758,"x_min":-18,"x_max":708,"o":"m 632 297 q 582 175 618 232 q 494 76 546 118 q 378 9 443 33 q 241 -16 313 -16 q 128 3 178 -16 q 44 58 78 22 q -4 144 11 93 q -8 262 -18 196 l 85 277 q 88 191 79 231 q 119 123 97 151 q 177 80 142 96 q 258 64 212 64 q 359 82 313 64 q 443 132 406 100 q 504 207 479 164 q 539 297 529 249 q 543 390 550 347 q 513 465 536 433 q 452 514 490 496 q 363 532 414 532 q 254 509 309 532 q 153 443 199 486 l 60 443 l 154 885 l 708 885 l 692 806 l 231 806 l 171 529 q 277 590 220 568 q 387 611 334 611 q 508 589 456 611 q 593 527 559 567 q 637 428 627 486 q 632 297 647 370 z "},"6":{"ha":758,"x_min":1,"x_max":693,"o":"m 647 301 q 594 170 631 228 q 506 70 558 111 q 390 7 454 29 q 258 -16 326 -16 q 109 23 164 -16 q 27 124 53 61 q 1 270 1 187 q 21 441 1 353 q 81 614 40 532 q 182 761 122 697 q 321 863 243 825 q 493 900 399 900 q 693 808 625 900 l 621 754 q 476 821 574 821 q 345 793 406 821 q 238 718 285 766 q 159 601 192 669 q 110 452 126 533 q 159 517 126 486 q 231 569 192 547 q 314 605 271 591 q 397 618 357 618 q 520 594 467 618 q 606 529 574 571 q 650 429 639 488 q 647 301 661 371 m 554 301 q 558 395 564 351 q 531 471 553 439 q 471 521 509 503 q 380 539 433 539 q 282 522 329 539 q 199 475 236 505 q 137 402 163 444 q 100 310 111 361 q 94 215 89 260 q 119 137 98 171 q 178 83 140 103 q 275 64 216 64 q 370 80 325 64 q 453 127 415 97 q 516 203 490 158 q 554 301 542 248 z "},"7":{"ha":758,"x_min":100,"x_max":745,"o":"m 726 803 q 556 625 625 713 q 440 443 488 538 q 360 239 393 347 q 298 0 326 131 l 201 0 q 263 233 228 123 q 349 441 298 342 q 471 631 400 541 q 639 806 542 721 l 216 806 l 179 632 l 100 632 l 154 885 l 745 885 l 726 803 z "},"8":{"ha":758,"x_min":-35,"x_max":693,"o":"m 625 249 q 574 130 610 179 q 488 48 539 81 q 375 0 437 16 q 245 -16 313 -16 q 123 0 178 -16 q 31 48 68 16 q -20 130 -5 81 q -20 249 -35 179 q 8 321 -12 285 q 61 390 29 358 q 133 442 93 421 q 216 468 172 463 q 156 492 180 472 q 116 540 131 513 q 97 599 102 567 q 98 660 93 631 q 145 765 113 720 q 225 840 178 810 q 328 885 272 869 q 440 900 383 900 q 547 885 497 900 q 631 840 597 869 q 679 765 664 810 q 679 660 693 720 q 655 599 673 631 q 612 540 637 567 q 552 492 586 513 q 479 468 518 472 q 552 442 521 463 q 601 390 583 421 q 626 321 619 358 q 625 249 632 285 m 586 660 q 559 778 603 734 q 424 821 515 821 q 270 778 332 821 q 192 660 208 734 q 219 549 178 590 q 357 507 260 507 q 513 549 454 507 q 586 660 572 590 m 532 249 q 530 331 542 297 q 491 387 518 366 q 425 418 464 408 q 340 428 386 428 q 251 418 294 428 q 172 387 208 408 q 109 331 135 366 q 74 249 83 297 q 74 167 62 201 q 113 109 86 132 q 178 75 140 86 q 262 64 216 64 q 352 75 309 64 q 433 109 396 86 q 495 167 469 132 q 532 249 521 201 z "},"9":{"ha":758,"x_min":-5,"x_max":686,"o":"m 41 583 q 94 715 57 657 q 182 815 131 774 q 297 878 233 856 q 429 900 361 900 q 579 862 522 900 q 661 760 636 823 q 686 614 686 696 q 667 443 686 532 q 606 270 647 353 q 506 123 566 187 q 367 22 446 60 q 195 -16 288 -16 q -5 77 62 -16 l 66 131 q 127 80 90 97 q 211 64 164 64 q 342 91 282 64 q 449 166 403 118 q 528 283 496 215 q 579 433 561 351 q 528 368 561 399 q 456 315 496 338 q 373 280 416 293 q 290 267 329 267 q 168 290 221 267 q 82 356 115 314 q 38 456 49 397 q 41 583 26 514 m 135 583 q 130 489 123 533 q 158 414 136 446 q 217 364 179 382 q 307 346 254 346 q 406 362 358 346 q 490 409 453 379 q 552 481 526 439 q 587 575 578 524 q 594 670 599 625 q 569 748 590 714 q 509 801 547 782 q 412 821 471 821 q 317 804 363 821 q 235 757 272 787 q 172 682 199 726 q 135 583 146 637 z "},"\u0000":{"ha":758,"x_min":0,"x_max":0,"o":""},"\r":{"ha":758,"x_min":0,"x_max":0,"o":""}," ":{"ha":758,"x_min":0,"x_max":0,"o":""},"#":{"ha":758,"x_min":-35,"x_max":667,"o":"m 597 151 l 447 151 l 415 1 l 336 1 l 368 151 l 195 151 l 162 1 l 83 1 l 115 151 l -35 151 l -19 225 l 131 225 l 170 404 l 20 404 l 35 478 l 184 478 l 218 633 l 297 633 l 264 478 l 437 478 l 471 633 l 550 633 l 517 478 l 667 478 l 652 404 l 502 404 l 463 225 l 613 225 l 597 151 m 384 225 l 422 404 l 249 404 l 210 225 l 384 225 z "},"$":{"ha":758,"x_min":-20,"x_max":682,"o":"m 200 -11 q 102 17 144 -4 q 33 71 60 39 q -7 144 5 103 q -18 232 -20 186 l 74 254 q 108 135 75 186 q 216 71 140 85 l 293 428 q 201 471 240 449 q 136 522 161 493 q 103 587 111 550 q 106 673 94 624 q 139 755 114 717 q 201 824 164 793 q 286 874 237 854 q 393 900 335 893 l 416 1011 l 510 1011 l 486 900 q 574 870 536 893 q 637 814 612 847 q 672 740 661 781 q 676 659 682 700 l 576 642 q 555 751 581 701 q 468 814 530 800 l 400 494 q 563 390 514 449 q 591 231 612 330 q 556 144 582 184 q 492 71 530 103 q 403 17 453 39 q 293 -11 353 -5 l 268 -126 l 175 -126 l 200 -11 m 489 222 q 472 322 500 281 q 379 395 444 363 l 310 71 q 433 124 392 82 q 489 222 475 167 m 201 675 q 222 588 191 623 q 314 526 253 553 l 375 815 q 306 795 336 810 q 254 761 275 781 q 219 720 232 742 q 201 675 205 697 z "},"%":{"ha":758,"x_min":-61,"x_max":747,"o":"m 414 728 q 387 662 407 693 q 338 608 367 631 q 276 571 310 585 q 207 557 241 557 q 144 571 172 557 q 97 608 115 585 q 73 662 79 631 q 74 728 66 693 q 101 794 81 762 q 149 849 121 827 q 210 886 176 872 q 279 900 244 900 q 342 886 314 900 q 390 849 371 872 q 415 794 408 827 q 414 728 421 762 m 747 863 l -5 -18 l -61 22 l 694 905 l 747 863 m 616 155 q 589 89 610 119 q 541 35 568 58 q 478 -2 513 11 q 408 -16 443 -16 q 345 -2 374 -16 q 299 34 317 11 q 274 88 281 57 q 273 155 267 119 q 302 222 282 191 q 350 276 322 253 q 412 312 378 298 q 481 325 446 325 q 544 312 515 325 q 591 276 572 298 q 617 222 610 253 q 616 155 625 191 m 345 728 q 331 801 353 771 q 265 831 309 831 q 186 801 222 831 q 142 728 150 771 q 155 655 132 685 q 221 625 178 625 q 299 655 264 625 q 345 728 335 685 m 547 155 q 533 228 557 199 q 467 257 510 257 q 388 228 424 257 q 343 155 353 199 q 358 83 335 113 q 424 53 380 53 q 503 83 467 53 q 547 155 539 113 z "},"&":{"ha":758,"x_min":-47,"x_max":663,"o":"m 663 383 q 598 266 637 325 q 507 154 558 207 l 593 54 l 514 -18 l 429 86 q 302 13 370 41 q 164 -16 235 -16 q 71 3 113 -16 q 2 55 29 22 q -36 131 -25 87 q -36 227 -47 175 q -10 305 -26 269 q 28 369 7 340 q 77 420 50 397 q 132 463 103 443 q 90 567 102 515 q 89 672 78 619 q 185 838 111 777 q 359 900 258 900 q 443 886 406 900 q 505 846 481 872 q 538 784 529 821 q 538 700 547 747 q 497 610 526 647 q 430 544 468 572 q 347 492 392 515 q 258 444 301 469 l 453 215 q 526 309 494 260 q 579 406 557 358 l 663 383 m 183 74 q 286 94 236 74 q 379 147 336 114 l 195 375 l 178 395 q 106 325 136 364 q 64 227 77 285 q 83 118 50 161 q 183 74 117 74 m 184 672 q 181 600 178 640 q 212 509 184 559 q 290 549 252 529 q 359 590 328 568 q 412 640 390 612 q 441 703 435 667 q 424 786 453 755 q 342 817 395 817 q 287 805 313 817 q 240 773 261 793 q 206 726 220 753 q 184 672 192 700 z "},"'":{"ha":758,"x_min":334,"x_max":500,"o":"m 500 885 l 403 567 l 334 567 l 374 885 l 500 885 z "},"(":{"ha":758,"x_min":122,"x_max":614,"o":"m 309 -252 q 208 -122 249 -195 q 146 32 167 -50 q 123 203 125 114 q 142 385 122 293 q 201 565 161 476 q 296 736 240 654 q 423 890 351 818 q 579 1019 494 962 l 614 958 q 474 842 539 907 q 360 702 410 777 q 274 547 310 628 q 221 385 239 467 q 205 221 204 301 q 224 67 205 140 q 279 -73 243 -7 q 370 -191 315 -139 l 309 -252 z "},")":{"ha":758,"x_min":47,"x_max":541,"o":"m 521 383 q 463 203 501 292 q 368 32 424 114 q 240 -122 311 -50 q 83 -252 168 -195 l 47 -191 q 187 -74 122 -139 q 303 66 252 -8 q 390 221 354 140 q 441 383 425 301 q 459 547 460 465 q 438 702 458 628 q 381 842 418 777 q 292 958 345 907 l 354 1019 q 455 890 414 962 q 517 736 496 818 q 540 565 539 654 q 521 383 541 475 z "},"*":{"ha":758,"x_min":-3,"x_max":636,"o":"m 636 442 l 378 317 l 582 189 l 530 125 l 334 263 l 289 1 l 210 1 l 275 263 l 21 125 l -3 189 l 257 317 l 52 442 l 102 507 l 298 368 l 345 633 l 423 633 l 358 368 l 612 507 l 636 442 z "},"+":{"ha":758,"x_min":-7,"x_max":643,"o":"m 625 285 l 349 285 l 290 9 l 211 9 l 269 285 l -7 285 l 11 364 l 288 364 l 346 640 l 425 640 l 367 364 l 643 364 l 625 285 z "},",":{"ha":758,"x_min":15,"x_max":347,"o":"m 347 126 l 81 -253 l 15 -253 l 222 126 l 347 126 z "},"-":{"ha":758,"x_min":-7,"x_max":643,"o":"m 625 285 l -7 285 l 11 364 l 643 364 l 625 285 z "},".":{"ha":758,"x_min":186,"x_max":339,"o":"m 313 0 l 186 0 l 212 126 l 339 126 l 313 0 z "},"/":{"ha":758,"x_min":-66,"x_max":734,"o":"m 734 884 l -7 -163 l -66 -127 l 675 918 l 734 884 z "},":":{"ha":758,"x_min":186,"x_max":446,"o":"m 419 505 l 293 505 l 319 632 l 446 632 l 419 505 m 313 0 l 186 0 l 212 126 l 339 126 l 313 0 z "},";":{"ha":758,"x_min":41,"x_max":446,"o":"m 419 505 l 293 505 l 319 632 l 446 632 l 419 505 m 374 126 l 107 -253 l 41 -253 l 249 126 l 374 126 z "},"<":{"ha":758,"x_min":136,"x_max":599,"o":"m 475 31 l 410 -23 l 136 324 l 558 671 l 599 617 l 243 324 l 475 31 z "},"=":{"ha":758,"x_min":-39,"x_max":673,"o":"m 657 435 l 25 435 l 41 514 l 673 514 l 657 435 m 593 135 l -39 135 l -21 214 l 611 214 l 593 135 z "},">":{"ha":758,"x_min":37,"x_max":498,"o":"m 498 324 l 78 -23 l 37 31 l 391 324 l 161 617 l 227 671 l 498 324 z "},"?":{"ha":758,"x_min":186,"x_max":717,"o":"m 313 0 l 186 0 l 212 126 l 339 126 l 313 0 m 697 693 q 657 601 685 640 q 593 528 629 561 q 516 465 557 494 q 439 405 475 436 q 376 337 404 374 q 339 253 349 300 l 240 253 q 281 347 252 306 q 347 425 310 389 q 426 493 383 461 q 504 556 468 525 q 567 621 539 587 q 603 693 595 654 q 585 787 615 753 q 486 821 555 821 q 408 807 443 821 q 347 769 374 793 q 299 713 319 746 q 267 642 279 681 l 186 654 q 302 834 222 768 q 501 900 382 900 q 665 842 614 900 q 697 693 717 785 z "},"@":{"ha":758,"x_min":-17,"x_max":704,"o":"m 687 464 q 660 370 677 418 q 616 284 642 323 q 553 222 589 246 q 472 197 517 197 q 436 204 452 197 q 408 224 419 211 q 391 254 396 237 q 391 293 387 271 l 395 312 q 330 229 369 261 q 250 197 292 197 q 179 217 205 197 q 143 269 154 237 q 133 343 132 302 q 144 428 134 385 q 175 524 154 478 q 227 605 197 570 q 296 660 258 640 q 380 681 335 681 q 428 669 404 681 q 463 632 452 657 l 471 668 l 559 668 l 484 312 q 485 281 479 290 q 507 271 492 271 q 544 290 526 271 q 575 336 561 308 q 600 398 589 364 q 618 464 611 432 q 632 557 628 511 q 632 645 636 604 q 614 723 627 687 q 576 784 600 758 q 515 825 551 810 q 428 840 478 840 q 293 807 351 840 q 191 720 234 774 q 119 593 148 665 q 73 441 90 521 q 55 292 56 363 q 73 165 54 220 q 138 78 93 111 q 259 45 183 45 q 363 65 315 45 q 454 118 411 85 l 484 72 q 246 -16 379 -16 q 138 2 184 -16 q 61 50 92 19 q 13 124 31 81 q -11 218 -5 167 q -13 326 -17 269 q 4 441 -9 382 q 37 559 17 502 q 85 667 58 616 q 149 761 113 718 q 229 834 184 804 q 327 883 274 865 q 441 900 379 900 q 589 862 532 900 q 673 763 646 825 q 702 623 701 701 q 687 464 704 545 m 445 548 q 418 594 437 581 q 374 608 399 608 q 326 592 348 608 q 286 552 304 577 q 256 494 269 526 q 237 429 243 462 q 232 317 221 355 q 279 280 243 280 q 328 295 304 280 q 371 335 351 311 q 404 391 390 360 q 425 452 418 422 l 445 548 z "},"A":{"ha":758,"x_min":-107,"x_max":608,"o":"m 608 0 l 509 0 l 478 253 l 127 253 l -7 0 l -107 0 l 375 885 l 501 885 l 608 0 m 469 335 l 418 791 l 172 335 l 469 335 z "},"B":{"ha":758,"x_min":-33,"x_max":688,"o":"m 616 253 q 495 63 590 126 q 249 0 400 0 l -33 0 l 154 885 l 421 885 q 528 876 476 885 q 616 842 579 867 q 670 772 653 817 q 672 656 688 728 q 494 468 643 518 q 616 253 652 416 m 579 656 q 575 732 589 703 q 535 778 562 762 q 473 800 509 794 q 404 806 437 806 l 231 806 l 167 505 l 340 505 q 416 511 378 505 q 487 533 454 517 q 545 579 519 550 q 579 656 570 608 m 524 253 q 493 386 543 345 q 339 428 443 428 l 150 428 l 77 79 l 265 79 q 437 123 370 79 q 524 253 505 167 z "},"C":{"ha":758,"x_min":-7,"x_max":753,"o":"m 619 232 q 468 51 561 118 q 256 -16 375 -16 q 106 23 163 -16 q 22 124 50 61 q -6 270 -5 187 q 12 441 -7 353 q 67 613 32 530 q 158 760 103 696 q 284 862 212 823 q 450 900 357 900 q 584 871 532 900 q 652 782 636 842 l 673 885 l 753 885 l 690 595 l 611 595 q 613 683 623 642 q 579 755 603 725 q 517 803 555 786 q 433 821 479 821 q 307 787 361 821 q 213 698 253 753 q 146 576 172 643 q 106 441 119 509 q 89 308 92 375 q 103 186 86 240 q 160 98 121 132 q 272 64 200 64 q 546 264 437 64 l 619 232 z "},"D":{"ha":758,"x_min":-33,"x_max":707,"o":"m 688 441 q 633 272 668 353 q 543 131 597 192 q 417 35 489 71 q 254 0 346 0 l -33 0 l 154 885 l 441 885 q 589 849 532 885 q 673 751 646 812 q 704 610 701 690 q 688 441 707 530 m 595 441 q 587 710 632 615 q 425 806 542 806 l 231 806 l 77 79 l 271 79 q 473 174 387 79 q 595 441 558 268 z "},"E":{"ha":758,"x_min":-33,"x_max":720,"o":"m 532 0 l -33 0 l 154 885 l 720 885 l 703 806 l 231 806 l 163 489 l 511 489 l 494 410 l 146 410 l 77 79 l 549 79 l 532 0 z "},"F":{"ha":758,"x_min":-33,"x_max":720,"o":"m 703 806 l 231 806 l 163 489 l 511 489 l 494 410 l 146 410 l 60 0 l -33 0 l 154 885 l 720 885 l 703 806 z "},"G":{"ha":758,"x_min":-7,"x_max":753,"o":"m 693 440 q 637 268 673 350 q 547 123 602 186 q 420 22 493 60 q 256 -16 347 -16 q 106 23 163 -16 q 22 124 50 61 q -6 270 -5 187 q 12 441 -7 353 q 67 613 32 530 q 158 760 103 696 q 284 862 212 823 q 450 900 357 900 q 584 871 532 900 q 652 782 636 842 l 673 885 l 753 885 l 690 595 l 611 595 q 613 685 623 643 q 580 756 604 726 q 517 803 555 786 q 433 821 479 821 q 307 787 361 821 q 213 698 253 753 q 146 576 172 643 q 106 441 119 509 q 89 308 92 375 q 103 186 86 240 q 160 98 121 132 q 272 64 200 64 q 459 146 379 64 q 582 379 539 229 l 386 379 l 403 458 l 697 458 l 693 440 z "},"H":{"ha":758,"x_min":-33,"x_max":720,"o":"m 532 0 l 439 0 l 525 410 l 146 410 l 60 0 l -33 0 l 154 885 l 248 885 l 163 489 l 542 489 l 627 885 l 720 885 l 532 0 z "},"I":{"ha":758,"x_min":60,"x_max":627,"o":"m 439 0 l 60 0 l 77 79 l 220 79 l 374 806 l 231 806 l 248 885 l 627 885 l 610 806 l 467 806 l 313 79 l 456 79 l 439 0 z "},"J":{"ha":758,"x_min":-20,"x_max":720,"o":"m 603 338 q 476 77 567 170 q 237 -16 385 -16 q 53 46 119 -16 q -20 232 -14 109 l 68 262 q 122 108 74 153 q 254 64 170 64 q 361 89 317 64 q 435 153 406 114 q 482 240 464 192 q 510 338 500 289 l 627 885 l 720 885 l 603 338 z "},"K":{"ha":758,"x_min":-33,"x_max":749,"o":"m 561 0 l 447 0 l 244 433 l 129 329 l 60 0 l -33 0 l 154 885 l 248 885 l 155 454 l 627 885 l 749 885 l 319 498 l 561 0 z "},"L":{"ha":758,"x_min":-33,"x_max":549,"o":"m 532 0 l -33 0 l 154 885 l 248 885 l 77 79 l 549 79 l 532 0 z "},"M":{"ha":758,"x_min":-33,"x_max":720,"o":"m 532 0 l 439 0 l 595 737 l 340 281 l 273 281 l 215 737 l 60 0 l -33 0 l 154 885 l 275 885 l 338 422 l 599 885 l 720 885 l 532 0 z "},"N":{"ha":758,"x_min":-33,"x_max":720,"o":"m 532 0 l 416 0 l 218 749 l 60 0 l -33 0 l 154 885 l 285 885 l 475 171 l 627 885 l 720 885 l 532 0 z "},"O":{"ha":758,"x_min":-16,"x_max":701,"o":"m 682 441 q 627 270 663 353 q 538 124 591 187 q 412 23 485 61 q 245 -16 339 -16 q 96 23 153 -16 q 13 124 40 61 q -15 270 -14 187 q 4 441 -16 353 q 59 613 24 530 q 149 760 94 696 q 276 862 204 823 q 440 900 349 900 q 589 862 532 900 q 672 760 646 823 q 700 613 699 696 q 682 441 701 530 m 589 441 q 606 599 607 529 q 583 719 604 669 q 522 794 562 768 q 424 821 482 821 q 297 787 351 821 q 203 698 243 753 q 137 576 163 643 q 97 441 111 509 q 80 308 83 375 q 94 186 77 240 q 151 98 111 132 q 262 64 191 64 q 390 98 335 64 q 484 186 444 132 q 549 308 524 240 q 589 441 575 375 z "},"P":{"ha":758,"x_min":-33,"x_max":725,"o":"m 697 632 q 578 441 671 504 q 340 379 485 379 l 140 379 l 60 0 l -33 0 l 154 885 l 446 885 q 658 822 591 885 q 697 632 725 758 m 604 632 q 575 765 624 724 q 431 806 526 806 l 231 806 l 157 458 l 357 458 q 519 499 453 458 q 604 632 585 541 z "},"Q":{"ha":758,"x_min":-14,"x_max":701,"o":"m 682 441 q 631 278 664 357 q 550 138 599 200 q 436 36 501 77 q 289 -12 371 -4 q 325 -138 285 -103 q 456 -172 364 -172 q 496 -172 479 -172 q 529 -170 513 -171 l 511 -249 q 474 -251 492 -250 q 439 -252 456 -252 q 242 -193 300 -252 q 196 -11 184 -134 q 76 38 122 -1 q 8 137 29 77 q -14 276 -14 197 q 4 441 -14 354 q 59 613 24 530 q 149 760 94 696 q 276 862 204 823 q 440 900 349 900 q 589 862 532 900 q 672 760 646 823 q 700 613 699 696 q 682 441 701 530 m 589 441 q 606 576 603 509 q 592 698 608 643 q 535 787 576 753 q 424 821 494 821 q 297 787 351 821 q 203 698 243 753 q 137 576 163 643 q 97 441 111 509 q 102 164 60 265 q 262 64 144 64 q 465 164 379 64 q 589 441 551 265 z "},"R":{"ha":758,"x_min":-33,"x_max":725,"o":"m 574 0 l 456 0 l 278 379 l 140 379 l 60 0 l -33 0 l 154 885 l 446 885 q 658 822 591 885 q 697 632 725 758 q 657 532 686 576 q 588 456 628 488 q 496 406 547 425 q 387 383 444 387 l 574 0 m 602 632 q 573 764 621 722 q 429 806 526 806 l 231 806 l 157 458 l 355 458 q 517 499 453 458 q 602 632 582 541 z "},"S":{"ha":758,"x_min":-50,"x_max":708,"o":"m 591 231 q 547 130 579 175 q 468 52 514 85 q 369 2 422 20 q 261 -16 315 -16 q 130 12 186 -16 q 49 94 74 40 l 29 0 l -50 0 l 7 269 l 86 269 q 89 186 77 224 q 129 121 102 149 q 194 79 155 94 q 278 64 233 64 q 353 75 317 64 q 418 107 389 86 q 468 157 447 127 q 497 225 489 187 q 495 298 507 268 q 455 351 482 329 q 392 388 428 372 q 318 418 355 403 q 230 453 273 435 q 153 500 186 472 q 106 570 121 529 q 104 672 92 611 q 149 769 117 726 q 224 840 180 811 q 320 885 268 869 q 425 900 372 900 q 538 873 489 900 q 607 793 587 847 l 627 885 l 708 885 l 654 632 l 572 632 q 571 707 581 672 q 539 767 562 742 q 483 806 517 791 q 408 821 449 821 q 338 812 372 821 q 276 786 304 804 q 227 740 248 768 q 197 672 205 711 q 203 613 191 637 q 240 570 215 589 q 300 536 265 551 q 372 505 335 521 q 463 466 418 488 q 541 414 509 444 q 590 339 574 383 q 591 231 606 294 z "},"T":{"ha":758,"x_min":57,"x_max":753,"o":"m 689 586 l 610 586 l 657 806 l 467 806 l 313 79 l 456 79 l 439 0 l 60 0 l 77 79 l 220 79 l 374 806 l 183 806 l 136 586 l 57 586 l 121 885 l 753 885 l 689 586 z "},"U":{"ha":758,"x_min":17,"x_max":720,"o":"m 599 315 q 553 179 582 240 q 479 75 524 118 q 376 8 435 32 q 244 -16 318 -16 q 122 8 171 -16 q 50 75 74 32 q 21 180 25 118 q 33 317 17 241 l 154 885 l 248 885 l 126 315 q 115 231 118 275 q 126 149 113 186 q 170 88 139 113 q 261 64 201 64 q 364 88 321 64 q 435 149 407 113 q 480 231 464 186 q 505 315 497 275 l 627 885 l 720 885 l 599 315 z "},"V":{"ha":758,"x_min":81,"x_max":796,"o":"m 796 885 l 313 0 l 186 0 l 81 885 l 179 885 l 269 94 l 694 885 l 796 885 z "},"W":{"ha":758,"x_min":49,"x_max":796,"o":"m 796 885 l 449 0 l 339 0 l 340 432 l 157 0 l 49 0 l 78 885 l 176 885 l 147 157 l 336 632 l 428 632 l 416 157 l 696 885 l 796 885 z "},"X":{"ha":758,"x_min":-82,"x_max":753,"o":"m 581 0 l 329 0 l 346 79 l 406 79 l 328 370 l 126 79 l 186 79 l 170 0 l -82 0 l -65 79 l 21 79 l 290 446 l 178 806 l 104 806 l 121 885 l 374 885 l 357 806 l 283 806 l 359 522 l 554 806 l 484 806 l 500 885 l 753 885 l 736 806 l 660 806 l 399 446 l 511 79 l 597 79 l 581 0 z "},"Y":{"ha":758,"x_min":60,"x_max":766,"o":"m 750 806 l 677 806 l 376 382 l 313 79 l 456 79 l 439 0 l 60 0 l 77 79 l 220 79 l 283 382 l 163 806 l 90 806 l 107 885 l 357 885 l 340 806 l 267 806 l 350 472 l 574 806 l 500 806 l 517 885 l 766 885 l 750 806 z "},"Z":{"ha":758,"x_min":-33,"x_max":708,"o":"m 534 0 l -33 0 l -17 79 l 582 806 l 216 806 l 171 589 l 92 589 l 154 885 l 708 885 l 692 806 l 97 79 l 472 79 l 518 300 l 597 300 l 534 0 z "},"[":{"ha":758,"x_min":132,"x_max":653,"o":"m 385 -253 l 132 -253 l 400 1011 l 653 1011 l 637 936 l 460 936 l 224 -176 l 401 -176 l 385 -253 z "},"\\":{"ha":758,"x_min":211,"x_max":582,"o":"m 582 -127 l 509 -163 l 211 884 l 285 918 l 582 -127 z "},"]":{"ha":758,"x_min":5,"x_max":526,"o":"m 258 -253 l 5 -253 l 22 -176 l 200 -176 l 436 936 l 258 936 l 273 1011 l 526 1011 l 258 -253 z "},"^":{"ha":758,"x_min":16,"x_max":648,"o":"m 648 379 l 545 379 l 420 795 l 119 379 l 16 379 l 376 885 l 501 885 l 648 379 z "},"_":{"ha":758,"x_min":-93,"x_max":555,"o":"m 539 -126 l -93 -126 l -77 -52 l 555 -52 l 539 -126 z "},"`":{"ha":758,"x_min":269,"x_max":562,"o":"m 562 730 l 526 686 l 269 851 l 329 925 l 562 730 z "},"a":{"ha":758,"x_min":-52,"x_max":632,"o":"m -32 171 q 19 271 -20 231 q 111 335 57 311 q 229 369 164 358 q 359 379 294 379 q 404 378 385 379 q 442 376 424 378 q 477 373 460 375 q 517 368 494 371 l 526 414 q 523 490 536 460 q 483 537 509 519 q 427 561 457 554 q 374 568 396 568 q 239 549 302 568 q 118 498 176 530 l 90 568 q 231 625 155 603 q 392 647 307 647 q 490 634 443 647 q 571 593 538 621 q 618 521 604 566 q 619 414 632 476 l 532 0 l 439 0 l 461 106 q 394 52 429 75 q 321 15 358 29 q 249 -8 285 0 q 182 -16 212 -16 q 3 33 57 -16 q -32 171 -52 81 m 199 64 q 308 81 257 64 q 396 124 358 98 q 458 179 433 150 q 488 232 482 208 l 500 292 q 414 299 456 298 q 342 300 372 300 q 244 293 292 300 q 158 271 196 286 q 94 231 121 256 q 61 171 68 207 q 83 97 52 131 q 199 64 115 64 z "},"b":{"ha":758,"x_min":-33,"x_max":647,"o":"m 632 315 q 581 182 616 243 q 495 77 546 121 q 380 9 444 33 q 241 -16 315 -16 q 148 3 191 -16 q 71 57 104 21 l 60 0 l -33 0 l 154 885 l 248 885 l 180 574 q 280 628 229 608 q 383 647 332 647 q 510 622 457 647 q 596 554 564 597 q 638 449 629 510 q 632 315 647 387 m 538 315 q 545 415 549 370 q 519 495 541 461 q 459 549 497 529 q 366 568 421 568 q 161 484 258 568 l 90 146 q 163 83 121 102 q 258 64 205 64 q 360 83 314 64 q 442 137 406 103 q 502 217 478 171 q 538 315 526 262 z "},"c":{"ha":758,"x_min":-17,"x_max":669,"o":"m 567 121 q 435 21 513 58 q 262 -16 358 -16 q 133 9 189 -16 q 42 77 77 33 q -5 181 7 121 q 0 315 -17 241 q 51 449 16 387 q 137 554 86 510 q 253 622 187 597 q 392 647 318 647 q 450 640 421 647 q 502 620 478 633 q 544 586 526 606 q 567 541 561 567 l 586 632 l 669 632 l 616 379 l 533 379 q 534 456 542 421 q 505 515 526 490 q 449 554 484 541 q 374 568 415 568 q 270 549 317 568 q 188 495 224 529 q 129 415 153 461 q 93 315 104 370 q 87 215 81 261 q 119 136 94 170 q 183 83 143 103 q 279 64 224 64 q 411 92 350 64 q 511 165 472 119 l 567 121 z "},"d":{"ha":758,"x_min":-17,"x_max":720,"o":"m 532 0 l 439 0 l 450 58 q 351 3 403 22 q 249 -16 298 -16 q 119 9 174 -16 q 33 77 65 33 q -8 182 1 121 q -1 315 -17 243 q 49 449 14 387 q 135 554 85 510 q 250 622 184 597 q 390 647 315 647 q 484 629 440 647 q 559 575 528 611 l 610 806 l 484 806 l 500 885 l 720 885 l 532 0 m 542 485 q 467 549 510 529 q 371 568 424 568 q 269 549 315 568 q 187 495 222 529 q 127 415 151 461 q 92 315 103 370 q 84 215 79 261 q 111 136 89 170 q 170 82 132 102 q 264 62 208 62 q 469 147 371 62 l 542 485 z "},"e":{"ha":758,"x_min":-20,"x_max":648,"o":"m 86 283 q 125 123 75 183 q 277 64 175 64 q 409 93 347 64 q 509 165 471 122 l 564 121 q 429 19 503 54 q 260 -16 355 -16 q 131 9 186 -16 q 40 77 75 33 q -8 181 4 121 q -3 315 -20 241 q 47 448 12 387 q 133 553 82 509 q 250 622 184 597 q 389 647 315 647 q 524 620 469 647 q 608 545 578 593 q 644 431 639 497 q 632 283 648 364 l 86 283 m 550 363 q 508 517 557 467 q 371 568 458 568 q 285 554 326 568 q 210 512 244 539 q 147 447 175 485 q 104 363 119 408 l 550 363 z "},"f":{"ha":758,"x_min":60,"x_max":754,"o":"m 682 553 l 412 553 l 313 79 l 456 79 l 439 0 l 60 0 l 77 79 l 220 79 l 319 553 l 176 553 l 193 632 l 336 632 q 446 831 364 762 q 664 900 528 900 q 718 898 696 900 q 754 893 741 896 l 737 814 q 697 819 718 817 q 647 821 676 821 q 504 775 558 821 q 429 632 450 730 l 699 632 l 682 553 z "},"g":{"ha":758,"x_min":-71,"x_max":665,"o":"m 533 7 q 486 -109 519 -58 q 405 -195 453 -160 q 298 -249 357 -231 q 172 -268 239 -268 q 20 -233 78 -268 q -71 -131 -39 -197 l 3 -81 q 71 -155 22 -125 q 191 -184 119 -184 q 353 -136 286 -184 q 439 4 419 -87 l 454 72 q 249 -1 354 -1 q 33 83 100 -1 q -1 315 -33 168 q 48 448 14 387 q 134 553 83 509 q 249 622 184 597 q 387 647 314 647 q 483 629 439 647 q 559 575 528 611 l 572 632 l 665 632 l 533 7 m 542 485 q 466 549 510 529 q 370 568 422 568 q 268 549 314 568 q 186 495 221 529 q 127 415 151 461 q 92 315 103 368 q 110 142 68 207 q 265 78 153 78 q 371 98 318 78 q 472 163 424 118 l 542 485 z "},"h":{"ha":758,"x_min":-33,"x_max":669,"o":"m 532 0 l 439 0 l 521 390 q 512 522 539 475 q 403 568 485 568 q 305 545 351 568 q 221 481 258 521 q 157 390 183 441 q 119 283 131 339 l 60 0 l -33 0 l 154 885 l 248 885 l 160 473 q 436 647 264 647 q 614 390 669 647 l 532 0 z "},"i":{"ha":758,"x_min":60,"x_max":500,"o":"m 473 758 l 347 758 l 374 885 l 500 885 l 473 758 m 439 0 l 60 0 l 77 79 l 220 79 l 319 553 l 176 553 l 193 632 l 429 632 l 313 79 l 456 79 l 439 0 z "},"j":{"ha":758,"x_min":-90,"x_max":627,"o":"m 600 758 l 473 758 l 500 885 l 627 885 l 600 758 m 111 -268 q -90 -131 -56 -268 l -11 -82 q 37 -161 3 -134 q 129 -189 71 -189 q 209 -176 175 -189 q 266 -138 243 -163 q 304 -79 289 -114 q 329 0 319 -45 l 446 553 l 302 553 l 319 632 l 555 632 l 422 0 q 316 -195 396 -122 q 111 -268 236 -268 z "},"k":{"ha":758,"x_min":-33,"x_max":686,"o":"m 564 0 l 432 0 l 233 283 l 97 179 l 60 0 l -33 0 l 154 885 l 248 885 l 121 292 l 553 632 l 686 632 l 309 342 l 564 0 z "},"l":{"ha":758,"x_min":60,"x_max":484,"o":"m 439 0 l 60 0 l 77 79 l 220 79 l 374 806 l 231 806 l 248 885 l 484 885 l 313 79 l 456 79 l 439 0 z "},"m":{"ha":758,"x_min":-66,"x_max":682,"o":"m 566 0 l 472 0 l 568 454 q 567 538 579 509 q 518 568 554 568 q 429 513 465 568 q 371 357 392 457 l 296 0 l 203 0 l 298 454 q 297 538 310 509 q 248 568 283 568 q 190 549 214 568 q 150 498 167 529 q 121 431 132 468 q 102 357 110 393 l 26 0 l -66 0 l 66 632 l 160 632 l 140 541 q 290 647 193 647 q 396 554 383 647 q 547 647 463 647 q 655 599 628 647 q 661 454 682 551 l 566 0 z "},"n":{"ha":758,"x_min":-33,"x_max":669,"o":"m 532 0 l 439 0 l 521 390 q 512 522 539 475 q 403 568 485 568 q 305 545 351 568 q 221 481 258 521 q 157 390 183 441 q 119 283 131 339 l 60 0 l -33 0 l 100 632 l 193 632 l 160 473 q 436 647 264 647 q 614 390 669 647 l 532 0 z "},"o":{"ha":758,"x_min":-31,"x_max":664,"o":"m 648 314 q 596 180 632 240 q 507 76 559 119 q 388 9 454 33 q 245 -16 321 -16 q 117 9 172 -16 q 26 76 61 33 q -19 180 -8 119 q -14 314 -31 240 q 38 448 1 386 q 128 554 75 510 q 247 622 180 597 q 387 647 314 647 q 518 622 463 647 q 608 554 574 597 q 653 448 643 510 q 648 314 664 386 m 555 314 q 561 414 567 368 q 530 494 554 460 q 465 549 505 529 q 370 568 425 568 q 265 549 314 568 q 179 494 216 529 q 116 414 142 460 q 79 314 90 368 q 73 214 66 260 q 103 135 79 168 q 166 83 126 102 q 262 64 207 64 q 367 83 318 64 q 453 135 415 102 q 517 214 492 168 q 555 314 543 260 z "},"p":{"ha":758,"x_min":-86,"x_max":647,"o":"m 632 315 q 580 181 615 241 q 494 77 545 121 q 378 9 443 33 q 240 -16 314 -16 q 148 3 191 -16 q 71 57 104 21 l 5 -253 l -86 -253 l 100 632 l 193 632 l 180 574 q 382 647 283 647 q 509 623 456 647 q 595 554 562 599 q 637 449 628 510 q 632 315 647 387 m 539 315 q 545 415 550 368 q 518 495 541 461 q 457 549 496 529 q 364 568 419 568 q 261 549 311 568 q 163 485 211 529 l 90 146 q 162 83 121 102 q 257 64 204 64 q 359 83 313 64 q 443 137 406 103 q 504 217 479 171 q 539 315 528 262 z "},"q":{"ha":758,"x_min":-17,"x_max":665,"o":"m 0 315 q 52 449 16 387 q 138 554 87 510 q 254 623 189 599 q 392 647 318 647 q 559 574 490 647 l 572 632 l 665 632 l 478 -253 l 385 -253 l 450 57 q 351 3 403 21 q 250 -16 300 -16 q 123 9 176 -16 q 37 77 69 33 q -6 181 4 121 q 0 315 -17 241 m 93 315 q 87 217 82 262 q 113 137 92 171 q 173 83 135 103 q 267 64 211 64 q 369 83 319 64 q 469 146 419 102 l 542 485 q 468 549 510 529 q 374 568 427 568 q 272 549 318 568 q 189 495 225 529 q 129 415 153 461 q 93 315 104 368 z "},"r":{"ha":758,"x_min":-66,"x_max":692,"o":"m 646 543 q 530 568 600 568 q 424 544 473 568 q 335 480 375 519 q 268 389 296 440 q 229 283 240 338 l 186 79 l 329 79 l 313 0 l -66 0 l -50 79 l 93 79 l 193 553 l 50 553 l 66 632 l 302 632 l 269 473 q 549 647 371 647 q 631 641 597 647 q 692 619 665 635 l 646 543 z "},"s":{"ha":758,"x_min":-58,"x_max":635,"o":"m 585 175 q 538 83 574 119 q 454 24 503 46 q 349 -6 406 3 q 241 -16 293 -16 q 76 9 155 -16 q -58 75 -4 35 l 0 155 q 123 87 61 111 q 258 64 186 64 q 492 172 468 64 q 483 215 497 199 q 442 242 469 232 q 379 259 415 253 q 302 271 343 265 q 201 288 252 278 q 113 319 151 298 q 55 373 74 339 q 47 463 36 407 q 90 545 58 510 q 166 602 121 579 q 268 636 211 625 q 383 647 325 647 q 528 628 467 647 q 635 572 590 608 l 582 500 q 484 553 536 538 q 366 568 431 568 q 300 563 336 568 q 231 546 264 558 q 172 513 197 533 q 140 463 147 493 q 149 420 135 436 q 190 394 163 404 q 253 377 216 383 q 329 366 289 371 q 430 348 379 358 q 519 318 481 338 q 578 264 558 298 q 585 175 597 231 z "},"t":{"ha":758,"x_min":50,"x_max":614,"o":"m 614 201 q 502 43 582 102 q 321 -16 422 -16 q 223 3 265 -16 q 156 54 182 21 q 122 132 131 86 q 125 232 114 178 l 193 553 l 50 553 l 66 632 l 210 632 l 264 885 l 357 885 l 302 632 l 572 632 l 555 553 l 286 553 l 218 232 q 215 167 211 197 q 235 113 220 136 q 276 77 250 90 q 338 64 301 64 q 463 107 407 64 q 541 218 518 150 l 614 201 z "},"u":{"ha":758,"x_min":-37,"x_max":665,"o":"m 100 632 l 193 632 l 110 241 q 119 110 93 157 q 228 64 146 64 q 327 87 279 64 q 411 151 374 111 q 474 242 449 191 q 513 349 500 293 l 572 632 l 665 632 l 532 0 l 439 0 l 472 158 q 196 -16 368 -16 q 17 241 -37 -16 l 100 632 z "},"v":{"ha":758,"x_min":46,"x_max":720,"o":"m 720 632 l 313 0 l 187 0 l 46 632 l 157 632 l 265 78 l 608 632 l 720 632 z "},"w":{"ha":758,"x_min":45,"x_max":720,"o":"m 720 632 l 458 0 l 350 0 l 346 464 l 153 0 l 45 0 l 49 632 l 147 632 l 132 126 l 338 632 l 429 632 l 424 126 l 623 632 l 720 632 z "},"x":{"ha":758,"x_min":-81,"x_max":699,"o":"m 581 0 l 319 0 l 336 82 l 392 82 l 306 265 l 143 82 l 195 82 l 178 0 l -81 0 l -64 82 l 35 82 l 260 321 l 140 549 l 49 549 l 66 632 l 326 632 l 309 549 l 250 549 l 329 376 l 482 549 l 418 549 l 436 632 l 699 632 l 681 549 l 591 549 l 378 321 l 500 82 l 597 82 l 581 0 z "},"y":{"ha":758,"x_min":-119,"x_max":718,"o":"m 718 632 l 208 -160 q 115 -247 168 -227 q 4 -268 62 -268 q -119 -244 -61 -268 l -85 -164 q -27 -183 -57 -178 q 22 -189 3 -189 q 90 -167 68 -189 q 131 -114 111 -144 l 191 -18 l 46 632 l 155 632 l 267 79 l 607 632 l 718 632 z "},"z":{"ha":758,"x_min":-35,"x_max":653,"o":"m 534 0 l -35 0 l -18 79 l 513 553 l 163 553 l 126 379 l 47 379 l 100 632 l 653 632 l 636 553 l 106 79 l 472 79 l 509 253 l 587 253 l 534 0 z "},"{":{"ha":758,"x_min":132,"x_max":652,"o":"m 383 -253 l 321 -253 q 247 -238 279 -253 q 196 -199 215 -224 q 170 -138 176 -174 q 172 -61 164 -103 l 233 227 q 132 340 258 340 l 147 416 q 298 530 273 416 l 359 822 q 390 899 370 864 q 441 958 411 933 q 510 997 472 983 q 589 1011 547 1011 l 652 1011 l 636 936 l 574 936 q 433 822 458 936 l 372 530 q 352 482 367 507 q 318 435 338 457 q 274 398 298 414 q 222 378 249 382 q 265 358 248 374 q 293 321 282 343 q 309 275 304 300 q 307 227 313 250 l 245 -61 q 338 -176 222 -176 l 400 -176 l 383 -253 z "},"|":{"ha":758,"x_min":175,"x_max":510,"o":"m 268 -126 l 175 -126 l 416 1011 l 510 1011 l 268 -126 z "},"}":{"ha":758,"x_min":5,"x_max":525,"o":"m 510 340 q 359 227 385 340 l 298 -62 q 269 -139 290 -104 q 216 -199 248 -174 q 147 -239 184 -225 q 68 -253 110 -253 l 5 -253 l 22 -176 l 85 -176 q 222 -62 199 -176 l 283 227 q 303 276 289 250 q 338 323 318 301 q 383 359 358 345 q 433 378 408 374 q 391 398 410 383 q 361 435 372 414 q 347 482 350 457 q 349 530 343 507 l 410 822 q 321 936 435 936 l 258 936 l 273 1011 l 336 1011 q 410 997 378 1011 q 462 957 441 982 q 488 897 482 932 q 486 822 494 863 l 425 530 q 525 416 400 416 l 510 340 z "},"~":{"ha":758,"x_min":-32,"x_max":664,"o":"m 429 253 q 474 269 454 253 q 512 313 494 285 q 544 379 529 340 q 575 463 559 418 l 664 453 q 622 340 647 392 q 564 250 596 288 q 492 189 532 212 q 410 167 453 167 q 343 183 368 167 q 303 222 318 199 q 280 273 289 246 q 263 324 272 300 q 241 363 254 347 q 204 379 228 379 q 158 363 179 379 q 120 319 138 347 q 88 254 102 292 q 58 171 73 216 l -32 181 q 12 293 -14 241 q 68 384 37 346 q 139 445 100 422 q 222 467 178 467 q 289 451 264 467 q 329 411 314 435 q 353 360 345 388 q 371 309 362 332 q 392 269 379 285 q 429 253 406 253 z "},"Ä":{"ha":758,"x_min":-107,"x_max":681,"o":"m 608 0 l 509 0 l 478 253 l 127 253 l -7 0 l -107 0 l 375 885 l 501 885 l 608 0 m 469 335 l 418 791 l 172 335 l 469 335 m 654 1010 l 528 1010 l 554 1137 l 681 1137 l 654 1010 m 401 1010 l 275 1010 l 302 1137 l 428 1137 l 401 1010 z "},"Å":{"ha":758,"x_min":-107,"x_max":618,"o":"m 306 983 q 330 1043 313 1015 q 373 1092 347 1071 q 429 1124 399 1112 q 490 1136 458 1136 q 548 1124 522 1136 q 590 1092 574 1112 q 612 1043 606 1071 q 611 983 618 1015 q 573 904 602 939 q 505 850 545 869 l 608 0 l 509 0 l 478 253 l 127 253 l -7 0 l -107 0 l 354 848 q 310 903 323 868 q 306 983 296 939 m 469 335 l 418 791 l 172 335 l 469 335 m 367 983 q 380 919 358 946 q 439 892 401 892 q 509 919 476 892 q 550 983 542 946 q 537 1048 558 1021 q 478 1075 515 1075 q 408 1048 440 1075 q 367 983 375 1021 z "},"Ç":{"ha":758,"x_min":-7,"x_max":753,"o":"m 619 232 q 488 67 567 131 q 310 -11 410 3 l 306 -28 q 216 -187 285 -127 q 43 -252 143 -252 l 60 -172 q 228 -28 197 -172 l 231 -14 q 94 31 146 -8 q 17 133 41 71 q -6 276 -7 196 q 12 441 -5 355 q 67 613 32 530 q 158 760 103 696 q 284 862 212 823 q 450 900 357 900 q 584 871 532 900 q 652 782 636 842 l 673 885 l 753 885 l 690 595 l 611 595 q 613 683 623 642 q 579 755 603 725 q 517 803 555 786 q 433 821 479 821 q 307 787 361 821 q 213 698 253 753 q 146 576 172 643 q 106 441 119 509 q 89 308 92 375 q 103 186 86 240 q 160 98 121 132 q 272 64 200 64 q 546 264 437 64 l 619 232 z "},"É":{"ha":758,"x_min":-33,"x_max":720,"o":"m 532 0 l -33 0 l 154 885 l 720 885 l 703 806 l 231 806 l 163 489 l 511 489 l 494 410 l 146 410 l 77 79 l 549 79 l 532 0 m 650 1103 l 322 938 l 306 982 l 621 1177 l 650 1103 z "},"Ñ":{"ha":758,"x_min":-33,"x_max":738,"o":"m 532 0 l 416 0 l 218 749 l 60 0 l -33 0 l 154 885 l 285 885 l 475 171 l 627 885 l 720 885 l 532 0 m 738 1085 q 549 978 654 978 q 488 990 510 978 q 450 1018 465 1003 q 419 1045 435 1032 q 378 1057 404 1057 q 249 982 309 1057 l 201 1014 q 391 1120 286 1120 q 451 1107 429 1120 q 489 1080 473 1095 q 520 1053 505 1065 q 562 1040 535 1040 q 690 1117 631 1040 l 738 1085 z "},"Ö":{"ha":758,"x_min":-16,"x_max":701,"o":"m 682 441 q 627 270 663 353 q 538 124 591 187 q 412 23 485 61 q 245 -16 339 -16 q 96 23 153 -16 q 13 124 40 61 q -15 270 -14 187 q 4 441 -16 353 q 59 613 24 530 q 149 760 94 696 q 276 862 204 823 q 440 900 349 900 q 589 862 532 900 q 672 760 646 823 q 700 613 699 696 q 682 441 701 530 m 589 441 q 606 599 607 529 q 583 719 604 669 q 522 794 562 768 q 424 821 482 821 q 297 787 351 821 q 203 698 243 753 q 137 576 163 643 q 97 441 111 509 q 80 308 83 375 q 94 186 77 240 q 151 98 111 132 q 262 64 191 64 q 390 98 335 64 q 484 186 444 132 q 549 308 524 240 q 589 441 575 375 m 654 1010 l 528 1010 l 554 1137 l 681 1137 l 654 1010 m 401 1010 l 275 1010 l 302 1137 l 428 1137 l 401 1010 z "},"Ü":{"ha":758,"x_min":17,"x_max":720,"o":"m 599 315 q 553 179 582 240 q 479 75 524 118 q 376 8 435 32 q 244 -16 318 -16 q 122 8 171 -16 q 50 75 74 32 q 21 180 25 118 q 33 317 17 241 l 154 885 l 248 885 l 126 315 q 115 231 118 275 q 126 149 113 186 q 170 88 139 113 q 261 64 201 64 q 364 88 321 64 q 435 149 407 113 q 480 231 464 186 q 505 315 497 275 l 627 885 l 720 885 l 599 315 m 654 1010 l 528 1010 l 554 1137 l 681 1137 l 654 1010 m 401 1010 l 275 1010 l 302 1137 l 428 1137 l 401 1010 z "},"á":{"ha":758,"x_min":-50,"x_max":633,"o":"m -31 171 q 20 271 -18 231 q 112 335 58 311 q 231 369 165 358 q 361 379 296 379 q 406 378 386 379 q 443 376 425 378 q 478 373 461 375 q 518 368 496 371 l 528 414 q 524 490 538 460 q 484 537 510 519 q 428 561 458 554 q 375 568 397 568 q 241 549 304 568 q 119 498 178 530 l 92 568 q 233 625 157 603 q 393 647 309 647 q 492 634 444 647 q 572 593 539 621 q 620 521 606 566 q 621 414 633 476 l 533 0 l 440 0 l 463 106 q 395 52 431 75 q 323 15 359 29 q 250 -8 286 0 q 183 -16 214 -16 q 4 33 58 -16 q -31 171 -50 81 m 200 64 q 309 81 258 64 q 397 124 359 98 q 459 179 435 150 q 489 232 484 208 l 501 292 q 415 299 457 298 q 343 300 374 300 q 245 293 293 300 q 160 271 197 286 q 96 231 122 256 q 62 171 69 207 q 85 97 53 131 q 200 64 117 64 m 596 850 l 268 686 l 252 730 l 567 924 l 596 850 z "},"à":{"ha":758,"x_min":-50,"x_max":633,"o":"m -31 171 q 20 271 -18 231 q 112 335 58 311 q 231 369 165 358 q 361 379 296 379 q 406 378 386 379 q 443 376 425 378 q 478 373 461 375 q 518 368 496 371 l 528 414 q 524 490 538 460 q 484 537 510 519 q 428 561 458 554 q 375 568 397 568 q 241 549 304 568 q 119 498 178 530 l 92 568 q 233 625 157 603 q 393 647 309 647 q 492 634 444 647 q 572 593 539 621 q 620 521 606 566 q 621 414 633 476 l 533 0 l 440 0 l 463 106 q 395 52 431 75 q 323 15 359 29 q 250 -8 286 0 q 183 -16 214 -16 q 4 33 58 -16 q -31 171 -50 81 m 200 64 q 309 81 258 64 q 397 124 359 98 q 459 179 435 150 q 489 232 484 208 l 501 292 q 415 299 457 298 q 343 300 374 300 q 245 293 293 300 q 160 271 197 286 q 96 231 122 256 q 62 171 69 207 q 85 97 53 131 q 200 64 117 64 m 562 730 l 526 686 l 269 851 l 329 925 l 562 730 z "},"â":{"ha":758,"x_min":-50,"x_max":633,"o":"m -31 171 q 20 271 -18 231 q 112 335 58 311 q 231 369 165 358 q 361 379 296 379 q 406 378 386 379 q 443 376 425 378 q 478 373 461 375 q 518 368 496 371 l 528 414 q 524 490 538 460 q 484 537 510 519 q 428 561 458 554 q 375 568 397 568 q 241 549 304 568 q 119 498 178 530 l 92 568 q 233 625 157 603 q 393 647 309 647 q 492 634 444 647 q 572 593 539 621 q 620 521 606 566 q 621 414 633 476 l 533 0 l 440 0 l 463 106 q 395 52 431 75 q 323 15 359 29 q 250 -8 286 0 q 183 -16 214 -16 q 4 33 58 -16 q -31 171 -50 81 m 200 64 q 309 81 258 64 q 397 124 359 98 q 459 179 435 150 q 489 232 484 208 l 501 292 q 415 299 457 298 q 343 300 374 300 q 245 293 293 300 q 160 271 197 286 q 96 231 122 256 q 62 171 69 207 q 85 97 53 131 q 200 64 117 64 m 607 732 l 561 687 l 427 826 l 231 686 l 203 730 l 446 927 l 607 732 z "},"ä":{"ha":758,"x_min":-50,"x_max":633,"o":"m -31 171 q 20 271 -18 231 q 112 335 58 311 q 231 369 165 358 q 361 379 296 379 q 406 378 386 379 q 443 376 425 378 q 478 373 461 375 q 518 368 496 371 l 528 414 q 524 490 538 460 q 484 537 510 519 q 428 561 458 554 q 375 568 397 568 q 241 549 304 568 q 119 498 178 530 l 92 568 q 233 625 157 603 q 393 647 309 647 q 492 634 444 647 q 572 593 539 621 q 620 521 606 566 q 621 414 633 476 l 533 0 l 440 0 l 463 106 q 395 52 431 75 q 323 15 359 29 q 250 -8 286 0 q 183 -16 214 -16 q 4 33 58 -16 q -31 171 -50 81 m 200 64 q 309 81 258 64 q 397 124 359 98 q 459 179 435 150 q 489 232 484 208 l 501 292 q 415 299 457 298 q 343 300 374 300 q 245 293 293 300 q 160 271 197 286 q 96 231 122 256 q 62 171 69 207 q 85 97 53 131 q 200 64 117 64 m 600 758 l 473 758 l 500 885 l 627 885 l 600 758 m 347 758 l 221 758 l 248 885 l 374 885 l 347 758 z "},"ã":{"ha":758,"x_min":-50,"x_max":684,"o":"m -31 171 q 20 271 -18 231 q 112 335 58 311 q 231 369 165 358 q 361 379 296 379 q 406 378 386 379 q 443 376 425 378 q 478 373 461 375 q 518 368 496 371 l 528 414 q 524 490 538 460 q 484 537 510 519 q 428 561 458 554 q 375 568 397 568 q 241 549 304 568 q 119 498 178 530 l 92 568 q 233 625 157 603 q 393 647 309 647 q 492 634 444 647 q 572 593 539 621 q 620 521 606 566 q 621 414 633 476 l 533 0 l 440 0 l 463 106 q 395 52 431 75 q 323 15 359 29 q 250 -8 286 0 q 183 -16 214 -16 q 4 33 58 -16 q -31 171 -50 81 m 200 64 q 309 81 258 64 q 397 124 359 98 q 459 179 435 150 q 489 232 484 208 l 501 292 q 415 299 457 298 q 343 300 374 300 q 245 293 293 300 q 160 271 197 286 q 96 231 122 256 q 62 171 69 207 q 85 97 53 131 q 200 64 117 64 m 684 833 q 494 726 600 726 q 433 738 456 726 q 396 765 411 751 q 365 792 380 780 q 323 805 350 805 q 195 730 254 805 l 147 762 q 336 867 232 867 q 397 855 375 867 q 435 828 419 842 q 466 801 450 813 q 507 788 481 788 q 636 865 576 788 l 684 833 z "},"å":{"ha":758,"x_min":-50,"x_max":633,"o":"m -31 171 q 20 271 -18 231 q 112 335 58 311 q 231 369 165 358 q 361 379 296 379 q 406 378 386 379 q 443 376 425 378 q 478 373 461 375 q 518 368 496 371 l 528 414 q 524 490 538 460 q 484 537 510 519 q 428 561 458 554 q 375 568 397 568 q 241 549 304 568 q 119 498 178 530 l 92 568 q 233 625 157 603 q 393 647 309 647 q 492 634 444 647 q 572 593 539 621 q 620 521 606 566 q 621 414 633 476 l 533 0 l 440 0 l 463 106 q 395 52 431 75 q 323 15 359 29 q 250 -8 286 0 q 183 -16 214 -16 q 4 33 58 -16 q -31 171 -50 81 m 200 64 q 309 81 258 64 q 397 124 359 98 q 459 179 435 150 q 489 232 484 208 l 501 292 q 415 299 457 298 q 343 300 374 300 q 245 293 293 300 q 160 271 197 286 q 96 231 122 256 q 62 171 69 207 q 85 97 53 131 q 200 64 117 64 m 278 852 q 302 912 285 884 q 345 960 319 939 q 401 993 371 981 q 463 1005 431 1005 q 520 993 494 1005 q 562 960 546 981 q 584 912 578 939 q 583 852 590 884 q 559 792 576 820 q 516 744 542 764 q 460 711 490 723 q 399 699 431 699 q 341 711 367 699 q 299 744 315 723 q 277 792 283 764 q 278 852 271 820 m 339 852 q 352 787 330 814 q 411 760 374 760 q 481 787 449 760 q 522 852 514 814 q 509 917 530 890 q 450 944 488 944 q 380 917 412 944 q 339 852 347 890 z "},"ç":{"ha":758,"x_min":-16,"x_max":669,"o":"m 567 121 q 453 31 518 65 q 310 -12 389 -4 l 306 -28 q 216 -187 285 -127 q 43 -252 143 -252 l 60 -172 q 228 -28 197 -172 l 231 -14 q 114 17 164 -8 q 33 86 64 43 q -6 187 3 129 q 0 315 -16 245 q 51 449 16 387 q 137 554 86 510 q 253 622 187 597 q 392 647 318 647 q 450 640 421 647 q 502 620 478 633 q 544 586 526 606 q 567 541 561 567 l 586 632 l 669 632 l 616 379 l 533 379 q 534 456 542 421 q 505 515 526 490 q 449 554 484 541 q 374 568 415 568 q 270 549 317 568 q 188 495 224 529 q 129 415 153 461 q 93 315 104 370 q 87 215 81 261 q 119 136 94 170 q 183 83 143 103 q 279 64 224 64 q 411 92 350 64 q 511 165 472 119 l 567 121 z "},"é":{"ha":758,"x_min":-20,"x_max":648,"o":"m 86 283 q 125 123 75 183 q 277 64 175 64 q 409 93 347 64 q 509 165 471 122 l 564 121 q 429 19 503 54 q 260 -16 355 -16 q 131 9 186 -16 q 40 77 75 33 q -8 181 4 121 q -3 315 -20 241 q 47 448 12 387 q 133 553 82 509 q 250 622 184 597 q 389 647 315 647 q 524 620 469 647 q 608 545 578 593 q 644 431 639 497 q 632 283 648 364 l 86 283 m 550 363 q 508 517 557 467 q 371 568 458 568 q 285 554 326 568 q 210 512 244 539 q 147 447 175 485 q 104 363 119 408 l 550 363 m 596 850 l 268 686 l 252 730 l 567 924 l 596 850 z "},"è":{"ha":758,"x_min":-20,"x_max":648,"o":"m 86 283 q 125 123 75 183 q 277 64 175 64 q 409 93 347 64 q 509 165 471 122 l 564 121 q 429 19 503 54 q 260 -16 355 -16 q 131 9 186 -16 q 40 77 75 33 q -8 181 4 121 q -3 315 -20 241 q 47 448 12 387 q 133 553 82 509 q 250 622 184 597 q 389 647 315 647 q 524 620 469 647 q 608 545 578 593 q 644 431 639 497 q 632 283 648 364 l 86 283 m 550 363 q 508 517 557 467 q 371 568 458 568 q 285 554 326 568 q 210 512 244 539 q 147 447 175 485 q 104 363 119 408 l 550 363 m 562 730 l 526 686 l 269 851 l 329 925 l 562 730 z "},"ê":{"ha":758,"x_min":-20,"x_max":648,"o":"m 86 283 q 125 123 75 183 q 277 64 175 64 q 409 93 347 64 q 509 165 471 122 l 564 121 q 429 19 503 54 q 260 -16 355 -16 q 131 9 186 -16 q 40 77 75 33 q -8 181 4 121 q -3 315 -20 241 q 47 448 12 387 q 133 553 82 509 q 250 622 184 597 q 389 647 315 647 q 524 620 469 647 q 608 545 578 593 q 644 431 639 497 q 632 283 648 364 l 86 283 m 550 363 q 508 517 557 467 q 371 568 458 568 q 285 554 326 568 q 210 512 244 539 q 147 447 175 485 q 104 363 119 408 l 550 363 m 607 732 l 561 687 l 427 826 l 231 686 l 203 730 l 446 927 l 607 732 z "},"ë":{"ha":758,"x_min":-20,"x_max":648,"o":"m 86 283 q 125 123 75 183 q 277 64 175 64 q 409 93 347 64 q 509 165 471 122 l 564 121 q 429 19 503 54 q 260 -16 355 -16 q 131 9 186 -16 q 40 77 75 33 q -8 181 4 121 q -3 315 -20 241 q 47 448 12 387 q 133 553 82 509 q 250 622 184 597 q 389 647 315 647 q 524 620 469 647 q 608 545 578 593 q 644 431 639 497 q 632 283 648 364 l 86 283 m 550 363 q 508 517 557 467 q 371 568 458 568 q 285 554 326 568 q 210 512 244 539 q 147 447 175 485 q 104 363 119 408 l 550 363 m 600 758 l 473 758 l 500 885 l 627 885 l 600 758 m 347 758 l 221 758 l 248 885 l 374 885 l 347 758 z "},"í":{"ha":758,"x_min":60,"x_max":596,"o":"m 439 0 l 60 0 l 77 79 l 220 79 l 319 550 l 176 550 l 193 632 l 429 632 l 313 79 l 456 79 l 439 0 m 596 850 l 268 686 l 252 730 l 567 924 l 596 850 z "},"ì":{"ha":758,"x_min":60,"x_max":562,"o":"m 439 0 l 60 0 l 77 79 l 220 79 l 319 550 l 176 550 l 193 632 l 429 632 l 313 79 l 456 79 l 439 0 m 562 730 l 526 686 l 269 851 l 329 925 l 562 730 z "},"î":{"ha":758,"x_min":60,"x_max":607,"o":"m 439 0 l 60 0 l 77 79 l 220 79 l 319 550 l 176 550 l 193 632 l 429 632 l 313 79 l 456 79 l 439 0 m 607 732 l 561 687 l 427 826 l 231 686 l 203 730 l 446 927 l 607 732 z "},"ï":{"ha":758,"x_min":60,"x_max":627,"o":"m 439 0 l 60 0 l 77 79 l 220 79 l 319 550 l 176 550 l 193 632 l 429 632 l 313 79 l 456 79 l 439 0 m 600 758 l 473 758 l 500 885 l 627 885 l 600 758 m 347 758 l 221 758 l 248 885 l 374 885 l 347 758 z "},"ñ":{"ha":758,"x_min":-33,"x_max":684,"o":"m 532 0 l 439 0 l 521 390 q 512 522 539 475 q 403 568 485 568 q 305 545 351 568 q 221 481 258 521 q 157 390 183 441 q 119 283 131 339 l 60 0 l -33 0 l 100 632 l 193 632 l 160 473 q 436 647 264 647 q 614 390 669 647 l 532 0 m 684 833 q 494 726 600 726 q 433 738 456 726 q 396 765 411 751 q 365 792 380 780 q 323 805 350 805 q 195 730 254 805 l 147 762 q 336 867 232 867 q 397 855 375 867 q 435 828 419 842 q 466 801 450 813 q 507 788 481 788 q 636 865 576 788 l 684 833 z "},"ó":{"ha":758,"x_min":-31,"x_max":664,"o":"m 648 314 q 596 180 632 240 q 507 76 559 119 q 388 9 454 33 q 245 -16 321 -16 q 117 9 172 -16 q 26 76 61 33 q -19 180 -8 119 q -14 314 -31 240 q 38 448 1 386 q 128 554 75 510 q 247 622 180 597 q 387 647 314 647 q 518 622 463 647 q 608 554 574 597 q 653 448 643 510 q 648 314 664 386 m 555 314 q 561 414 567 368 q 530 494 554 460 q 465 549 505 529 q 370 568 425 568 q 265 549 314 568 q 179 494 216 529 q 116 414 142 460 q 79 314 90 368 q 73 214 66 260 q 103 135 79 168 q 166 83 126 102 q 262 64 207 64 q 367 83 318 64 q 453 135 415 102 q 517 214 492 168 q 555 314 543 260 m 596 850 l 268 686 l 252 730 l 567 924 l 596 850 z "},"ò":{"ha":758,"x_min":-31,"x_max":664,"o":"m 648 314 q 596 180 632 240 q 507 76 559 119 q 388 9 454 33 q 245 -16 321 -16 q 117 9 172 -16 q 26 76 61 33 q -19 180 -8 119 q -14 314 -31 240 q 38 448 1 386 q 128 554 75 510 q 247 622 180 597 q 387 647 314 647 q 518 622 463 647 q 608 554 574 597 q 653 448 643 510 q 648 314 664 386 m 555 314 q 561 414 567 368 q 530 494 554 460 q 465 549 505 529 q 370 568 425 568 q 265 549 314 568 q 179 494 216 529 q 116 414 142 460 q 79 314 90 368 q 73 214 66 260 q 103 135 79 168 q 166 83 126 102 q 262 64 207 64 q 367 83 318 64 q 453 135 415 102 q 517 214 492 168 q 555 314 543 260 m 562 730 l 526 686 l 269 851 l 329 925 l 562 730 z "},"ô":{"ha":758,"x_min":-31,"x_max":664,"o":"m 648 314 q 596 180 632 240 q 507 76 559 119 q 388 9 454 33 q 245 -16 321 -16 q 117 9 172 -16 q 26 76 61 33 q -19 180 -8 119 q -14 314 -31 240 q 38 448 1 386 q 128 554 75 510 q 247 622 180 597 q 387 647 314 647 q 518 622 463 647 q 608 554 574 597 q 653 448 643 510 q 648 314 664 386 m 555 314 q 561 414 567 368 q 530 494 554 460 q 465 549 505 529 q 370 568 425 568 q 265 549 314 568 q 179 494 216 529 q 116 414 142 460 q 79 314 90 368 q 73 214 66 260 q 103 135 79 168 q 166 83 126 102 q 262 64 207 64 q 367 83 318 64 q 453 135 415 102 q 517 214 492 168 q 555 314 543 260 m 607 732 l 561 687 l 427 826 l 231 686 l 203 730 l 446 927 l 607 732 z "},"ö":{"ha":758,"x_min":-31,"x_max":664,"o":"m 648 314 q 596 180 632 240 q 507 76 559 119 q 388 9 454 33 q 245 -16 321 -16 q 117 9 172 -16 q 26 76 61 33 q -19 180 -8 119 q -14 314 -31 240 q 38 448 1 386 q 128 554 75 510 q 247 622 180 597 q 387 647 314 647 q 518 622 463 647 q 608 554 574 597 q 653 448 643 510 q 648 314 664 386 m 555 314 q 561 414 567 368 q 530 494 554 460 q 465 549 505 529 q 370 568 425 568 q 265 549 314 568 q 179 494 216 529 q 116 414 142 460 q 79 314 90 368 q 73 214 66 260 q 103 135 79 168 q 166 83 126 102 q 262 64 207 64 q 367 83 318 64 q 453 135 415 102 q 517 214 492 168 q 555 314 543 260 m 600 758 l 473 758 l 500 885 l 627 885 l 600 758 m 347 758 l 221 758 l 248 885 l 374 885 l 347 758 z "},"õ":{"ha":758,"x_min":-31,"x_max":684,"o":"m 648 314 q 596 180 632 240 q 507 76 559 119 q 388 9 454 33 q 245 -16 321 -16 q 117 9 172 -16 q 26 76 61 33 q -19 180 -8 119 q -14 314 -31 240 q 38 448 1 386 q 128 554 75 510 q 247 622 180 597 q 387 647 314 647 q 518 622 463 647 q 608 554 574 597 q 653 448 643 510 q 648 314 664 386 m 555 314 q 561 414 567 368 q 530 494 554 460 q 465 549 505 529 q 370 568 425 568 q 265 549 314 568 q 179 494 216 529 q 116 414 142 460 q 79 314 90 368 q 73 214 66 260 q 103 135 79 168 q 166 83 126 102 q 262 64 207 64 q 367 83 318 64 q 453 135 415 102 q 517 214 492 168 q 555 314 543 260 m 684 833 q 494 726 600 726 q 433 738 456 726 q 396 765 411 751 q 365 792 380 780 q 323 805 350 805 q 195 730 254 805 l 147 762 q 336 867 232 867 q 397 855 375 867 q 435 828 419 842 q 466 801 450 813 q 507 788 481 788 q 636 865 576 788 l 684 833 z "},"ú":{"ha":758,"x_min":-37,"x_max":665,"o":"m 100 632 l 193 632 l 110 241 q 119 110 93 157 q 228 64 146 64 q 327 87 279 64 q 411 151 374 111 q 474 242 449 191 q 513 349 500 293 l 572 632 l 665 632 l 532 0 l 439 0 l 472 158 q 196 -16 368 -16 q 17 241 -37 -16 l 100 632 m 596 851 l 268 686 l 252 730 l 567 925 l 596 851 z "},"ù":{"ha":758,"x_min":-37,"x_max":665,"o":"m 100 632 l 193 632 l 110 241 q 119 110 93 157 q 228 64 146 64 q 327 87 279 64 q 411 151 374 111 q 474 242 449 191 q 513 349 500 293 l 572 632 l 665 632 l 532 0 l 439 0 l 472 158 q 196 -16 368 -16 q 17 241 -37 -16 l 100 632 m 562 732 l 526 688 l 269 852 l 329 926 l 562 732 z "},"û":{"ha":758,"x_min":-37,"x_max":665,"o":"m 100 632 l 193 632 l 110 241 q 119 110 93 157 q 228 64 146 64 q 327 87 279 64 q 411 151 374 111 q 474 242 449 191 q 513 349 500 293 l 572 632 l 665 632 l 532 0 l 439 0 l 472 158 q 196 -16 368 -16 q 17 241 -37 -16 l 100 632 m 607 733 l 561 688 l 427 827 l 231 686 l 203 730 l 446 928 l 607 733 z "},"ü":{"ha":758,"x_min":-37,"x_max":665,"o":"m 100 632 l 193 632 l 110 241 q 119 110 93 157 q 228 64 146 64 q 327 87 279 64 q 411 151 374 111 q 474 242 449 191 q 513 349 500 293 l 572 632 l 665 632 l 532 0 l 439 0 l 472 158 q 196 -16 368 -16 q 17 241 -37 -16 l 100 632 m 600 758 l 473 758 l 500 885 l 627 885 l 600 758 m 347 758 l 221 758 l 248 885 l 374 885 l 347 758 z "},"†":{"ha":758,"x_min":199,"x_max":595,"o":"m 578 657 l 419 667 l 339 253 l 264 253 l 363 667 l 199 657 l 215 733 l 374 724 l 399 885 l 473 885 l 431 724 l 595 733 l 578 657 z "},"°":{"ha":758,"x_min":82,"x_max":610,"o":"m 94 758 q 135 856 104 810 q 207 937 165 903 q 297 991 248 971 q 400 1011 347 1011 q 494 991 452 1011 q 563 937 536 971 q 600 856 590 903 q 600 758 610 810 q 557 660 587 705 q 487 580 528 614 q 395 526 446 546 q 293 505 345 505 q 198 526 240 505 q 130 580 157 546 q 93 660 103 614 q 94 758 82 705 m 157 758 q 155 684 147 718 q 183 624 163 650 q 235 583 204 597 q 306 568 265 568 q 383 583 345 568 q 453 624 421 597 q 506 684 485 650 q 538 758 528 718 q 538 832 546 798 q 510 893 530 867 q 458 934 489 920 q 387 949 427 949 q 310 934 347 949 q 240 893 272 920 q 187 832 208 867 q 157 758 165 798 z "},"¢":{"ha":758,"x_min":4,"x_max":682,"o":"m 227 115 q 58 224 111 138 q 32 441 4 311 q 77 560 46 505 q 151 657 107 615 q 249 728 195 700 q 366 766 302 755 l 390 885 l 484 885 l 460 772 q 600 732 545 768 q 682 637 656 696 l 607 593 q 546 662 589 635 q 443 693 504 689 l 335 189 q 452 221 399 195 q 543 290 505 248 l 599 245 q 476 151 547 187 q 318 110 406 115 l 296 0 l 203 0 l 227 115 m 125 441 q 136 286 106 351 q 244 197 167 220 l 347 685 q 203 598 261 664 q 125 441 144 532 z "},"£":{"ha":758,"x_min":-33,"x_max":665,"o":"m 68 482 l 195 482 l 233 661 q 269 757 244 713 q 329 833 293 802 q 409 882 364 864 q 505 900 453 900 q 570 888 541 900 q 621 855 600 876 q 653 802 642 833 q 665 729 665 770 l 576 710 q 551 796 574 771 q 489 821 529 821 q 382 779 422 821 q 326 661 342 737 l 288 482 l 414 482 l 397 403 l 271 403 l 232 220 q 196 130 221 165 q 140 79 171 94 l 281 79 q 572 231 464 79 l 637 191 q 474 47 572 94 q 264 0 376 0 l -33 0 l -17 79 l 25 79 q 67 91 49 79 q 99 118 85 102 q 121 154 113 135 q 132 189 129 174 l 178 403 l 52 403 l 68 482 z "},"§":{"ha":758,"x_min":-28,"x_max":747,"o":"m 98 562 q 140 658 109 614 q 228 739 171 703 q 176 807 193 766 q 172 911 158 848 q 214 1007 183 965 q 287 1077 244 1048 q 382 1121 330 1105 q 490 1136 435 1136 q 592 1121 545 1136 q 676 1077 640 1107 q 729 1002 711 1047 q 742 895 747 957 l 652 880 q 611 1014 656 970 q 473 1057 566 1057 q 410 1049 443 1057 q 347 1024 376 1042 q 296 979 318 1007 q 265 911 273 951 q 284 831 254 861 q 363 777 314 800 q 470 730 412 753 q 575 675 528 708 q 648 594 623 643 q 657 467 673 545 q 618 373 646 418 q 542 292 590 328 q 584 221 571 262 q 583 119 596 179 q 539 19 571 65 q 463 -58 507 -26 q 363 -108 418 -90 q 253 -126 309 -126 q 144 -112 195 -126 q 56 -67 94 -97 q -5 9 18 -37 q -28 121 -28 56 l 62 143 q 115 1 62 49 q 269 -47 168 -47 q 343 -37 307 -47 q 409 -6 379 -26 q 460 43 439 14 q 489 111 481 72 q 473 208 501 171 q 396 269 444 244 q 289 315 347 294 q 183 366 231 336 q 109 442 135 396 q 98 562 82 488 m 192 564 q 206 483 180 514 q 276 429 232 452 q 374 388 319 407 q 476 342 428 368 q 531 394 509 364 q 562 458 554 424 q 552 546 574 511 q 492 605 530 581 q 404 649 454 629 q 307 690 354 668 q 228 635 256 667 q 192 564 200 603 z "},"•":{"ha":758,"x_min":127,"x_max":656,"o":"m 140 379 q 180 477 150 431 q 252 557 211 524 q 343 612 293 591 q 446 632 393 632 q 539 612 497 632 q 609 557 582 591 q 646 477 636 524 q 646 379 656 431 q 604 280 633 326 q 533 201 574 235 q 441 146 492 167 q 339 126 390 126 q 244 146 286 126 q 176 201 203 167 q 138 280 149 235 q 140 379 127 326 z "},"¶":{"ha":758,"x_min":40,"x_max":736,"o":"m 549 0 l 456 0 l 536 379 l 376 379 l 296 0 l 203 0 l 283 385 q 87 632 40 411 q 481 885 142 885 l 736 885 l 549 0 m 553 463 l 627 806 l 467 806 l 393 463 l 553 463 m 372 799 q 244 744 292 786 q 182 632 197 701 q 301 469 153 496 l 372 799 z "},"ß":{"ha":758,"x_min":-33,"x_max":614,"o":"m 603 182 q 569 104 595 140 q 506 42 543 68 q 421 0 468 16 q 322 -16 374 -16 q 211 3 256 -16 q 129 58 167 22 l 197 129 q 260 80 227 96 q 339 64 293 64 q 449 93 401 64 q 510 183 496 122 q 502 247 517 221 q 463 291 488 272 q 406 327 437 310 q 349 362 374 343 q 309 408 323 382 q 302 473 294 435 q 340 545 313 519 q 399 592 368 571 q 458 639 431 614 q 494 705 486 664 q 485 787 505 753 q 396 821 464 821 q 310 801 346 821 q 248 746 273 781 q 207 667 222 711 q 180 574 192 623 l 60 0 l -33 0 l 87 572 q 119 682 98 624 q 177 788 140 739 q 271 868 214 836 q 412 900 329 900 q 502 885 464 900 q 561 844 539 869 q 590 783 583 818 q 587 705 597 747 q 547 616 576 650 q 486 561 518 583 q 429 522 454 539 q 397 481 403 504 q 411 448 393 463 q 454 417 428 433 q 511 382 481 401 q 566 336 542 363 q 602 271 590 309 q 603 182 614 233 z "},"®":{"ha":758,"x_min":49,"x_max":843,"o":"m 825 632 q 767 488 810 557 q 663 367 724 419 q 525 284 602 315 q 367 253 449 253 q 230 280 293 253 q 125 357 167 307 q 66 476 83 407 q 66 632 49 546 q 128 779 83 710 q 235 900 172 848 q 373 981 297 951 q 528 1011 449 1011 q 667 983 604 1011 q 770 903 729 954 q 827 782 811 851 q 825 632 843 713 m 781 632 q 783 760 796 700 q 734 867 770 821 q 643 940 699 913 q 518 966 587 966 q 383 941 449 966 q 261 870 317 916 q 166 764 205 825 q 111 632 126 703 q 110 500 96 561 q 159 394 123 439 q 250 323 195 349 q 376 297 306 297 q 511 323 444 297 q 633 394 578 349 q 726 500 688 439 q 781 632 765 561 m 606 404 l 479 404 l 396 568 l 372 568 l 338 404 l 240 404 l 338 863 l 519 863 q 585 853 554 863 q 635 826 615 844 q 664 780 656 807 q 664 715 672 753 q 611 620 653 661 q 503 572 568 579 l 606 404 m 568 715 q 560 767 575 746 q 504 789 545 789 l 419 789 l 389 643 l 473 643 q 536 663 511 643 q 568 715 561 684 z "},"©":{"ha":758,"x_min":22,"x_max":818,"o":"m 597 359 q 371 260 510 260 q 276 278 317 260 q 209 328 235 296 q 175 406 183 361 q 178 505 167 452 q 215 601 189 557 q 281 679 241 646 q 369 732 321 713 q 475 751 418 751 q 659 652 614 751 l 576 603 q 458 671 553 671 q 339 624 389 671 q 275 505 290 576 q 288 389 260 437 q 389 340 317 340 q 534 408 484 340 l 597 359 m 802 504 q 742 360 785 429 q 637 239 699 292 q 499 156 575 187 q 342 125 424 125 q 205 152 268 125 q 99 229 142 179 q 40 349 57 279 q 41 504 22 418 q 103 651 58 582 q 210 773 147 721 q 348 855 272 825 q 503 885 424 885 q 642 856 579 885 q 745 776 704 827 q 802 655 786 725 q 802 504 818 585 m 757 504 q 758 633 771 572 q 709 740 745 694 q 618 813 673 786 q 493 840 562 840 q 357 814 424 840 q 235 742 290 787 q 139 636 179 697 q 86 504 100 575 q 84 372 71 433 q 133 266 97 311 q 224 195 168 221 q 350 170 279 170 q 485 195 418 170 q 607 266 551 221 q 702 372 663 311 q 757 504 742 433 z "},"™":{"ha":758,"x_min":104,"x_max":879,"o":"m 799 505 l 724 505 l 781 772 l 644 546 l 591 546 l 553 772 l 496 505 l 421 505 l 501 885 l 608 885 l 643 663 l 772 885 l 879 885 l 799 505 m 419 808 l 300 808 l 236 505 l 160 505 l 224 808 l 104 808 l 121 885 l 436 885 l 419 808 z "},"´":{"ha":758,"x_min":252,"x_max":596,"o":"m 596 851 l 268 686 l 252 730 l 567 925 l 596 851 z "},"¨":{"ha":758,"x_min":221,"x_max":627,"o":"m 600 758 l 473 758 l 500 885 l 627 885 l 600 758 m 347 758 l 221 758 l 248 885 l 374 885 l 347 758 z "},"≠":{"ha":758,"x_min":-40,"x_max":672,"o":"m 591 127 l 222 127 l 135 0 l 60 0 l 147 127 l -40 127 l -24 203 l 200 203 l 358 431 l 25 431 l 40 506 l 410 506 l 498 632 l 574 632 l 485 506 l 672 506 l 657 431 l 433 431 l 275 203 l 608 203 l 591 127 z "},"Æ":{"ha":758,"x_min":-110,"x_max":753,"o":"m 566 0 l 222 0 l 275 253 l 117 253 l -11 0 l -110 0 l 346 885 l 753 885 l 734 803 l 486 803 l 421 493 l 608 493 l 590 411 l 403 411 l 334 83 l 582 83 l 566 0 m 293 335 l 387 782 l 160 335 l 293 335 z "},"Ø":{"ha":758,"x_min":-93,"x_max":781,"o":"m -69 127 l -5 184 q -15 306 -18 241 q 4 441 -11 371 q 59 613 24 530 q 149 760 94 696 q 276 862 204 823 q 440 900 349 900 q 585 864 529 900 q 668 766 640 828 l 781 865 l 757 757 l 689 699 q 699 577 701 642 q 682 441 697 513 q 627 270 663 353 q 538 124 591 187 q 412 23 485 61 q 245 -16 339 -16 q 99 19 154 -16 q 17 115 45 54 l -93 20 l -69 127 m 589 441 q 604 625 611 543 l 93 182 q 150 96 110 129 q 262 64 191 64 q 390 98 335 64 q 484 186 444 132 q 549 308 524 240 q 589 441 575 375 m 97 441 q 83 348 87 395 q 81 258 78 301 l 590 700 q 529 789 571 758 q 424 821 488 821 q 297 787 351 821 q 203 698 243 753 q 137 576 163 643 q 97 441 111 509 z "},"∞":{"ha":758,"x_min":-13,"x_max":651,"o":"m 644 315 q 619 250 637 281 q 574 197 600 220 q 516 162 549 175 q 448 149 484 149 q 365 172 400 149 q 307 256 330 195 q 216 173 258 196 q 121 149 174 149 q 61 162 87 149 q 17 197 35 175 q -7 250 -1 220 q -5 315 -13 281 q 21 381 1 350 q 66 434 40 412 q 124 468 93 456 q 190 481 155 481 q 276 457 243 481 q 332 372 309 433 q 425 457 380 433 q 518 481 469 481 q 578 468 551 481 q 623 434 606 456 q 646 381 640 412 q 644 315 651 350 m 583 315 q 571 393 594 364 q 507 421 547 421 q 349 315 420 421 q 463 208 376 208 q 537 239 503 208 q 583 315 572 271 m 290 315 q 176 421 265 421 q 101 391 136 421 q 56 315 65 361 q 67 239 45 271 q 132 208 89 208 q 290 315 219 208 z "},"±":{"ha":758,"x_min":-93,"x_max":642,"o":"m 627 286 l 349 286 l 288 0 l 211 0 l 272 286 l -5 286 l 9 363 l 288 363 l 347 640 l 424 640 l 363 363 l 642 363 l 627 286 m 539 -126 l -93 -126 l -78 -50 l 554 -50 l 539 -126 z "},"≤":{"ha":758,"x_min":33,"x_max":599,"o":"m 475 31 l 410 -22 l 136 324 l 558 671 l 599 618 l 243 324 l 475 31 m 539 -126 l 33 -126 l 49 -50 l 554 -50 l 539 -126 z "},"≥":{"ha":758,"x_min":33,"x_max":625,"o":"m 625 324 l 204 -22 l 164 31 l 518 324 l 288 618 l 353 671 l 625 324 m 539 -126 l 33 -126 l 49 -50 l 554 -50 l 539 -126 z "},"¥":{"ha":758,"x_min":-8,"x_max":739,"o":"m 624 277 l 354 277 l 296 0 l 204 0 l 262 277 l -8 277 l 8 358 l 279 358 l 285 382 l 241 528 l 45 528 l 62 610 l 218 610 l 138 885 l 241 885 l 351 481 l 353 481 l 635 885 l 739 885 l 542 610 l 694 610 l 676 528 l 482 528 l 376 382 l 371 358 l 640 358 l 624 277 z "},"µ":{"ha":758,"x_min":-86,"x_max":665,"o":"m 532 0 l 439 0 l 472 160 q 196 -16 370 -16 q 64 22 113 -16 l 5 -253 l -86 -253 l 100 632 l 193 632 l 111 243 q 119 111 93 158 q 228 64 146 64 q 327 87 279 64 q 411 151 374 111 q 474 242 449 191 q 513 349 500 293 l 572 632 l 665 632 l 532 0 z "},"∂":{"ha":758,"x_min":-57,"x_max":677,"o":"m -31 240 q 36 366 -16 311 q 165 463 87 421 q 341 532 243 504 q 549 578 439 561 q 437 722 514 663 q 256 821 359 781 l 302 900 q 462 818 387 864 q 587 707 536 771 q 657 559 637 643 q 654 364 677 475 q 596 207 636 277 q 500 87 557 136 q 373 11 444 37 q 221 -16 302 -16 q 13 50 82 -16 q -31 240 -57 115 m 561 364 q 571 435 570 401 q 568 501 572 469 q 380 467 468 490 q 225 410 292 443 q 116 334 158 376 q 62 240 74 292 q 93 113 46 161 q 237 64 139 64 q 353 85 300 64 q 447 146 406 107 q 518 241 489 186 q 561 364 547 297 z "},"∑":{"ha":758,"x_min":-37,"x_max":720,"o":"m 532 0 l -37 0 l -21 79 l 278 443 l 134 806 l 150 885 l 720 885 l 656 586 l 574 586 l 621 806 l 244 806 l 387 443 l 90 79 l 467 79 l 513 300 l 595 300 l 532 0 z "},"∏":{"ha":758,"x_min":60,"x_max":753,"o":"m 736 806 l 610 806 l 439 0 l 346 0 l 517 806 l 323 806 l 153 0 l 60 0 l 231 806 l 104 806 l 121 885 l 753 885 l 736 806 z "},"π":{"ha":758,"x_min":46,"x_max":699,"o":"m 452 140 q 463 85 443 104 q 518 66 484 66 q 550 69 538 66 q 572 78 562 72 l 575 1 q 488 -16 543 -16 q 430 -5 457 -16 q 384 25 403 5 q 358 74 366 45 q 358 140 350 103 l 444 549 l 285 549 q 140 0 228 279 l 46 0 q 126 273 89 136 q 192 549 163 410 l 49 549 l 66 632 l 699 632 l 681 549 l 538 549 l 452 140 z "},"∫":{"ha":758,"x_min":-119,"x_max":808,"o":"m 791 1068 q 751 1072 772 1071 q 703 1072 730 1072 q 560 1031 615 1072 q 485 893 505 990 l 293 -11 q -32 -268 237 -268 q -74 -267 -53 -268 q -119 -262 -96 -265 l -103 -184 q -64 -188 -83 -187 q -14 -189 -45 -189 q 125 -148 72 -189 q 200 -11 179 -107 l 392 893 q 720 1152 447 1152 q 763 1149 741 1152 q 808 1145 785 1147 l 791 1068 z "},"ª":{"ha":758,"x_min":-31,"x_max":572,"o":"m 36 515 q 78 596 47 562 q 152 650 109 629 q 247 680 196 671 q 351 689 298 689 q 385 689 372 689 q 408 688 397 689 q 428 685 418 686 q 457 681 439 684 l 468 732 q 463 773 472 757 q 436 800 453 790 q 398 814 419 810 q 359 818 378 818 q 253 806 301 818 q 155 764 205 794 l 135 838 q 240 881 182 865 q 376 897 298 897 q 455 888 418 897 q 520 859 493 879 q 560 808 547 839 q 564 732 572 777 l 489 379 l 393 379 l 408 454 q 197 367 311 367 q 123 376 155 367 q 69 406 90 386 q 38 452 47 425 q 36 515 29 479 m 214 446 q 298 457 260 446 q 364 484 336 468 q 409 518 392 500 q 429 551 427 536 l 440 606 q 382 612 406 611 q 335 612 359 612 q 199 590 254 612 q 132 515 143 567 q 146 465 126 485 q 214 446 167 446 m 444 174 l -31 174 l -14 253 l 461 253 l 444 174 z "},"º":{"ha":758,"x_min":-31,"x_max":599,"o":"m 586 632 q 543 524 574 574 q 469 440 511 475 q 373 386 427 406 q 264 367 319 367 q 162 386 207 367 q 90 439 118 404 q 51 522 61 473 q 54 632 41 571 q 97 741 66 692 q 171 826 127 790 q 267 880 215 861 q 376 899 319 899 q 477 880 432 899 q 550 826 522 861 q 588 741 578 790 q 586 632 599 692 m 493 632 q 496 708 503 673 q 471 768 489 743 q 425 806 453 793 q 359 819 396 819 q 290 806 323 819 q 227 768 256 793 q 177 708 197 743 q 147 632 157 673 q 167 496 129 547 q 281 446 205 446 q 352 459 318 446 q 414 496 386 472 q 464 555 443 521 q 493 632 485 590 m 475 174 l -31 174 l -14 253 l 492 253 l 475 174 z "},"Ω":{"ha":758,"x_min":-66,"x_max":704,"o":"m 688 503 q 610 312 667 404 q 456 157 553 220 l 439 79 l 582 79 l 566 0 l 329 0 l 371 197 q 457 250 419 215 q 524 327 496 285 q 569 414 551 368 q 595 503 586 460 q 606 615 607 558 q 586 719 604 672 q 528 794 567 765 q 425 823 489 823 q 313 794 364 823 q 221 719 261 765 q 156 615 182 672 q 118 503 131 558 q 108 414 110 460 q 115 327 106 368 q 146 250 123 285 q 211 197 168 215 l 170 0 l -66 0 l -50 79 l 93 79 l 110 157 q 21 308 39 215 q 25 503 4 401 q 78 651 41 579 q 169 779 115 724 q 291 867 222 833 q 440 900 359 900 q 576 867 521 900 q 661 779 631 833 q 698 651 692 724 q 688 503 704 579 z "},"æ":{"ha":758,"x_min":-71,"x_max":668,"o":"m 261 115 q 229 69 249 92 q 185 27 210 46 q 131 -4 160 8 q 68 -16 102 -16 q -41 38 -11 -16 q -56 172 -71 92 q -17 266 -45 227 q 48 331 11 306 q 129 367 85 355 q 215 379 172 379 q 246 378 231 379 q 277 375 261 378 l 290 440 q 286 531 301 492 q 222 570 271 570 q 157 545 195 570 q 87 481 119 521 l 41 538 q 94 588 65 567 q 149 622 122 608 q 199 641 175 635 q 239 647 222 647 q 324 624 292 647 q 361 547 357 600 q 442 624 392 600 q 539 647 492 647 q 629 609 602 647 q 663 515 657 571 q 660 397 668 460 q 640 283 652 334 l 350 283 q 341 121 326 171 q 410 71 357 71 q 470 90 441 71 q 521 154 498 110 l 595 129 q 506 20 555 56 q 386 -16 456 -16 q 299 19 335 -16 q 261 115 264 53 m 557 366 q 569 523 581 476 q 510 570 558 570 q 429 525 465 570 q 367 366 392 479 l 557 366 m 260 297 q 236 299 252 298 q 205 300 221 300 q 99 267 147 300 q 36 165 50 235 q 42 100 28 129 q 96 71 56 71 q 142 81 118 71 q 185 110 165 92 q 219 152 204 127 q 240 204 233 176 l 260 297 z "},"ø":{"ha":758,"x_min":-96,"x_max":729,"o":"m -78 81 l -7 131 q -14 314 -36 210 q 38 448 1 386 q 128 554 75 510 q 247 622 180 597 q 387 647 314 647 q 519 622 464 647 q 610 550 575 596 l 729 632 l 713 551 l 637 500 q 648 314 669 418 q 596 180 632 240 q 507 76 559 119 q 388 9 454 33 q 245 -16 321 -16 q 113 9 170 -16 q 22 81 57 35 l -96 0 l -78 81 m 555 314 q 553 443 571 386 l 103 136 q 166 83 127 103 q 262 64 205 64 q 367 83 318 64 q 453 135 415 102 q 517 214 492 168 q 555 314 543 260 m 79 314 q 78 189 62 241 l 529 496 q 465 549 504 529 q 370 568 425 568 q 265 549 314 568 q 179 494 216 529 q 116 414 142 460 q 79 314 90 368 z "},"¿":{"ha":758,"x_min":96,"x_max":627,"o":"m 500 885 l 627 885 l 600 758 l 473 758 l 500 885 m 115 192 q 154 284 126 244 q 218 357 182 323 q 295 419 254 390 q 372 480 336 449 q 435 548 408 511 q 472 632 463 585 l 571 632 q 530 537 559 579 q 465 460 501 496 q 386 392 428 424 q 308 328 345 359 q 245 264 272 297 q 210 192 218 231 q 227 98 197 132 q 325 64 256 64 q 465 115 411 64 q 546 243 519 165 l 627 231 q 509 51 589 117 q 310 -16 429 -16 q 146 42 197 -16 q 115 192 96 100 z "},"¡":{"ha":758,"x_min":314,"x_max":627,"o":"m 314 0 l 484 636 l 539 636 l 439 0 l 314 0 m 500 885 l 627 885 l 600 758 l 473 758 l 500 885 z "},"¬":{"ha":758,"x_min":-3,"x_max":646,"o":"m 565 0 l 489 0 l 553 303 l -3 303 l 14 379 l 646 379 l 565 0 z "},"√":{"ha":758,"x_min":53,"x_max":726,"o":"m 710 684 l 517 684 l 168 0 l 97 0 l 53 492 l 129 514 l 157 111 l 478 758 l 726 758 l 710 684 z "},"ƒ":{"ha":758,"x_min":-119,"x_max":754,"o":"m 699 632 l 682 553 l 412 553 l 293 -11 q -32 -268 237 -268 q -74 -267 -53 -268 q -119 -262 -96 -265 l -103 -184 q -64 -188 -83 -187 q -14 -189 -45 -189 q 125 -148 72 -189 q 200 -11 179 -107 l 319 553 l 176 553 l 193 632 l 336 632 q 446 830 364 762 q 664 897 528 897 q 718 895 696 897 q 754 890 739 893 l 737 811 q 697 816 718 814 q 647 818 676 818 q 504 774 558 818 q 429 632 450 730 l 699 632 z "},"≈":{"ha":758,"x_min":-50,"x_max":682,"o":"m 682 488 q 443 352 576 352 q 366 367 393 352 q 319 401 339 382 q 280 435 300 420 q 227 450 261 450 q 62 357 139 450 l 4 397 q 243 531 110 531 q 320 515 293 531 q 367 480 347 499 q 406 446 386 461 q 460 431 427 431 q 623 528 547 431 l 682 488 m 629 233 q 389 98 522 98 q 312 113 339 98 q 265 147 285 128 q 226 181 245 165 q 172 196 207 196 q 9 103 85 196 l -50 143 q 189 277 56 277 q 266 261 239 277 q 313 226 293 245 q 353 192 333 208 q 406 176 372 176 q 570 274 493 176 l 629 233 z "},"∆":{"ha":758,"x_min":-107,"x_max":608,"o":"m 608 0 l -107 0 l 375 885 l 501 885 l 608 0 m 498 79 l 416 790 l 35 79 l 498 79 z "},"«":{"ha":758,"x_min":11,"x_max":572,"o":"m 500 155 l 436 102 l 262 323 l 530 547 l 572 493 l 370 323 l 500 155 m 249 155 l 183 102 l 11 323 l 278 547 l 321 493 l 117 323 l 249 155 z "},"»":{"ha":758,"x_min":61,"x_max":625,"o":"m 625 323 l 355 102 l 314 154 l 518 323 l 386 493 l 450 546 l 625 323 m 371 323 l 104 102 l 61 154 l 265 323 l 134 493 l 199 546 l 371 323 z "},"…":{"ha":758,"x_min":-66,"x_max":591,"o":"m 566 0 l 439 0 l 465 126 l 591 126 l 566 0 m 313 0 l 186 0 l 212 126 l 339 126 l 313 0 m 60 0 l -66 0 l -40 126 l 86 126 l 60 0 z "}," ":{"ha":758,"x_min":0,"x_max":0,"o":""},"À":{"ha":758,"x_min":-107,"x_max":616,"o":"m 608 0 l 509 0 l 478 253 l 127 253 l -7 0 l -107 0 l 375 885 l 501 885 l 608 0 m 469 335 l 418 791 l 172 335 l 469 335 m 616 983 l 581 939 l 323 1104 l 383 1178 l 616 983 z "},"Ã":{"ha":758,"x_min":-107,"x_max":738,"o":"m 608 0 l 509 0 l 478 253 l 127 253 l -7 0 l -107 0 l 375 885 l 501 885 l 608 0 m 469 335 l 418 791 l 172 335 l 469 335 m 738 1085 q 549 978 654 978 q 488 990 510 978 q 450 1018 465 1003 q 419 1045 435 1032 q 378 1057 404 1057 q 249 982 309 1057 l 201 1014 q 391 1120 286 1120 q 451 1107 429 1120 q 489 1080 473 1095 q 520 1053 505 1065 q 562 1040 535 1040 q 690 1117 631 1040 l 738 1085 z "},"Õ":{"ha":758,"x_min":-16,"x_max":738,"o":"m 682 441 q 627 270 663 353 q 538 124 591 187 q 412 23 485 61 q 245 -16 339 -16 q 96 23 153 -16 q 13 124 40 61 q -15 270 -14 187 q 4 441 -16 353 q 59 613 24 530 q 149 760 94 696 q 276 862 204 823 q 440 900 349 900 q 589 862 532 900 q 672 760 646 823 q 700 613 699 696 q 682 441 701 530 m 589 441 q 606 599 607 529 q 583 719 604 669 q 522 794 562 768 q 424 821 482 821 q 297 787 351 821 q 203 698 243 753 q 137 576 163 643 q 97 441 111 509 q 80 308 83 375 q 94 186 77 240 q 151 98 111 132 q 262 64 191 64 q 390 98 335 64 q 484 186 444 132 q 549 308 524 240 q 589 441 575 375 m 738 1085 q 549 978 654 978 q 488 990 510 978 q 450 1018 465 1003 q 419 1045 435 1032 q 378 1057 404 1057 q 249 982 309 1057 l 201 1014 q 391 1120 286 1120 q 451 1107 429 1120 q 489 1080 473 1095 q 520 1053 505 1065 q 562 1040 535 1040 q 690 1117 631 1040 l 738 1085 z "},"Œ":{"ha":758,"x_min":-79,"x_max":753,"o":"m 313 441 q 341 595 330 525 q 353 715 353 665 q 339 793 353 765 q 293 821 325 821 q 235 793 261 821 q 188 715 210 765 q 146 595 165 665 q 110 441 127 525 q 81 289 92 358 q 71 170 71 220 q 86 92 72 119 q 132 64 100 64 q 190 92 164 64 q 237 170 215 119 q 276 289 258 220 q 313 441 294 358 m 115 -16 q 17 441 -79 -16 q 310 900 114 900 q 378 874 359 900 q 406 794 397 848 l 425 885 l 753 885 l 736 806 l 484 806 l 415 489 l 607 489 l 590 410 l 399 410 l 329 79 l 582 79 l 566 0 l 237 0 l 256 90 q 195 10 225 36 q 115 -16 165 -16 z "},"œ":{"ha":758,"x_min":-94,"x_max":669,"o":"m 350 283 q 341 121 326 171 q 410 71 357 71 q 468 90 441 71 q 515 157 494 109 l 595 129 q 392 -16 518 -16 q 267 121 271 -16 q 93 -16 208 -16 q -25 315 -94 -16 q 235 647 46 647 q 349 515 346 647 q 424 614 379 582 q 525 647 468 647 q 624 612 593 647 q 662 522 654 576 q 661 404 669 468 q 640 283 653 340 l 350 283 m 557 366 q 571 519 579 468 q 509 570 564 570 q 421 516 453 570 q 367 366 390 463 l 557 366 m 260 315 q 218 570 314 570 q 68 315 122 570 q 110 60 14 60 q 260 315 205 60 z "},"–":{"ha":758,"x_min":-7,"x_max":642,"o":"m -7 288 l 9 361 l 642 361 l 625 288 l -7 288 z "},"—":{"ha":758,"x_min":-68,"x_max":705,"o":"m 689 288 l -68 288 l -53 361 l 705 361 l 689 288 z "},"“":{"ha":758,"x_min":78,"x_max":753,"o":"m 672 505 l 456 505 l 486 653 q 519 742 497 700 q 576 814 542 783 q 654 865 610 846 q 753 884 699 884 l 736 804 q 566 653 599 804 l 561 632 l 699 632 l 672 505 m 293 505 l 78 505 l 109 653 q 141 742 119 700 q 197 814 163 783 q 275 865 231 846 q 374 884 319 884 l 357 804 q 187 653 221 804 l 183 632 l 319 632 l 293 505 z "},"”":{"ha":758,"x_min":40,"x_max":715,"o":"m 121 885 l 338 885 l 306 737 q 273 649 296 690 q 217 576 250 607 q 139 526 183 545 q 40 507 94 507 l 57 586 q 227 737 195 586 l 232 758 l 94 758 l 121 885 m 500 885 l 715 885 l 684 737 q 651 649 673 690 q 596 576 629 607 q 518 526 562 545 q 419 507 473 507 l 436 586 q 604 737 572 586 l 610 758 l 473 758 l 500 885 z "},"‘":{"ha":758,"x_min":329,"x_max":627,"o":"m 546 505 l 329 505 l 359 653 q 393 742 371 700 q 449 814 415 783 q 528 865 484 846 q 627 884 572 884 l 610 804 q 439 653 472 804 l 435 632 l 572 632 l 546 505 z "},"’":{"ha":758,"x_min":167,"x_max":464,"o":"m 248 885 l 464 885 l 432 737 q 399 649 422 690 q 343 576 376 607 q 266 526 310 545 q 167 507 221 507 l 183 586 q 353 737 321 586 l 358 758 l 221 758 l 248 885 z "},"÷":{"ha":758,"x_min":-7,"x_max":643,"o":"m 420 514 l 294 514 l 322 640 l 448 640 l 420 514 m 314 9 l 187 9 l 214 135 l 340 135 l 314 9 m 625 285 l -7 285 l 11 364 l 643 364 l 625 285 z "},"◊":{"ha":758,"x_min":-12,"x_max":644,"o":"m 644 317 l 245 -11 l -12 317 l 385 646 l 644 317 m 555 317 l 367 557 l 75 317 l 264 77 l 555 317 z "},"ÿ":{"ha":758,"x_min":-119,"x_max":718,"o":"m 718 632 l 208 -160 q 115 -247 168 -227 q 4 -268 62 -268 q -119 -244 -61 -268 l -85 -164 q -27 -183 -57 -178 q 22 -189 3 -189 q 90 -167 68 -189 q 131 -114 111 -144 l 191 -18 l 46 632 l 155 632 l 267 79 l 607 632 l 718 632 m 600 758 l 473 758 l 500 885 l 627 885 l 600 758 m 347 758 l 221 758 l 248 885 l 374 885 l 347 758 z "},"Ÿ":{"ha":758,"x_min":60,"x_max":766,"o":"m 750 806 l 677 806 l 376 382 l 313 79 l 456 79 l 439 0 l 60 0 l 77 79 l 220 79 l 283 382 l 163 806 l 90 806 l 107 885 l 357 885 l 340 806 l 267 806 l 350 472 l 574 806 l 500 806 l 517 885 l 766 885 l 750 806 m 654 1010 l 528 1010 l 554 1137 l 681 1137 l 654 1010 m 401 1010 l 275 1010 l 302 1137 l 428 1137 l 401 1010 z "},"⁄":{"ha":758,"x_min":-61,"x_max":747,"o":"m 747 863 l -5 -18 l -61 22 l 694 905 l 747 863 z "},"€":{"ha":758,"x_min":-3,"x_max":708,"o":"m 57 582 l 170 582 q 225 706 193 648 q 299 807 257 764 q 393 875 342 850 q 505 900 444 900 q 651 840 600 900 q 708 653 701 781 l 623 632 q 587 768 621 715 q 492 821 554 821 q 365 761 424 821 q 262 582 306 701 l 436 582 l 419 505 l 237 505 q 230 474 233 490 q 222 441 227 458 q 216 410 220 425 q 211 379 212 395 l 393 379 l 376 302 l 203 302 q 228 123 193 182 q 330 64 262 64 q 449 117 393 64 q 542 254 505 171 l 619 232 q 481 44 557 104 q 311 -16 406 -16 q 209 9 250 -16 q 144 77 168 35 q 113 178 121 119 q 109 302 104 236 l -3 302 l 14 379 l 118 379 q 123 411 119 395 q 129 441 126 427 q 136 474 132 457 q 144 505 140 490 l 40 505 l 57 582 z "},"‹":{"ha":758,"x_min":136,"x_max":447,"o":"m 375 155 l 311 102 l 136 323 l 406 547 l 447 493 l 243 323 l 375 155 z "},"›":{"ha":758,"x_min":187,"x_max":498,"o":"m 498 323 l 231 102 l 187 154 l 392 323 l 260 493 l 325 546 l 498 323 z "},"ﬁ":{"ha":758,"x_min":-66,"x_max":708,"o":"m 692 0 l -66 0 l -50 79 l 93 79 l 193 553 l 50 553 l 66 632 l 210 632 q 319 830 237 762 q 538 897 401 897 q 591 895 570 897 q 628 890 612 893 l 611 811 q 571 816 591 814 q 521 818 550 818 q 378 774 432 818 q 302 632 323 730 l 682 632 l 566 79 l 708 79 l 692 0 m 472 79 l 572 553 l 286 553 l 186 79 l 472 79 z "},"ﬂ":{"ha":758,"x_min":-66,"x_max":733,"o":"m 692 0 l -66 0 l -50 79 l 93 79 l 193 553 l 50 553 l 66 632 l 210 632 q 319 830 237 762 q 538 897 401 897 q 651 891 607 897 q 733 873 696 885 l 566 79 l 708 79 l 692 0 m 472 79 l 627 808 q 587 814 612 811 q 521 818 562 818 q 378 774 432 818 q 302 632 323 730 l 446 632 l 429 553 l 286 553 l 186 79 l 472 79 z "},"‡":{"ha":758,"x_min":118,"x_max":595,"o":"m 497 279 l 339 289 l 313 126 l 237 126 l 282 289 l 118 279 l 135 354 l 293 346 l 363 667 l 199 657 l 215 733 l 374 724 l 399 885 l 473 885 l 431 724 l 595 733 l 578 657 l 419 667 l 350 346 l 514 354 l 497 279 z "},"·":{"ha":758,"x_min":240,"x_max":395,"o":"m 367 261 l 240 261 l 268 387 l 395 387 l 367 261 z "},"‚":{"ha":758,"x_min":258,"x_max":555,"o":"m 338 127 l 555 127 l 523 -21 q 490 -110 513 -68 q 434 -182 467 -151 q 356 -232 401 -214 q 258 -251 312 -251 l 274 -172 q 444 -21 412 -172 l 449 0 l 312 0 l 338 127 z "},"„":{"ha":758,"x_min":-121,"x_max":555,"o":"m -40 127 l 177 127 l 145 -21 q 112 -110 135 -68 q 56 -182 90 -151 q -22 -232 22 -214 q -121 -251 -66 -251 l -104 -172 q 66 -21 34 -172 l 71 0 l -66 0 l -40 127 m 339 127 l 555 127 l 523 -21 q 491 -110 513 -68 q 435 -182 469 -151 q 357 -232 401 -214 q 258 -251 313 -251 l 275 -172 q 444 -21 412 -172 l 449 0 l 313 0 l 339 127 z "},"‰":{"ha":758,"x_min":-69,"x_max":737,"o":"m 567 865 l -7 -25 l -69 3 l 507 895 l 567 865 m 275 729 q 275 802 285 772 q 231 831 265 831 q 174 802 197 831 q 142 729 151 772 q 144 657 134 686 q 187 628 154 628 q 244 657 222 628 q 275 729 267 686 m 74 729 q 133 850 89 800 q 245 900 176 900 q 338 850 315 900 q 346 729 361 800 q 287 608 330 659 q 174 558 243 558 q 81 608 104 558 q 74 729 58 659 m 366 155 q 365 228 375 199 q 321 257 355 257 q 264 228 288 257 q 232 155 241 199 q 234 83 224 113 q 278 54 244 54 q 335 83 313 54 q 366 155 357 113 m 164 155 q 223 276 179 227 q 336 326 267 326 q 429 276 406 326 q 436 155 452 227 q 377 35 421 85 q 264 -16 334 -16 q 172 35 195 -16 q 164 155 149 85 m 652 155 q 651 228 661 199 q 607 257 642 257 q 551 228 574 257 q 518 155 528 199 q 520 83 510 113 q 564 54 530 54 q 621 83 599 54 q 652 155 643 113 m 450 155 q 509 276 465 227 q 623 326 553 326 q 714 276 692 326 q 722 155 737 227 q 663 35 707 85 q 550 -16 619 -16 q 458 35 481 -16 q 450 155 435 85 z "},"Â":{"ha":758,"x_min":-107,"x_max":661,"o":"m 608 0 l 509 0 l 478 253 l 127 253 l -7 0 l -107 0 l 375 885 l 501 885 l 608 0 m 469 335 l 418 791 l 172 335 l 469 335 m 661 985 l 615 939 l 481 1078 l 285 938 l 257 982 l 500 1179 l 661 985 z "},"Ê":{"ha":758,"x_min":-33,"x_max":720,"o":"m 532 0 l -33 0 l 154 885 l 720 885 l 703 806 l 231 806 l 163 489 l 511 489 l 494 410 l 146 410 l 77 79 l 549 79 l 532 0 m 661 985 l 615 939 l 481 1078 l 285 938 l 257 982 l 500 1179 l 661 985 z "},"Á":{"ha":758,"x_min":-107,"x_max":650,"o":"m 608 0 l 509 0 l 478 253 l 127 253 l -7 0 l -107 0 l 375 885 l 501 885 l 608 0 m 469 335 l 418 791 l 172 335 l 469 335 m 650 1103 l 322 938 l 306 982 l 621 1177 l 650 1103 z "},"Ë":{"ha":758,"x_min":-33,"x_max":720,"o":"m 532 0 l -33 0 l 154 885 l 720 885 l 703 806 l 231 806 l 163 489 l 511 489 l 494 410 l 146 410 l 77 79 l 549 79 l 532 0 m 654 1010 l 528 1010 l 554 1137 l 681 1137 l 654 1010 m 401 1010 l 275 1010 l 302 1137 l 428 1137 l 401 1010 z "},"È":{"ha":758,"x_min":-33,"x_max":720,"o":"m 532 0 l -33 0 l 154 885 l 720 885 l 703 806 l 231 806 l 163 489 l 511 489 l 494 410 l 146 410 l 77 79 l 549 79 l 532 0 m 616 983 l 581 939 l 323 1104 l 383 1178 l 616 983 z "},"Í":{"ha":758,"x_min":60,"x_max":650,"o":"m 439 0 l 60 0 l 77 79 l 220 79 l 374 806 l 231 806 l 248 885 l 627 885 l 610 806 l 467 806 l 313 79 l 456 79 l 439 0 m 650 1103 l 322 938 l 306 982 l 621 1177 l 650 1103 z "},"Î":{"ha":758,"x_min":60,"x_max":661,"o":"m 439 0 l 60 0 l 77 79 l 220 79 l 374 806 l 231 806 l 248 885 l 627 885 l 610 806 l 467 806 l 313 79 l 456 79 l 439 0 m 661 985 l 615 939 l 481 1078 l 285 938 l 257 982 l 500 1179 l 661 985 z "},"Ï":{"ha":758,"x_min":60,"x_max":681,"o":"m 439 0 l 60 0 l 77 79 l 220 79 l 374 806 l 231 806 l 248 885 l 627 885 l 610 806 l 467 806 l 313 79 l 456 79 l 439 0 m 654 1010 l 528 1010 l 554 1137 l 681 1137 l 654 1010 m 401 1010 l 275 1010 l 302 1137 l 428 1137 l 401 1010 z "},"Ì":{"ha":758,"x_min":60,"x_max":627,"o":"m 439 0 l 60 0 l 77 79 l 220 79 l 374 806 l 231 806 l 248 885 l 627 885 l 610 806 l 467 806 l 313 79 l 456 79 l 439 0 m 616 983 l 581 939 l 323 1104 l 383 1178 l 616 983 z "},"Ó":{"ha":758,"x_min":-16,"x_max":701,"o":"m 682 441 q 627 270 663 353 q 538 124 591 187 q 412 23 485 61 q 245 -16 339 -16 q 96 23 153 -16 q 13 124 40 61 q -15 270 -14 187 q 4 441 -16 353 q 59 613 24 530 q 149 760 94 696 q 276 862 204 823 q 440 900 349 900 q 589 862 532 900 q 672 760 646 823 q 700 613 699 696 q 682 441 701 530 m 589 441 q 606 599 607 529 q 583 719 604 669 q 522 794 562 768 q 424 821 482 821 q 297 787 351 821 q 203 698 243 753 q 137 576 163 643 q 97 441 111 509 q 80 308 83 375 q 94 186 77 240 q 151 98 111 132 q 262 64 191 64 q 390 98 335 64 q 484 186 444 132 q 549 308 524 240 q 589 441 575 375 m 650 1103 l 322 938 l 306 982 l 621 1177 l 650 1103 z "},"Ô":{"ha":758,"x_min":-16,"x_max":701,"o":"m 682 441 q 627 270 663 353 q 538 124 591 187 q 412 23 485 61 q 245 -16 339 -16 q 96 23 153 -16 q 13 124 40 61 q -15 270 -14 187 q 4 441 -16 353 q 59 613 24 530 q 149 760 94 696 q 276 862 204 823 q 440 900 349 900 q 589 862 532 900 q 672 760 646 823 q 700 613 699 696 q 682 441 701 530 m 589 441 q 606 599 607 529 q 583 719 604 669 q 522 794 562 768 q 424 821 482 821 q 297 787 351 821 q 203 698 243 753 q 137 576 163 643 q 97 441 111 509 q 80 308 83 375 q 94 186 77 240 q 151 98 111 132 q 262 64 191 64 q 390 98 335 64 q 484 186 444 132 q 549 308 524 240 q 589 441 575 375 m 661 985 l 615 939 l 481 1078 l 285 938 l 257 982 l 500 1179 l 661 985 z "},"":{"ha":758,"x_min":9,"x_max":803,"o":"m 682 911 q 598 753 660 810 q 456 690 536 697 q 682 911 496 871 m 750 245 q 706 175 734 216 q 642 95 677 134 q 567 29 607 57 q 490 1 528 1 q 451 7 469 1 q 415 19 432 12 q 378 32 397 26 q 338 37 358 37 q 297 32 317 37 q 256 19 277 26 q 217 5 236 11 q 180 0 199 0 q 99 42 135 0 q 42 146 62 83 q 15 282 21 210 q 22 418 9 355 q 58 519 33 468 q 117 610 82 570 q 198 675 151 650 q 301 701 244 701 q 349 696 326 701 q 390 685 371 692 q 428 674 410 679 q 467 669 447 669 q 511 675 489 669 q 556 688 533 681 q 602 700 579 694 q 647 705 624 705 q 803 615 747 705 q 665 437 686 532 q 662 378 660 408 q 674 322 664 349 q 704 276 685 296 q 750 245 724 256 z "},"Ò":{"ha":758,"x_min":-16,"x_max":701,"o":"m 682 441 q 627 270 663 353 q 538 124 591 187 q 412 23 485 61 q 245 -16 339 -16 q 96 23 153 -16 q 13 124 40 61 q -15 270 -14 187 q 4 441 -16 353 q 59 613 24 530 q 149 760 94 696 q 276 862 204 823 q 440 900 349 900 q 589 862 532 900 q 672 760 646 823 q 700 613 699 696 q 682 441 701 530 m 589 441 q 606 599 607 529 q 583 719 604 669 q 522 794 562 768 q 424 821 482 821 q 297 787 351 821 q 203 698 243 753 q 137 576 163 643 q 97 441 111 509 q 80 308 83 375 q 94 186 77 240 q 151 98 111 132 q 262 64 191 64 q 390 98 335 64 q 484 186 444 132 q 549 308 524 240 q 589 441 575 375 m 616 983 l 581 939 l 323 1104 l 383 1178 l 616 983 z "},"Ú":{"ha":758,"x_min":17,"x_max":720,"o":"m 599 315 q 553 179 582 240 q 479 75 524 118 q 376 8 435 32 q 244 -16 318 -16 q 122 8 171 -16 q 50 75 74 32 q 21 180 25 118 q 33 317 17 241 l 154 885 l 248 885 l 126 315 q 115 231 118 275 q 126 149 113 186 q 170 88 139 113 q 261 64 201 64 q 364 88 321 64 q 435 149 407 113 q 480 231 464 186 q 505 315 497 275 l 627 885 l 720 885 l 599 315 m 650 1103 l 322 938 l 306 982 l 621 1177 l 650 1103 z "},"Û":{"ha":758,"x_min":17,"x_max":720,"o":"m 599 315 q 553 179 582 240 q 479 75 524 118 q 376 8 435 32 q 244 -16 318 -16 q 122 8 171 -16 q 50 75 74 32 q 21 180 25 118 q 33 317 17 241 l 154 885 l 248 885 l 126 315 q 115 231 118 275 q 126 149 113 186 q 170 88 139 113 q 261 64 201 64 q 364 88 321 64 q 435 149 407 113 q 480 231 464 186 q 505 315 497 275 l 627 885 l 720 885 l 599 315 m 661 985 l 615 939 l 481 1078 l 285 938 l 257 982 l 500 1179 l 661 985 z "},"Ù":{"ha":758,"x_min":17,"x_max":720,"o":"m 599 315 q 553 179 582 240 q 479 75 524 118 q 376 8 435 32 q 244 -16 318 -16 q 122 8 171 -16 q 50 75 74 32 q 21 180 25 118 q 33 317 17 241 l 154 885 l 248 885 l 126 315 q 115 231 118 275 q 126 149 113 186 q 170 88 139 113 q 261 64 201 64 q 364 88 321 64 q 435 149 407 113 q 480 231 464 186 q 505 315 497 275 l 627 885 l 720 885 l 599 315 m 616 983 l 581 939 l 323 1104 l 383 1178 l 616 983 z "},"ı":{"ha":758,"x_min":60,"x_max":456,"o":"m 439 0 l 60 0 l 77 79 l 220 79 l 319 550 l 176 550 l 193 632 l 429 632 l 313 79 l 456 79 l 439 0 z "},"ˆ":{"ha":758,"x_min":203,"x_max":607,"o":"m 607 733 l 561 688 l 427 827 l 231 686 l 203 730 l 446 928 l 607 733 z "},"˜":{"ha":758,"x_min":147,"x_max":684,"o":"m 684 833 q 494 726 600 726 q 433 739 456 726 q 396 766 411 751 q 365 793 380 781 q 323 806 350 806 q 195 730 254 806 l 147 762 q 336 868 232 868 q 397 856 375 868 q 435 828 419 843 q 466 801 450 814 q 507 789 481 789 q 636 865 576 789 l 684 833 z "},"¯":{"ha":758,"x_min":218,"x_max":614,"o":"m 597 750 l 218 750 l 235 827 l 614 827 l 597 750 z "},"˘":{"ha":758,"x_min":231,"x_max":616,"o":"m 616 821 q 407 742 521 742 q 231 821 293 742 l 294 872 q 421 808 345 808 q 575 872 497 808 l 616 821 z "},"˙":{"ha":758,"x_min":347,"x_max":500,"o":"m 473 758 l 347 758 l 374 885 l 500 885 l 473 758 z "},"˚":{"ha":758,"x_min":271,"x_max":590,"o":"m 278 852 q 302 912 285 885 q 345 961 319 940 q 401 994 371 982 q 463 1006 431 1006 q 520 994 494 1006 q 562 961 546 982 q 584 912 578 940 q 583 852 590 885 q 559 793 576 821 q 516 744 542 765 q 460 712 490 724 q 399 700 431 700 q 341 712 367 700 q 299 744 315 724 q 277 793 283 765 q 278 852 271 821 m 339 852 q 352 788 330 815 q 411 761 374 761 q 481 788 449 761 q 522 852 514 815 q 509 918 530 890 q 450 945 488 945 q 380 918 412 945 q 339 852 347 890 z "},"¸":{"ha":758,"x_min":43,"x_max":313,"o":"m 306 -28 q 216 -187 285 -127 q 43 -252 143 -252 l 60 -172 q 228 -28 197 -172 l 235 0 l 313 0 l 306 -28 z "},"˝":{"ha":758,"x_min":196,"x_max":724,"o":"m 543 694 l 447 694 l 597 949 l 724 949 l 543 694 m 290 694 l 196 694 l 345 949 l 471 949 l 290 694 z "},"˛":{"ha":758,"x_min":406,"x_max":583,"o":"m 570 -257 q 445 -215 485 -257 q 421 -103 406 -172 q 454 -28 429 -60 q 511 26 479 3 l 530 0 q 479 -82 490 -31 q 499 -163 469 -131 q 583 -196 529 -196 l 570 -257 z "},"ˇ":{"ha":758,"x_min":235,"x_max":637,"o":"m 637 879 l 396 686 l 235 882 l 281 928 l 418 787 l 611 925 l 637 879 z "},"!":{"ha":758,"x_min":186,"x_max":498,"o":"m 498 885 l 329 249 l 273 249 l 374 885 l 498 885 m 313 0 l 186 0 l 212 126 l 339 126 l 313 0 z "},"\"":{"ha":758,"x_min":210,"x_max":627,"o":"m 627 885 l 532 570 l 463 570 l 500 885 l 627 885 m 374 885 l 278 570 l 210 570 l 248 885 l 374 885 z "},"":{"ha":758,"x_min":90,"x_max":332,"o":"m 332 -71 l 176 -253 l 90 -253 l 186 -71 l 332 -71 z "},"¤":{"ha":758,"x_min":-61,"x_max":749,"o":"m 749 732 l 652 653 q 683 557 676 611 q 676 440 689 503 q 633 324 663 378 q 564 229 604 271 l 625 151 l 559 98 l 497 175 q 392 126 449 143 q 272 110 335 110 q 159 128 208 110 q 75 178 110 146 l -20 98 l -61 151 l 33 231 q 4 325 9 272 q 12 440 -1 378 q 123 652 39 566 l 62 732 l 126 785 l 187 704 q 414 774 289 774 q 526 755 476 774 q 608 705 575 737 l 705 785 l 749 732 m 582 440 q 587 540 593 494 q 557 621 581 586 q 493 675 533 656 q 397 694 453 694 q 293 675 342 694 q 206 621 244 656 q 142 540 168 586 q 106 440 117 494 q 101 340 94 386 q 130 261 107 294 q 194 209 153 228 q 290 191 235 191 q 394 209 346 191 q 480 261 441 228 q 545 340 519 294 q 582 440 571 386 z "},"¦":{"ha":758,"x_min":175,"x_max":510,"o":"m 268 -126 l 175 -126 l 283 379 l 376 379 l 268 -126 m 403 505 l 310 505 l 416 1011 l 510 1011 l 403 505 z "},"­":{"ha":758,"x_min":-7,"x_max":643,"o":"m 625 285 l -7 285 l 11 364 l 643 364 l 625 285 z "},"²":{"ha":758,"x_min":68,"x_max":414,"o":"m 403 781 q 367 713 395 743 q 302 657 351 693 q 255 620 283 642 q 189 567 227 599 l 289 567 l 300 616 l 367 616 l 343 505 l 68 505 l 79 558 l 285 721 q 329 781 323 753 q 318 817 335 804 q 273 829 301 829 q 176 736 196 829 l 107 736 q 288 893 140 893 q 376 865 345 893 q 403 781 414 832 z "},"³":{"ha":758,"x_min":54,"x_max":396,"o":"m 358 616 q 302 533 349 570 q 193 497 256 497 q 66 635 54 497 l 140 644 q 205 561 132 561 q 256 578 233 561 q 285 616 279 595 q 272 661 293 654 q 216 668 262 668 l 231 736 q 313 781 302 736 q 264 831 323 831 q 170 747 187 831 l 98 747 q 165 857 114 819 q 277 892 215 892 q 368 861 339 892 q 386 781 396 829 q 325 705 375 729 q 358 616 370 669 z "},"¹":{"ha":758,"x_min":77,"x_max":323,"o":"m 304 505 l 109 505 l 121 567 l 182 567 l 224 764 q 164 704 203 729 q 77 679 126 679 l 92 746 q 138 755 113 746 q 185 783 163 765 q 225 827 207 802 q 250 885 243 852 l 323 885 l 256 567 l 317 567 l 304 505 z "},"¼":{"ha":758,"x_min":-61,"x_max":747,"o":"m 747 863 l -5 -18 l -61 22 l 694 905 l 747 863 m 304 505 l 109 505 l 121 567 l 182 567 l 224 764 q 164 704 203 729 q 77 679 126 679 l 92 746 q 138 755 113 746 q 185 783 163 765 q 225 827 207 802 q 250 885 243 852 l 323 885 l 256 567 l 317 567 l 304 505 m 566 0 l 371 0 l 383 61 l 446 61 l 454 102 l 285 102 l 296 153 l 510 379 l 585 379 l 539 164 l 600 164 l 586 102 l 525 102 l 517 61 l 578 61 l 566 0 m 468 164 l 490 272 l 387 164 l 468 164 z "},"½":{"ha":758,"x_min":-61,"x_max":747,"o":"m 747 863 l -5 -18 l -61 22 l 694 905 l 747 863 m 625 275 q 587 207 616 237 q 525 151 572 187 q 476 115 504 136 q 411 61 449 93 l 511 61 l 522 111 l 589 111 l 566 0 l 290 0 l 301 53 l 505 215 q 551 275 545 248 q 539 311 555 298 q 496 323 524 323 q 399 231 418 323 l 329 231 q 510 387 363 387 q 599 359 567 387 q 625 275 635 326 m 304 505 l 109 505 l 121 567 l 182 567 l 224 764 q 164 704 203 729 q 77 679 126 679 l 92 746 q 138 755 113 746 q 185 783 163 765 q 225 827 207 802 q 250 885 243 852 l 323 885 l 256 567 l 317 567 l 304 505 z "},"¾":{"ha":758,"x_min":-61,"x_max":747,"o":"m 358 616 q 302 533 349 570 q 193 497 256 497 q 66 635 54 497 l 140 644 q 205 561 132 561 q 256 578 233 561 q 285 616 279 595 q 272 661 293 654 q 216 668 262 668 l 231 736 q 313 781 302 736 q 264 831 323 831 q 170 747 187 831 l 98 747 q 165 857 114 819 q 277 892 215 892 q 368 861 339 892 q 386 781 396 829 q 325 705 375 729 q 358 616 370 669 m 747 863 l -5 -18 l -61 22 l 694 905 l 747 863 m 566 0 l 371 0 l 383 61 l 446 61 l 454 102 l 285 102 l 296 153 l 510 379 l 585 379 l 539 164 l 600 164 l 586 102 l 525 102 l 517 61 l 578 61 l 566 0 m 468 164 l 490 272 l 387 164 l 468 164 z "},"Ð":{"ha":758,"x_min":-60,"x_max":707,"o":"m 688 443 q 631 271 668 351 q 540 130 595 191 q 413 35 485 69 q 254 0 342 0 l -33 0 l 53 411 l -60 411 l -41 490 l 71 490 l 154 885 l 441 885 q 591 849 534 885 q 676 751 648 812 q 705 610 704 690 q 688 443 707 530 m 595 443 q 587 711 632 616 q 425 806 542 806 l 231 806 l 164 490 l 336 490 l 318 411 l 146 411 l 77 79 l 271 79 q 473 174 387 79 q 595 443 558 269 z "},"×":{"ha":758,"x_min":26,"x_max":611,"o":"m 611 521 l 371 324 l 526 127 l 461 74 l 307 271 l 68 74 l 26 127 l 264 324 l 111 521 l 175 574 l 329 376 l 568 574 l 611 521 z "},"Ý":{"ha":758,"x_min":60,"x_max":766,"o":"m 750 806 l 677 806 l 376 382 l 313 79 l 456 79 l 439 0 l 60 0 l 77 79 l 220 79 l 283 382 l 163 806 l 90 806 l 107 885 l 357 885 l 340 806 l 267 806 l 350 472 l 574 806 l 500 806 l 517 885 l 766 885 l 750 806 m 650 1103 l 322 938 l 306 982 l 621 1177 l 650 1103 z "},"Þ":{"ha":758,"x_min":-33,"x_max":713,"o":"m 659 450 q 267 197 606 197 l 102 197 l 60 0 l -33 0 l 154 885 l 248 885 l 208 703 l 374 703 q 659 450 713 703 m 564 450 q 357 623 602 623 l 192 623 l 118 275 l 283 275 q 476 320 406 275 q 564 450 546 364 z "},"ð":{"ha":758,"x_min":-57,"x_max":671,"o":"m 232 663 l 363 771 q 312 798 339 786 q 256 821 285 810 l 302 900 q 437 833 376 869 l 555 930 l 597 876 l 497 793 q 581 715 545 758 q 638 620 616 672 q 665 504 660 567 q 654 364 671 440 q 596 207 636 277 q 500 87 557 136 q 373 11 444 37 q 221 -16 302 -16 q 13 50 82 -16 q -31 240 -57 115 q 36 366 -16 311 q 165 463 87 421 q 341 532 243 504 q 549 578 439 561 q 498 663 530 625 q 424 732 465 700 l 273 608 l 232 663 m 561 364 q 571 435 570 401 q 568 501 572 469 q 380 467 468 490 q 225 410 292 443 q 116 334 158 376 q 62 240 74 292 q 93 113 46 161 q 237 64 139 64 q 353 85 300 64 q 447 146 406 107 q 518 241 489 186 q 561 364 547 297 z "},"ý":{"ha":758,"x_min":-119,"x_max":718,"o":"m 718 632 l 208 -160 q 115 -247 168 -227 q 4 -268 62 -268 q -119 -244 -61 -268 l -85 -164 q -27 -183 -57 -178 q 22 -189 3 -189 q 90 -167 68 -189 q 131 -114 111 -144 l 191 -18 l 46 632 l 155 632 l 267 79 l 607 632 l 718 632 m 596 851 l 268 686 l 252 730 l 567 925 l 596 851 z "},"þ":{"ha":758,"x_min":-86,"x_max":648,"o":"m 633 315 q 582 181 616 241 q 496 76 547 121 q 381 7 446 32 q 241 -17 317 -17 q 69 50 140 -17 l 5 -253 l -86 -253 l 154 885 l 248 885 l 182 581 q 383 647 282 647 q 510 624 456 647 q 596 557 564 600 q 639 453 629 514 q 633 315 648 392 m 539 315 q 545 417 550 371 q 520 498 541 464 q 461 551 500 532 q 367 571 422 571 q 163 485 261 571 l 90 146 q 257 58 151 58 q 360 78 313 58 q 443 132 407 97 q 502 214 478 167 q 539 315 526 261 z "},"Ā":{"ha":758,"x_min":-107,"x_max":668,"o":"m 608 0 l 509 0 l 478 253 l 127 253 l -7 0 l -107 0 l 375 885 l 501 885 l 608 0 m 469 335 l 418 791 l 172 335 l 469 335 m 652 1002 l 273 1002 l 289 1078 l 668 1078 l 652 1002 z "},"ā":{"ha":758,"x_min":-50,"x_max":633,"o":"m -31 171 q 20 271 -18 231 q 112 335 58 311 q 231 369 165 358 q 361 379 296 379 q 406 378 386 379 q 443 376 425 378 q 478 373 461 375 q 518 368 496 371 l 528 414 q 524 490 538 460 q 484 537 510 519 q 428 561 458 554 q 375 568 397 568 q 241 549 304 568 q 119 498 178 530 l 92 568 q 233 625 157 603 q 393 647 309 647 q 492 634 444 647 q 572 593 539 621 q 620 521 606 566 q 621 414 633 476 l 533 0 l 440 0 l 463 106 q 395 52 431 75 q 323 15 359 29 q 250 -8 286 0 q 183 -16 214 -16 q 4 33 58 -16 q -31 171 -50 81 m 200 64 q 309 81 258 64 q 397 124 359 98 q 459 179 435 150 q 489 232 484 208 l 501 292 q 415 299 457 298 q 343 300 374 300 q 245 293 293 300 q 160 271 197 286 q 96 231 122 256 q 62 171 69 207 q 85 97 53 131 q 200 64 117 64 m 597 749 l 218 749 l 235 826 l 614 826 l 597 749 z "},"Ă":{"ha":758,"x_min":-107,"x_max":671,"o":"m 608 0 l 509 0 l 478 253 l 127 253 l -7 0 l -107 0 l 375 885 l 501 885 l 608 0 m 469 335 l 418 791 l 172 335 l 469 335 m 671 1072 q 461 994 575 994 q 285 1072 347 994 l 349 1124 q 475 1060 399 1060 q 629 1124 551 1060 l 671 1072 z "},"ă":{"ha":758,"x_min":-50,"x_max":633,"o":"m -31 171 q 20 271 -18 231 q 112 335 58 311 q 231 369 165 358 q 361 379 296 379 q 406 378 386 379 q 443 376 425 378 q 478 373 461 375 q 518 368 496 371 l 528 414 q 524 490 538 460 q 484 537 510 519 q 428 561 458 554 q 375 568 397 568 q 241 549 304 568 q 119 498 178 530 l 92 568 q 233 625 157 603 q 393 647 309 647 q 492 634 444 647 q 572 593 539 621 q 620 521 606 566 q 621 414 633 476 l 533 0 l 440 0 l 463 106 q 395 52 431 75 q 323 15 359 29 q 250 -8 286 0 q 183 -16 214 -16 q 4 33 58 -16 q -31 171 -50 81 m 200 64 q 309 81 258 64 q 397 124 359 98 q 459 179 435 150 q 489 232 484 208 l 501 292 q 415 299 457 298 q 343 300 374 300 q 245 293 293 300 q 160 271 197 286 q 96 231 122 256 q 62 171 69 207 q 85 97 53 131 q 200 64 117 64 m 616 820 q 407 741 521 741 q 231 820 293 741 l 294 871 q 421 808 345 808 q 575 871 497 808 l 616 820 z "},"Ą":{"ha":758,"x_min":-107,"x_max":661,"o":"m 647 -257 q 523 -215 562 -257 q 498 -103 484 -172 q 522 -45 505 -71 q 557 0 538 -20 l 509 0 l 478 253 l 127 253 l -7 0 l -107 0 l 375 885 l 501 885 l 608 0 q 557 -82 568 -31 q 577 -163 547 -131 q 661 -196 607 -196 l 647 -257 m 469 335 l 418 791 l 172 335 l 469 335 z "},"ą":{"ha":758,"x_min":-52,"x_max":632,"o":"m 532 0 q 499 -37 513 -16 q 479 -82 485 -58 q 499 -163 469 -131 q 583 -196 529 -196 l 570 -257 q 445 -215 485 -257 q 421 -103 406 -172 q 444 -45 428 -71 q 479 0 460 -20 l 439 0 l 461 106 q 394 52 429 75 q 321 15 358 29 q 249 -8 285 0 q 182 -16 212 -16 q 3 33 57 -16 q -32 171 -52 81 q 19 271 -20 231 q 111 335 57 311 q 229 369 164 358 q 359 379 294 379 q 404 378 385 379 q 442 376 424 378 q 477 373 460 375 q 517 368 494 371 l 526 414 q 523 490 536 460 q 483 537 509 519 q 427 561 457 554 q 374 568 396 568 q 239 549 302 568 q 118 498 176 530 l 90 568 q 231 625 155 603 q 392 647 307 647 q 490 634 443 647 q 571 593 538 621 q 618 521 604 566 q 619 414 632 476 l 532 0 m 199 64 q 308 81 257 64 q 396 124 358 98 q 458 179 433 150 q 488 232 482 208 l 500 292 q 414 299 456 298 q 342 300 372 300 q 244 293 292 300 q 158 271 196 286 q 94 231 121 256 q 61 171 68 207 q 83 97 52 131 q 199 64 115 64 z "},"Ć":{"ha":758,"x_min":-7,"x_max":753,"o":"m 619 232 q 468 51 561 118 q 256 -16 375 -16 q 106 23 163 -16 q 22 124 50 61 q -6 270 -5 187 q 12 441 -7 353 q 67 613 32 530 q 158 760 103 696 q 284 862 212 823 q 450 900 357 900 q 584 871 532 900 q 652 782 636 842 l 673 885 l 753 885 l 690 595 l 611 595 q 613 683 623 642 q 579 755 603 725 q 517 803 555 786 q 433 821 479 821 q 307 787 361 821 q 213 698 253 753 q 146 576 172 643 q 106 441 119 509 q 89 308 92 375 q 103 186 86 240 q 160 98 121 132 q 272 64 200 64 q 546 264 437 64 l 619 232 m 650 1103 l 322 938 l 306 982 l 621 1177 l 650 1103 z "},"ć":{"ha":758,"x_min":-17,"x_max":669,"o":"m 567 121 q 435 21 513 58 q 262 -16 358 -16 q 133 9 189 -16 q 42 77 77 33 q -5 181 7 121 q 0 315 -17 241 q 51 449 16 387 q 137 554 86 510 q 253 622 187 597 q 392 647 318 647 q 450 640 421 647 q 502 620 478 633 q 544 586 526 606 q 567 541 561 567 l 586 632 l 669 632 l 616 379 l 533 379 q 534 456 542 421 q 505 515 526 490 q 449 554 484 541 q 374 568 415 568 q 270 549 317 568 q 188 495 224 529 q 129 415 153 461 q 93 315 104 370 q 87 215 81 261 q 119 136 94 170 q 183 83 143 103 q 279 64 224 64 q 411 92 350 64 q 511 165 472 119 l 567 121 m 596 850 l 268 686 l 252 730 l 567 924 l 596 850 z "},"Ĉ":{"ha":758,"x_min":-7,"x_max":753,"o":"m 619 232 q 468 51 561 118 q 256 -16 375 -16 q 106 23 163 -16 q 22 124 50 61 q -6 270 -5 187 q 12 441 -7 353 q 67 613 32 530 q 158 760 103 696 q 284 862 212 823 q 450 900 357 900 q 584 871 532 900 q 652 782 636 842 l 673 885 l 753 885 l 690 595 l 611 595 q 613 683 623 642 q 579 755 603 725 q 517 803 555 786 q 433 821 479 821 q 307 787 361 821 q 213 698 253 753 q 146 576 172 643 q 106 441 119 509 q 89 308 92 375 q 103 186 86 240 q 160 98 121 132 q 272 64 200 64 q 546 264 437 64 l 619 232 m 661 985 l 615 939 l 481 1078 l 285 938 l 257 982 l 500 1179 l 661 985 z "},"ĉ":{"ha":758,"x_min":-17,"x_max":669,"o":"m 567 121 q 435 21 513 58 q 262 -16 358 -16 q 133 9 189 -16 q 42 77 77 33 q -5 181 7 121 q 0 315 -17 241 q 51 449 16 387 q 137 554 86 510 q 253 622 187 597 q 392 647 318 647 q 450 640 421 647 q 502 620 478 633 q 544 586 526 606 q 567 541 561 567 l 586 632 l 669 632 l 616 379 l 533 379 q 534 456 542 421 q 505 515 526 490 q 449 554 484 541 q 374 568 415 568 q 270 549 317 568 q 188 495 224 529 q 129 415 153 461 q 93 315 104 370 q 87 215 81 261 q 119 136 94 170 q 183 83 143 103 q 279 64 224 64 q 411 92 350 64 q 511 165 472 119 l 567 121 m 607 732 l 561 687 l 427 826 l 231 686 l 203 730 l 446 927 l 607 732 z "},"Ċ":{"ha":758,"x_min":-7,"x_max":753,"o":"m 619 232 q 468 51 561 118 q 256 -16 375 -16 q 106 23 163 -16 q 22 124 50 61 q -6 270 -5 187 q 12 441 -7 353 q 67 613 32 530 q 158 760 103 696 q 284 862 212 823 q 450 900 357 900 q 584 871 532 900 q 652 782 636 842 l 673 885 l 753 885 l 690 595 l 611 595 q 613 683 623 642 q 579 755 603 725 q 517 803 555 786 q 433 821 479 821 q 307 787 361 821 q 213 698 253 753 q 146 576 172 643 q 106 441 119 509 q 89 308 92 375 q 103 186 86 240 q 160 98 121 132 q 272 64 200 64 q 546 264 437 64 l 619 232 m 528 1010 l 401 1010 l 428 1137 l 554 1137 l 528 1010 z "},"ċ":{"ha":758,"x_min":-17,"x_max":669,"o":"m 567 121 q 435 21 513 58 q 262 -16 358 -16 q 133 9 189 -16 q 42 77 77 33 q -5 181 7 121 q 0 315 -17 241 q 51 449 16 387 q 137 554 86 510 q 253 622 187 597 q 392 647 318 647 q 450 640 421 647 q 502 620 478 633 q 544 586 526 606 q 567 541 561 567 l 586 632 l 669 632 l 616 379 l 533 379 q 534 456 542 421 q 505 515 526 490 q 449 554 484 541 q 374 568 415 568 q 270 549 317 568 q 188 495 224 529 q 129 415 153 461 q 93 315 104 370 q 87 215 81 261 q 119 136 94 170 q 183 83 143 103 q 279 64 224 64 q 411 92 350 64 q 511 165 472 119 l 567 121 m 473 758 l 347 758 l 374 885 l 500 885 l 473 758 z "},"Č":{"ha":758,"x_min":-7,"x_max":753,"o":"m 619 232 q 468 51 561 118 q 256 -16 375 -16 q 106 23 163 -16 q 22 124 50 61 q -6 270 -5 187 q 12 441 -7 353 q 67 613 32 530 q 158 760 103 696 q 284 862 212 823 q 450 900 357 900 q 584 871 532 900 q 652 782 636 842 l 673 885 l 753 885 l 690 595 l 611 595 q 613 683 623 642 q 579 755 603 725 q 517 803 555 786 q 433 821 479 821 q 307 787 361 821 q 213 698 253 753 q 146 576 172 643 q 106 441 119 509 q 89 308 92 375 q 103 186 86 240 q 160 98 121 132 q 272 64 200 64 q 546 264 437 64 l 619 232 m 692 1131 l 450 938 l 289 1133 l 335 1179 l 472 1039 l 665 1177 l 692 1131 z "},"č":{"ha":758,"x_min":-17,"x_max":669,"o":"m 567 121 q 435 21 513 58 q 262 -16 358 -16 q 133 9 189 -16 q 42 77 77 33 q -5 181 7 121 q 0 315 -17 241 q 51 449 16 387 q 137 554 86 510 q 253 622 187 597 q 392 647 318 647 q 450 640 421 647 q 502 620 478 633 q 544 586 526 606 q 567 541 561 567 l 586 632 l 669 632 l 616 379 l 533 379 q 534 456 542 421 q 505 515 526 490 q 449 554 484 541 q 374 568 415 568 q 270 549 317 568 q 188 495 224 529 q 129 415 153 461 q 93 315 104 370 q 87 215 81 261 q 119 136 94 170 q 183 83 143 103 q 279 64 224 64 q 411 92 350 64 q 511 165 472 119 l 567 121 m 637 878 l 396 686 l 235 881 l 281 927 l 418 787 l 611 924 l 637 878 z "},"Ď":{"ha":758,"x_min":-33,"x_max":707,"o":"m 688 441 q 633 272 668 353 q 543 131 597 192 q 417 35 489 71 q 254 0 346 0 l -33 0 l 154 885 l 441 885 q 589 849 532 885 q 673 751 646 812 q 704 610 701 690 q 688 441 707 530 m 595 441 q 587 710 632 615 q 425 806 542 806 l 231 806 l 77 79 l 271 79 q 473 174 387 79 q 595 441 558 268 m 692 1133 l 450 941 l 289 1136 l 335 1182 l 472 1042 l 665 1179 l 692 1133 z "},"ď":{"ha":758,"x_min":-16,"x_max":848,"o":"m 439 0 l 346 0 l 357 58 q 274 3 318 22 q 191 -16 231 -16 q 86 9 129 -16 q 19 77 43 33 q -11 182 -5 121 q 0 315 -16 243 q 47 449 16 387 q 120 554 78 510 q 217 622 163 597 q 332 647 271 647 q 408 629 372 647 q 467 575 443 611 l 517 806 l 390 806 l 407 885 l 627 885 l 439 0 m 449 485 q 392 549 425 529 q 319 568 359 568 q 241 549 278 568 q 175 495 204 529 q 124 415 146 461 q 92 315 103 370 q 81 215 79 261 q 99 136 83 170 q 142 82 114 102 q 212 62 171 62 q 376 147 296 62 l 449 485 m 848 884 l 725 569 l 657 569 l 724 884 l 848 884 z "},"Đ":{"ha":758,"x_min":-60,"x_max":707,"o":"m 688 443 q 631 271 668 351 q 540 130 595 191 q 413 35 485 69 q 254 0 342 0 l -33 0 l 53 411 l -60 411 l -41 490 l 71 490 l 154 885 l 441 885 q 591 849 534 885 q 676 751 648 812 q 705 610 704 690 q 688 443 707 530 m 595 443 q 587 711 632 616 q 425 806 542 806 l 231 806 l 164 490 l 336 490 l 318 411 l 146 411 l 77 79 l 271 79 q 473 174 387 79 q 595 443 558 269 z "},"đ":{"ha":758,"x_min":-17,"x_max":819,"o":"m 802 679 l 675 679 l 532 0 l 439 0 l 450 58 q 351 3 403 22 q 249 -16 298 -16 q 119 9 174 -16 q 33 77 65 33 q -8 182 1 121 q -1 315 -17 243 q 49 449 14 387 q 135 554 85 510 q 250 622 184 597 q 390 647 315 647 q 484 629 440 647 q 559 575 528 611 l 582 679 l 456 679 l 473 758 l 600 758 l 627 885 l 720 885 l 693 758 l 819 758 l 802 679 m 542 485 q 467 549 510 529 q 371 568 424 568 q 269 549 315 568 q 187 495 222 529 q 127 415 151 461 q 92 315 103 370 q 84 215 79 261 q 111 136 89 170 q 170 82 132 102 q 264 62 208 62 q 469 147 371 62 l 542 485 z "},"Ē":{"ha":758,"x_min":-33,"x_max":720,"o":"m 532 0 l -33 0 l 154 885 l 720 885 l 703 806 l 231 806 l 163 489 l 511 489 l 494 410 l 146 410 l 77 79 l 549 79 l 532 0 m 652 1002 l 273 1002 l 289 1078 l 668 1078 l 652 1002 z "},"ē":{"ha":758,"x_min":-20,"x_max":648,"o":"m 86 283 q 125 123 75 183 q 277 64 175 64 q 409 93 347 64 q 509 165 471 122 l 564 121 q 429 19 503 54 q 260 -16 355 -16 q 131 9 186 -16 q 40 77 75 33 q -8 181 4 121 q -3 315 -20 241 q 47 448 12 387 q 133 553 82 509 q 250 622 184 597 q 389 647 315 647 q 524 620 469 647 q 608 545 578 593 q 644 431 639 497 q 632 283 648 364 l 86 283 m 550 363 q 508 517 557 467 q 371 568 458 568 q 285 554 326 568 q 210 512 244 539 q 147 447 175 485 q 104 363 119 408 l 550 363 m 597 749 l 218 749 l 235 826 l 614 826 l 597 749 z "},"Ĕ":{"ha":758,"x_min":-33,"x_max":720,"o":"m 532 0 l -33 0 l 154 885 l 720 885 l 703 806 l 231 806 l 163 489 l 511 489 l 494 410 l 146 410 l 77 79 l 549 79 l 532 0 m 671 1072 q 461 994 575 994 q 285 1072 347 994 l 349 1124 q 475 1060 399 1060 q 629 1124 551 1060 l 671 1072 z "},"ĕ":{"ha":758,"x_min":-20,"x_max":648,"o":"m 86 283 q 125 123 75 183 q 277 64 175 64 q 409 93 347 64 q 509 165 471 122 l 564 121 q 429 19 503 54 q 260 -16 355 -16 q 131 9 186 -16 q 40 77 75 33 q -8 181 4 121 q -3 315 -20 241 q 47 448 12 387 q 133 553 82 509 q 250 622 184 597 q 389 647 315 647 q 524 620 469 647 q 608 545 578 593 q 644 431 639 497 q 632 283 648 364 l 86 283 m 550 363 q 508 517 557 467 q 371 568 458 568 q 285 554 326 568 q 210 512 244 539 q 147 447 175 485 q 104 363 119 408 l 550 363 m 616 820 q 407 741 521 741 q 231 820 293 741 l 294 871 q 421 808 345 808 q 575 871 497 808 l 616 820 z "},"Ė":{"ha":758,"x_min":-33,"x_max":720,"o":"m 532 0 l -33 0 l 154 885 l 720 885 l 703 806 l 231 806 l 163 489 l 511 489 l 494 410 l 146 410 l 77 79 l 549 79 l 532 0 m 528 1010 l 401 1010 l 428 1137 l 554 1137 l 528 1010 z "},"ė":{"ha":758,"x_min":-20,"x_max":648,"o":"m 86 283 q 125 123 75 183 q 277 64 175 64 q 409 93 347 64 q 509 165 471 122 l 564 121 q 429 19 503 54 q 260 -16 355 -16 q 131 9 186 -16 q 40 77 75 33 q -8 181 4 121 q -3 315 -20 241 q 47 448 12 387 q 133 553 82 509 q 250 622 184 597 q 389 647 315 647 q 524 620 469 647 q 608 545 578 593 q 644 431 639 497 q 632 283 648 364 l 86 283 m 550 363 q 508 517 557 467 q 371 568 458 568 q 285 554 326 568 q 210 512 244 539 q 147 447 175 485 q 104 363 119 408 l 550 363 m 473 758 l 347 758 l 374 885 l 500 885 l 473 758 z "},"Ę":{"ha":758,"x_min":-33,"x_max":720,"o":"m 572 -257 q 448 -215 488 -257 q 424 -103 408 -172 q 447 -45 431 -71 q 482 0 463 -20 l -33 0 l 154 885 l 720 885 l 703 806 l 231 806 l 163 489 l 511 489 l 494 410 l 146 410 l 77 79 l 549 79 l 532 1 l 533 0 q 482 -82 493 -31 q 502 -163 472 -131 q 586 -196 532 -196 l 572 -257 z "},"ę":{"ha":758,"x_min":-20,"x_max":648,"o":"m 380 1 q 349 -36 361 -14 q 330 -82 336 -58 q 351 -163 321 -131 q 435 -196 380 -196 l 421 -257 q 297 -215 336 -257 q 272 -103 257 -172 q 290 -53 278 -75 q 319 -11 302 -31 q 260 -16 289 -16 q 131 9 186 -16 q 40 77 75 33 q -8 181 4 121 q -3 315 -20 241 q 47 448 12 387 q 133 553 82 509 q 250 622 184 597 q 389 647 315 647 q 524 620 469 647 q 608 545 578 593 q 644 431 639 497 q 632 283 648 364 l 86 283 q 125 123 75 183 q 277 64 175 64 q 409 93 347 64 q 509 165 471 122 l 564 121 q 380 1 481 32 m 550 363 q 508 517 557 467 q 371 568 458 568 q 285 554 326 568 q 210 512 244 539 q 147 447 175 485 q 104 363 119 408 l 550 363 z "},"Ě":{"ha":758,"x_min":-33,"x_max":720,"o":"m 532 0 l -33 0 l 154 885 l 720 885 l 703 806 l 231 806 l 163 489 l 511 489 l 494 410 l 146 410 l 77 79 l 549 79 l 532 0 m 692 1131 l 450 938 l 289 1133 l 335 1179 l 472 1039 l 665 1177 l 692 1131 z "},"ě":{"ha":758,"x_min":-20,"x_max":648,"o":"m 86 283 q 125 123 75 183 q 277 64 175 64 q 409 93 347 64 q 509 165 471 122 l 564 121 q 429 19 503 54 q 260 -16 355 -16 q 131 9 186 -16 q 40 77 75 33 q -8 181 4 121 q -3 315 -20 241 q 47 448 12 387 q 133 553 82 509 q 250 622 184 597 q 389 647 315 647 q 524 620 469 647 q 608 545 578 593 q 644 431 639 497 q 632 283 648 364 l 86 283 m 550 363 q 508 517 557 467 q 371 568 458 568 q 285 554 326 568 q 210 512 244 539 q 147 447 175 485 q 104 363 119 408 l 550 363 m 637 878 l 396 686 l 235 881 l 281 927 l 418 787 l 611 924 l 637 878 z "},"Ĝ":{"ha":758,"x_min":-7,"x_max":753,"o":"m 693 440 q 637 268 673 350 q 547 123 602 186 q 420 22 493 60 q 256 -16 347 -16 q 106 23 163 -16 q 22 124 50 61 q -6 270 -5 187 q 12 441 -7 353 q 67 613 32 530 q 158 760 103 696 q 284 862 212 823 q 450 900 357 900 q 584 871 532 900 q 652 782 636 842 l 673 885 l 753 885 l 690 595 l 611 595 q 613 685 623 643 q 580 756 604 726 q 517 803 555 786 q 433 821 479 821 q 307 787 361 821 q 213 698 253 753 q 146 576 172 643 q 106 441 119 509 q 89 308 92 375 q 103 186 86 240 q 160 98 121 132 q 272 64 200 64 q 459 146 379 64 q 582 379 539 229 l 386 379 l 403 458 l 697 458 l 693 440 m 661 985 l 615 939 l 481 1078 l 285 938 l 257 982 l 500 1179 l 661 985 z "},"ĝ":{"ha":758,"x_min":-71,"x_max":665,"o":"m 533 7 q 486 -109 519 -58 q 405 -195 453 -160 q 298 -249 357 -231 q 172 -268 239 -268 q 20 -233 78 -268 q -71 -131 -39 -197 l 3 -81 q 71 -155 22 -125 q 191 -184 119 -184 q 353 -136 286 -184 q 439 4 419 -87 l 454 72 q 249 -1 354 -1 q 33 83 100 -1 q -1 315 -33 168 q 48 448 14 387 q 134 553 83 509 q 249 622 184 597 q 387 647 314 647 q 483 629 439 647 q 559 575 528 611 l 572 632 l 665 632 l 533 7 m 542 485 q 466 549 510 529 q 370 568 422 568 q 268 549 314 568 q 186 495 221 529 q 127 415 151 461 q 92 315 103 368 q 110 142 68 207 q 265 78 153 78 q 371 98 318 78 q 472 163 424 118 l 542 485 m 607 732 l 561 687 l 427 826 l 231 686 l 203 730 l 446 927 l 607 732 z "},"Ğ":{"ha":758,"x_min":-7,"x_max":753,"o":"m 693 440 q 637 268 673 350 q 547 123 602 186 q 420 22 493 60 q 256 -16 347 -16 q 106 23 163 -16 q 22 124 50 61 q -6 270 -5 187 q 12 441 -7 353 q 67 613 32 530 q 158 760 103 696 q 284 862 212 823 q 450 900 357 900 q 584 871 532 900 q 652 782 636 842 l 673 885 l 753 885 l 690 595 l 611 595 q 613 685 623 643 q 580 756 604 726 q 517 803 555 786 q 433 821 479 821 q 307 787 361 821 q 213 698 253 753 q 146 576 172 643 q 106 441 119 509 q 89 308 92 375 q 103 186 86 240 q 160 98 121 132 q 272 64 200 64 q 459 146 379 64 q 582 379 539 229 l 386 379 l 403 458 l 697 458 l 693 440 m 671 1072 q 461 994 575 994 q 285 1072 347 994 l 349 1124 q 475 1060 399 1060 q 629 1124 551 1060 l 671 1072 z "},"ğ":{"ha":758,"x_min":-71,"x_max":665,"o":"m 533 7 q 486 -109 519 -58 q 405 -195 453 -160 q 298 -249 357 -231 q 172 -268 239 -268 q 20 -233 78 -268 q -71 -131 -39 -197 l 3 -81 q 71 -155 22 -125 q 191 -184 119 -184 q 353 -136 286 -184 q 439 4 419 -87 l 454 72 q 249 -1 354 -1 q 33 83 100 -1 q -1 315 -33 168 q 48 448 14 387 q 134 553 83 509 q 249 622 184 597 q 387 647 314 647 q 483 629 439 647 q 559 575 528 611 l 572 632 l 665 632 l 533 7 m 542 485 q 466 549 510 529 q 370 568 422 568 q 268 549 314 568 q 186 495 221 529 q 127 415 151 461 q 92 315 103 368 q 110 142 68 207 q 265 78 153 78 q 371 98 318 78 q 472 163 424 118 l 542 485 m 616 820 q 407 741 521 741 q 231 820 293 741 l 294 871 q 421 808 345 808 q 575 871 497 808 l 616 820 z "},"Ġ":{"ha":758,"x_min":-7,"x_max":753,"o":"m 693 440 q 637 268 673 350 q 547 123 602 186 q 420 22 493 60 q 256 -16 347 -16 q 106 23 163 -16 q 22 124 50 61 q -6 270 -5 187 q 12 441 -7 353 q 67 613 32 530 q 158 760 103 696 q 284 862 212 823 q 450 900 357 900 q 584 871 532 900 q 652 782 636 842 l 673 885 l 753 885 l 690 595 l 611 595 q 613 685 623 643 q 580 756 604 726 q 517 803 555 786 q 433 821 479 821 q 307 787 361 821 q 213 698 253 753 q 146 576 172 643 q 106 441 119 509 q 89 308 92 375 q 103 186 86 240 q 160 98 121 132 q 272 64 200 64 q 459 146 379 64 q 582 379 539 229 l 386 379 l 403 458 l 697 458 l 693 440 m 528 1010 l 401 1010 l 428 1137 l 554 1137 l 528 1010 z "},"ġ":{"ha":758,"x_min":-71,"x_max":665,"o":"m 533 7 q 486 -109 519 -58 q 405 -195 453 -160 q 298 -249 357 -231 q 172 -268 239 -268 q 20 -233 78 -268 q -71 -131 -39 -197 l 3 -81 q 71 -155 22 -125 q 191 -184 119 -184 q 353 -136 286 -184 q 439 4 419 -87 l 454 72 q 249 -1 354 -1 q 33 83 100 -1 q -1 315 -33 168 q 48 448 14 387 q 134 553 83 509 q 249 622 184 597 q 387 647 314 647 q 483 629 439 647 q 559 575 528 611 l 572 632 l 665 632 l 533 7 m 542 485 q 466 549 510 529 q 370 568 422 568 q 268 549 314 568 q 186 495 221 529 q 127 415 151 461 q 92 315 103 368 q 110 142 68 207 q 265 78 153 78 q 371 98 318 78 q 472 163 424 118 l 542 485 m 473 758 l 347 758 l 374 885 l 500 885 l 473 758 z "},"Ģ":{"ha":758,"x_min":-7,"x_max":753,"o":"m 693 440 q 637 268 673 350 q 547 123 602 186 q 420 22 493 60 q 256 -16 347 -16 q 106 23 163 -16 q 22 124 50 61 q -6 270 -5 187 q 12 441 -7 353 q 67 613 32 530 q 158 760 103 696 q 284 862 212 823 q 450 900 357 900 q 584 871 532 900 q 652 782 636 842 l 673 885 l 753 885 l 690 595 l 611 595 q 613 685 623 643 q 580 756 604 726 q 517 803 555 786 q 433 821 479 821 q 307 787 361 821 q 213 698 253 753 q 146 576 172 643 q 106 441 119 509 q 89 308 92 375 q 103 186 86 240 q 160 98 121 132 q 272 64 200 64 q 459 146 379 64 q 582 379 539 229 l 386 379 l 403 458 l 697 458 l 693 440 m 332 -71 l 176 -253 l 90 -253 l 186 -71 l 332 -71 z "},"ģ":{"ha":758,"x_min":-71,"x_max":665,"o":"m 353 758 l 591 1011 l 657 1011 l 478 758 l 353 758 m 533 7 q 486 -109 519 -58 q 405 -195 453 -160 q 298 -249 357 -231 q 172 -268 239 -268 q 20 -233 78 -268 q -71 -131 -39 -197 l 3 -81 q 71 -155 22 -125 q 191 -184 119 -184 q 353 -136 286 -184 q 439 4 419 -87 l 454 72 q 249 -1 354 -1 q 33 83 100 -1 q -1 315 -33 168 q 48 448 14 387 q 134 553 83 509 q 249 622 184 597 q 387 647 314 647 q 483 629 439 647 q 559 575 528 611 l 572 632 l 665 632 l 533 7 m 542 485 q 466 549 510 529 q 370 568 422 568 q 268 549 314 568 q 186 495 221 529 q 127 415 151 461 q 92 315 103 368 q 110 142 68 207 q 265 78 153 78 q 371 98 318 78 q 472 163 424 118 l 542 485 z "},"Ĥ":{"ha":758,"x_min":-33,"x_max":720,"o":"m 532 0 l 439 0 l 525 410 l 146 410 l 60 0 l -33 0 l 154 885 l 248 885 l 163 489 l 542 489 l 627 885 l 720 885 l 532 0 m 661 985 l 615 939 l 481 1078 l 285 938 l 257 982 l 500 1179 l 661 985 z "},"ĥ":{"ha":758,"x_min":-33,"x_max":669,"o":"m 532 0 l 439 0 l 521 390 q 512 522 539 475 q 403 568 485 568 q 305 545 351 568 q 221 481 258 521 q 157 390 183 441 q 119 283 131 339 l 60 0 l -33 0 l 154 885 l 248 885 l 160 473 q 436 647 264 647 q 614 390 669 647 l 532 0 m 661 986 l 615 941 l 481 1080 l 285 939 l 257 983 l 500 1181 l 661 986 z "},"Ħ":{"ha":758,"x_min":-33,"x_max":817,"o":"m 689 743 l 817 743 l 802 667 l 673 667 l 532 0 l 439 0 l 525 410 l 146 410 l 60 0 l -33 0 l 109 667 l -18 667 l -3 743 l 123 743 l 154 885 l 248 885 l 216 743 l 596 743 l 627 885 l 720 885 l 689 743 m 542 489 l 581 667 l 201 667 l 163 489 l 542 489 z "},"ħ":{"ha":758,"x_min":-33,"x_max":669,"o":"m 532 0 l 439 0 l 521 390 q 512 522 539 475 q 403 568 485 568 q 305 545 351 568 q 221 481 258 521 q 157 390 183 441 q 119 283 131 339 l 60 0 l -33 0 l 111 682 l -16 682 l 1 758 l 127 758 l 154 885 l 248 885 l 221 758 l 347 758 l 330 682 l 204 682 l 160 473 q 436 647 264 647 q 614 390 669 647 l 532 0 z "},"Ĩ":{"ha":758,"x_min":60,"x_max":738,"o":"m 439 0 l 60 0 l 77 79 l 220 79 l 374 806 l 231 806 l 248 885 l 627 885 l 610 806 l 467 806 l 313 79 l 456 79 l 439 0 m 738 1085 q 549 978 654 978 q 488 990 510 978 q 450 1018 465 1003 q 419 1045 435 1032 q 378 1057 404 1057 q 249 982 309 1057 l 201 1014 q 391 1120 286 1120 q 451 1107 429 1120 q 489 1080 473 1095 q 520 1053 505 1065 q 562 1040 535 1040 q 690 1117 631 1040 l 738 1085 z "},"ĩ":{"ha":758,"x_min":60,"x_max":684,"o":"m 439 0 l 60 0 l 77 79 l 220 79 l 319 550 l 176 550 l 193 632 l 429 632 l 313 79 l 456 79 l 439 0 m 684 833 q 494 726 600 726 q 433 738 456 726 q 396 765 411 751 q 365 792 380 780 q 323 805 350 805 q 195 730 254 805 l 147 762 q 336 867 232 867 q 397 855 375 867 q 435 828 419 842 q 466 801 450 813 q 507 788 481 788 q 636 865 576 788 l 684 833 z "},"Ī":{"ha":758,"x_min":60,"x_max":668,"o":"m 439 0 l 60 0 l 77 79 l 220 79 l 374 806 l 231 806 l 248 885 l 627 885 l 610 806 l 467 806 l 313 79 l 456 79 l 439 0 m 652 1002 l 273 1002 l 289 1078 l 668 1078 l 652 1002 z "},"ī":{"ha":758,"x_min":60,"x_max":614,"o":"m 439 0 l 60 0 l 77 79 l 220 79 l 319 550 l 176 550 l 193 632 l 429 632 l 313 79 l 456 79 l 439 0 m 597 749 l 218 749 l 235 826 l 614 826 l 597 749 z "},"Ĭ":{"ha":758,"x_min":60,"x_max":671,"o":"m 439 0 l 60 0 l 77 79 l 220 79 l 374 806 l 231 806 l 248 885 l 627 885 l 610 806 l 467 806 l 313 79 l 456 79 l 439 0 m 671 1072 q 461 994 575 994 q 285 1072 347 994 l 349 1124 q 475 1060 399 1060 q 629 1124 551 1060 l 671 1072 z "},"ĭ":{"ha":758,"x_min":60,"x_max":616,"o":"m 439 0 l 60 0 l 77 79 l 220 79 l 319 550 l 176 550 l 193 632 l 429 632 l 313 79 l 456 79 l 439 0 m 616 820 q 407 741 521 741 q 231 820 293 741 l 294 871 q 421 808 345 808 q 575 871 497 808 l 616 820 z "},"Į":{"ha":758,"x_min":60,"x_max":627,"o":"m 478 -257 q 354 -215 393 -257 q 329 -103 314 -172 q 352 -45 336 -71 q 387 0 368 -20 l 60 0 l 77 79 l 220 79 l 374 806 l 231 806 l 248 885 l 627 885 l 610 806 l 467 806 l 313 79 l 456 79 l 439 0 q 387 -82 399 -31 q 408 -163 378 -131 q 492 -196 437 -196 l 478 -257 z "},"į":{"ha":758,"x_min":60,"x_max":500,"o":"m 478 -257 q 354 -215 393 -257 q 329 -103 314 -172 q 352 -45 336 -71 q 387 0 368 -20 l 60 0 l 77 79 l 220 79 l 319 553 l 176 553 l 193 632 l 429 632 l 313 79 l 456 79 l 439 0 q 387 -82 399 -31 q 408 -163 378 -131 q 492 -196 437 -196 l 478 -257 m 473 758 l 347 758 l 374 885 l 500 885 l 473 758 z "},"İ":{"ha":758,"x_min":60,"x_max":627,"o":"m 439 0 l 60 0 l 77 79 l 220 79 l 374 806 l 231 806 l 248 885 l 627 885 l 610 806 l 467 806 l 313 79 l 456 79 l 439 0 m 528 1010 l 401 1010 l 428 1137 l 554 1137 l 528 1010 z "},"Ĳ":{"ha":758,"x_min":-66,"x_max":753,"o":"m 82 -115 q 146 -172 107 -154 q 235 -189 186 -189 q 341 -164 297 -189 q 414 -100 385 -139 q 461 -13 443 -61 q 489 85 479 36 l 660 885 l 753 885 l 582 85 q 456 -176 547 -83 q 216 -268 364 -268 q 9 -180 74 -268 l 82 -115 m 313 0 l -66 0 l -50 79 l 94 79 l 248 806 l 104 806 l 121 885 l 500 885 l 484 806 l 340 806 l 186 79 l 330 79 l 313 0 z "},"ĳ":{"ha":758,"x_min":-66,"x_max":753,"o":"m 347 758 l 221 758 l 248 885 l 374 885 l 347 758 m 313 0 l -66 0 l -50 79 l 93 79 l 193 553 l 50 553 l 66 632 l 302 632 l 186 79 l 329 79 l 313 0 m 726 758 l 600 758 l 627 885 l 753 885 l 726 758 m 237 -268 q 35 -131 71 -268 l 115 -82 q 163 -161 129 -134 q 256 -189 197 -189 q 335 -176 301 -189 q 392 -138 370 -163 q 430 -79 415 -114 q 456 0 446 -45 l 572 553 l 429 553 l 446 632 l 682 632 l 549 0 q 443 -195 522 -122 q 237 -268 363 -268 z "},"Ĵ":{"ha":758,"x_min":-20,"x_max":720,"o":"m 603 338 q 476 77 567 170 q 237 -16 385 -16 q 53 46 119 -16 q -20 232 -14 109 l 68 262 q 122 108 74 153 q 254 64 170 64 q 361 89 317 64 q 435 153 406 114 q 482 240 464 192 q 510 338 500 289 l 627 885 l 720 885 l 603 338 m 661 985 l 615 939 l 481 1078 l 285 938 l 257 982 l 500 1179 l 661 985 z "},"ĵ":{"ha":758,"x_min":-90,"x_max":693,"o":"m 111 -268 q -90 -131 -56 -268 l -11 -82 q 37 -161 3 -134 q 129 -189 71 -189 q 209 -176 175 -189 q 266 -138 243 -163 q 304 -79 289 -114 q 329 0 319 -45 l 446 553 l 302 553 l 319 632 l 555 632 l 422 0 q 316 -195 396 -122 q 111 -268 236 -268 m 693 733 l 647 688 l 513 827 l 317 686 l 289 730 l 532 928 l 693 733 z "},"Ķ":{"ha":758,"x_min":-33,"x_max":749,"o":"m 561 0 l 447 0 l 244 433 l 129 329 l 60 0 l -33 0 l 154 885 l 248 885 l 155 454 l 627 885 l 749 885 l 319 498 l 561 0 m 332 -71 l 176 -253 l 90 -253 l 186 -71 l 332 -71 z "},"ķ":{"ha":758,"x_min":-33,"x_max":686,"o":"m 564 0 l 432 0 l 233 283 l 97 179 l 60 0 l -33 0 l 154 885 l 248 885 l 121 292 l 553 632 l 686 632 l 309 342 l 564 0 m 332 -71 l 176 -253 l 90 -253 l 186 -71 l 332 -71 z "},"ĸ":{"ha":758,"x_min":-33,"x_max":686,"o":"m 564 0 l 432 0 l 233 283 l 97 179 l 60 0 l -33 0 l 100 632 l 193 632 l 121 292 l 553 632 l 686 632 l 309 342 l 564 0 z "},"Ĺ":{"ha":758,"x_min":-33,"x_max":650,"o":"m 532 0 l -33 0 l 154 885 l 248 885 l 77 79 l 549 79 l 532 0 m 650 1103 l 322 938 l 306 982 l 621 1177 l 650 1103 z "},"ĺ":{"ha":758,"x_min":60,"x_max":650,"o":"m 439 0 l 60 0 l 77 79 l 220 79 l 374 806 l 231 806 l 248 885 l 484 885 l 313 79 l 456 79 l 439 0 m 650 1104 l 322 939 l 306 983 l 621 1178 l 650 1104 z "},"Ļ":{"ha":758,"x_min":-33,"x_max":549,"o":"m 532 0 l -33 0 l 154 885 l 248 885 l 77 79 l 549 79 l 532 0 m 332 -71 l 176 -253 l 90 -253 l 186 -71 l 332 -71 z "},"ļ":{"ha":758,"x_min":60,"x_max":484,"o":"m 439 0 l 60 0 l 77 79 l 220 79 l 374 806 l 231 806 l 248 885 l 484 885 l 313 79 l 456 79 l 439 0 m 332 -71 l 176 -253 l 90 -253 l 186 -71 l 332 -71 z "},"Ľ":{"ha":758,"x_min":-33,"x_max":665,"o":"m 532 0 l -33 0 l 154 885 l 248 885 l 77 79 l 549 79 l 532 0 m 665 885 l 542 570 l 474 570 l 541 885 l 665 885 z "},"ľ":{"ha":758,"x_min":60,"x_max":757,"o":"m 439 0 l 60 0 l 77 79 l 220 79 l 374 806 l 231 806 l 248 885 l 484 885 l 313 79 l 456 79 l 439 0 m 757 885 l 633 570 l 566 570 l 632 885 l 757 885 z "},"Ŀ":{"ha":758,"x_min":-33,"x_max":549,"o":"m 532 0 l -33 0 l 154 885 l 248 885 l 77 79 l 549 79 l 532 0 m 521 387 l 394 387 l 422 513 l 549 513 l 521 387 z "},"ŀ":{"ha":758,"x_min":60,"x_max":774,"o":"m 439 0 l 60 0 l 77 79 l 220 79 l 374 806 l 231 806 l 248 885 l 484 885 l 313 79 l 456 79 l 439 0 m 746 261 l 619 261 l 647 387 l 774 387 l 746 261 z "},"Ł":{"ha":758,"x_min":-104,"x_max":549,"o":"m 532 0 l -33 0 l 47 382 l -104 335 l -86 421 l 65 468 l 154 885 l 248 885 l 165 500 l 318 547 l 300 461 l 147 414 l 77 81 l 549 81 l 532 0 z "},"ł":{"ha":758,"x_min":60,"x_max":554,"o":"m 301 468 l 374 804 l 231 804 l 248 885 l 484 885 l 401 500 l 554 547 l 536 461 l 383 414 l 313 81 l 456 81 l 439 0 l 60 0 l 77 81 l 220 81 l 283 382 l 131 335 l 149 421 l 301 468 z "},"Ń":{"ha":758,"x_min":-33,"x_max":720,"o":"m 532 0 l 416 0 l 218 749 l 60 0 l -33 0 l 154 885 l 285 885 l 475 171 l 627 885 l 720 885 l 532 0 m 650 1103 l 322 938 l 306 982 l 621 1177 l 650 1103 z "},"ń":{"ha":758,"x_min":-33,"x_max":669,"o":"m 532 0 l 439 0 l 521 390 q 512 522 539 475 q 403 568 485 568 q 305 545 351 568 q 221 481 258 521 q 157 390 183 441 q 119 283 131 339 l 60 0 l -33 0 l 100 632 l 193 632 l 160 473 q 436 647 264 647 q 614 390 669 647 l 532 0 m 596 850 l 268 686 l 252 730 l 567 924 l 596 850 z "},"Ņ":{"ha":758,"x_min":-33,"x_max":720,"o":"m 532 0 l 416 0 l 218 749 l 60 0 l -33 0 l 154 885 l 285 885 l 475 171 l 627 885 l 720 885 l 532 0 m 332 -71 l 176 -253 l 90 -253 l 186 -71 l 332 -71 z "},"ņ":{"ha":758,"x_min":-33,"x_max":669,"o":"m 532 0 l 439 0 l 521 390 q 512 522 539 475 q 403 568 485 568 q 305 545 351 568 q 221 481 258 521 q 157 390 183 441 q 119 283 131 339 l 60 0 l -33 0 l 100 632 l 193 632 l 160 473 q 436 647 264 647 q 614 390 669 647 l 532 0 m 332 -71 l 176 -253 l 90 -253 l 186 -71 l 332 -71 z "},"Ň":{"ha":758,"x_min":-33,"x_max":720,"o":"m 532 0 l 416 0 l 218 749 l 60 0 l -33 0 l 154 885 l 285 885 l 475 171 l 627 885 l 720 885 l 532 0 m 692 1131 l 450 938 l 289 1133 l 335 1179 l 472 1039 l 665 1177 l 692 1131 z "},"ň":{"ha":758,"x_min":-33,"x_max":669,"o":"m 532 0 l 439 0 l 521 390 q 512 522 539 475 q 403 568 485 568 q 305 545 351 568 q 221 481 258 521 q 157 390 183 441 q 119 283 131 339 l 60 0 l -33 0 l 100 632 l 193 632 l 160 473 q 436 647 264 647 q 614 390 669 647 l 532 0 m 637 878 l 396 686 l 235 881 l 281 927 l 418 787 l 611 924 l 637 878 z "},"ŉ":{"ha":758,"x_min":-33,"x_max":669,"o":"m 532 0 l 439 0 l 521 390 q 512 522 539 475 q 403 568 485 568 q 305 545 351 568 q 221 481 258 521 q 157 390 183 441 q 119 283 131 339 l 60 0 l -33 0 l 100 632 l 193 632 l 160 473 q 436 647 264 647 q 614 390 669 647 l 532 0 m 287 1074 l 163 758 l 96 758 l 162 1074 l 287 1074 z "},"Ŋ":{"ha":758,"x_min":-33,"x_max":720,"o":"m 549 85 q 422 -176 514 -83 q 183 -268 330 -268 q -24 -180 40 -268 l 49 -115 q 113 -172 74 -154 q 201 -189 153 -189 q 280 -176 245 -189 q 342 -140 315 -163 q 389 -88 368 -118 q 424 -25 410 -58 l 218 749 l 60 0 l -33 0 l 154 885 l 285 885 l 475 171 l 627 885 l 720 885 l 549 85 z "},"ŋ":{"ha":758,"x_min":-33,"x_max":669,"o":"m 160 -170 q 196 -184 174 -179 q 239 -189 218 -189 q 319 -176 285 -189 q 376 -138 353 -163 q 414 -79 399 -114 q 439 0 429 -45 l 521 390 q 512 522 539 475 q 403 568 485 568 q 305 545 351 568 q 221 481 258 521 q 157 390 183 441 q 119 283 131 339 l 60 0 l -33 0 l 100 632 l 193 632 l 160 473 q 436 647 264 647 q 614 390 669 647 l 532 0 q 426 -195 505 -122 q 221 -268 346 -268 q 118 -250 160 -268 l 160 -170 z "},"Ō":{"ha":758,"x_min":-16,"x_max":701,"o":"m 682 441 q 627 270 663 353 q 538 124 591 187 q 412 23 485 61 q 245 -16 339 -16 q 96 23 153 -16 q 13 124 40 61 q -15 270 -14 187 q 4 441 -16 353 q 59 613 24 530 q 149 760 94 696 q 276 862 204 823 q 440 900 349 900 q 589 862 532 900 q 672 760 646 823 q 700 613 699 696 q 682 441 701 530 m 589 441 q 606 599 607 529 q 583 719 604 669 q 522 794 562 768 q 424 821 482 821 q 297 787 351 821 q 203 698 243 753 q 137 576 163 643 q 97 441 111 509 q 80 308 83 375 q 94 186 77 240 q 151 98 111 132 q 262 64 191 64 q 390 98 335 64 q 484 186 444 132 q 549 308 524 240 q 589 441 575 375 m 652 1002 l 273 1002 l 289 1078 l 668 1078 l 652 1002 z "},"ō":{"ha":758,"x_min":-31,"x_max":664,"o":"m 648 314 q 596 180 632 240 q 507 76 559 119 q 388 9 454 33 q 245 -16 321 -16 q 117 9 172 -16 q 26 76 61 33 q -19 180 -8 119 q -14 314 -31 240 q 38 448 1 386 q 128 554 75 510 q 247 622 180 597 q 387 647 314 647 q 518 622 463 647 q 608 554 574 597 q 653 448 643 510 q 648 314 664 386 m 555 314 q 561 414 567 368 q 530 494 554 460 q 465 549 505 529 q 370 568 425 568 q 265 549 314 568 q 179 494 216 529 q 116 414 142 460 q 79 314 90 368 q 73 214 66 260 q 103 135 79 168 q 166 83 126 102 q 262 64 207 64 q 367 83 318 64 q 453 135 415 102 q 517 214 492 168 q 555 314 543 260 m 597 749 l 218 749 l 235 826 l 614 826 l 597 749 z "},"Ŏ":{"ha":758,"x_min":-16,"x_max":701,"o":"m 682 441 q 627 270 663 353 q 538 124 591 187 q 412 23 485 61 q 245 -16 339 -16 q 96 23 153 -16 q 13 124 40 61 q -15 270 -14 187 q 4 441 -16 353 q 59 613 24 530 q 149 760 94 696 q 276 862 204 823 q 440 900 349 900 q 589 862 532 900 q 672 760 646 823 q 700 613 699 696 q 682 441 701 530 m 589 441 q 606 599 607 529 q 583 719 604 669 q 522 794 562 768 q 424 821 482 821 q 297 787 351 821 q 203 698 243 753 q 137 576 163 643 q 97 441 111 509 q 80 308 83 375 q 94 186 77 240 q 151 98 111 132 q 262 64 191 64 q 390 98 335 64 q 484 186 444 132 q 549 308 524 240 q 589 441 575 375 m 671 1072 q 461 994 575 994 q 285 1072 347 994 l 349 1124 q 475 1060 399 1060 q 629 1124 551 1060 l 671 1072 z "},"ŏ":{"ha":758,"x_min":-31,"x_max":664,"o":"m 648 314 q 596 180 632 240 q 507 76 559 119 q 388 9 454 33 q 245 -16 321 -16 q 117 9 172 -16 q 26 76 61 33 q -19 180 -8 119 q -14 314 -31 240 q 38 448 1 386 q 128 554 75 510 q 247 622 180 597 q 387 647 314 647 q 518 622 463 647 q 608 554 574 597 q 653 448 643 510 q 648 314 664 386 m 555 314 q 561 414 567 368 q 530 494 554 460 q 465 549 505 529 q 370 568 425 568 q 265 549 314 568 q 179 494 216 529 q 116 414 142 460 q 79 314 90 368 q 73 214 66 260 q 103 135 79 168 q 166 83 126 102 q 262 64 207 64 q 367 83 318 64 q 453 135 415 102 q 517 214 492 168 q 555 314 543 260 m 616 820 q 407 741 521 741 q 231 820 293 741 l 294 871 q 421 808 345 808 q 575 871 497 808 l 616 820 z "},"Ő":{"ha":758,"x_min":-16,"x_max":778,"o":"m 682 441 q 627 270 663 353 q 538 124 591 187 q 412 23 485 61 q 245 -16 339 -16 q 96 23 153 -16 q 13 124 40 61 q -15 270 -14 187 q 4 441 -16 353 q 59 613 24 530 q 149 760 94 696 q 276 862 204 823 q 440 900 349 900 q 589 862 532 900 q 672 760 646 823 q 700 613 699 696 q 682 441 701 530 m 589 441 q 606 599 607 529 q 583 719 604 669 q 522 794 562 768 q 424 821 482 821 q 297 787 351 821 q 203 698 243 753 q 137 576 163 643 q 97 441 111 509 q 80 308 83 375 q 94 186 77 240 q 151 98 111 132 q 262 64 191 64 q 390 98 335 64 q 484 186 444 132 q 549 308 524 240 q 589 441 575 375 m 597 946 l 501 946 l 652 1200 l 778 1200 l 597 946 m 345 946 l 250 946 l 399 1200 l 525 1200 l 345 946 z "},"ő":{"ha":758,"x_min":-31,"x_max":724,"o":"m 648 314 q 596 180 632 240 q 507 76 559 119 q 388 9 454 33 q 245 -16 321 -16 q 117 9 172 -16 q 26 76 61 33 q -19 180 -8 119 q -14 314 -31 240 q 38 448 1 386 q 128 554 75 510 q 247 622 180 597 q 387 647 314 647 q 518 622 463 647 q 608 554 574 597 q 653 448 643 510 q 648 314 664 386 m 555 314 q 561 414 567 368 q 530 494 554 460 q 465 549 505 529 q 370 568 425 568 q 265 549 314 568 q 179 494 216 529 q 116 414 142 460 q 79 314 90 368 q 73 214 66 260 q 103 135 79 168 q 166 83 126 102 q 262 64 207 64 q 367 83 318 64 q 453 135 415 102 q 517 214 492 168 q 555 314 543 260 m 543 694 l 447 694 l 597 948 l 724 948 l 543 694 m 290 694 l 196 694 l 345 948 l 471 948 l 290 694 z "},"Ŕ":{"ha":758,"x_min":-33,"x_max":725,"o":"m 574 0 l 456 0 l 278 379 l 140 379 l 60 0 l -33 0 l 154 885 l 446 885 q 658 822 591 885 q 697 632 725 758 q 657 532 686 576 q 588 456 628 488 q 496 406 547 425 q 387 383 444 387 l 574 0 m 602 632 q 573 764 621 722 q 429 806 526 806 l 231 806 l 157 458 l 355 458 q 517 499 453 458 q 602 632 582 541 m 650 1103 l 322 938 l 306 982 l 621 1177 l 650 1103 z "},"ŕ":{"ha":758,"x_min":-66,"x_max":692,"o":"m 646 543 q 530 568 600 568 q 424 544 473 568 q 335 480 375 519 q 268 389 296 440 q 229 283 240 338 l 186 79 l 329 79 l 313 0 l -66 0 l -50 79 l 93 79 l 193 553 l 50 553 l 66 632 l 302 632 l 269 473 q 549 647 371 647 q 631 641 597 647 q 692 619 665 635 l 646 543 m 596 851 l 268 686 l 252 730 l 567 925 l 596 851 z "},"Ŗ":{"ha":758,"x_min":-33,"x_max":725,"o":"m 574 0 l 456 0 l 278 379 l 140 379 l 60 0 l -33 0 l 154 885 l 446 885 q 658 822 591 885 q 697 632 725 758 q 657 532 686 576 q 588 456 628 488 q 496 406 547 425 q 387 383 444 387 l 574 0 m 602 632 q 573 764 621 722 q 429 806 526 806 l 231 806 l 157 458 l 355 458 q 517 499 453 458 q 602 632 582 541 m 332 -71 l 176 -253 l 90 -253 l 186 -71 l 332 -71 z "},"ŗ":{"ha":758,"x_min":-66,"x_max":692,"o":"m 646 543 q 530 568 600 568 q 424 544 473 568 q 335 480 375 519 q 268 389 296 440 q 229 283 240 338 l 186 79 l 329 79 l 313 0 l -66 0 l -50 79 l 93 79 l 193 553 l 50 553 l 66 632 l 302 632 l 269 473 q 549 647 371 647 q 631 641 597 647 q 692 619 665 635 l 646 543 m 332 -71 l 176 -253 l 90 -253 l 186 -71 l 332 -71 z "},"Ř":{"ha":758,"x_min":-33,"x_max":725,"o":"m 574 0 l 456 0 l 278 379 l 140 379 l 60 0 l -33 0 l 154 885 l 446 885 q 658 822 591 885 q 697 632 725 758 q 657 532 686 576 q 588 456 628 488 q 496 406 547 425 q 387 383 444 387 l 574 0 m 602 632 q 573 764 621 722 q 429 806 526 806 l 231 806 l 157 458 l 355 458 q 517 499 453 458 q 602 632 582 541 m 692 1131 l 450 938 l 289 1133 l 335 1179 l 472 1039 l 665 1177 l 692 1131 z "},"ř":{"ha":758,"x_min":-66,"x_max":692,"o":"m 646 543 q 530 568 600 568 q 424 544 473 568 q 335 480 375 519 q 268 389 296 440 q 229 283 240 338 l 186 79 l 329 79 l 313 0 l -66 0 l -50 79 l 93 79 l 193 553 l 50 553 l 66 632 l 302 632 l 269 473 q 549 647 371 647 q 631 641 597 647 q 692 619 665 635 l 646 543 m 637 879 l 396 686 l 235 882 l 281 928 l 418 787 l 611 925 l 637 879 z "},"Ś":{"ha":758,"x_min":-50,"x_max":708,"o":"m 591 231 q 547 130 579 175 q 468 52 514 85 q 369 2 422 20 q 261 -16 315 -16 q 130 12 186 -16 q 49 94 74 40 l 29 0 l -50 0 l 7 269 l 86 269 q 89 186 77 224 q 129 121 102 149 q 194 79 155 94 q 278 64 233 64 q 353 75 317 64 q 418 107 389 86 q 468 157 447 127 q 497 225 489 187 q 495 298 507 268 q 455 351 482 329 q 392 388 428 372 q 318 418 355 403 q 230 453 273 435 q 153 500 186 472 q 106 570 121 529 q 104 672 92 611 q 149 769 117 726 q 224 840 180 811 q 320 885 268 869 q 425 900 372 900 q 538 873 489 900 q 607 793 587 847 l 627 885 l 708 885 l 654 632 l 572 632 q 571 707 581 672 q 539 767 562 742 q 483 806 517 791 q 408 821 449 821 q 338 812 372 821 q 276 786 304 804 q 227 740 248 768 q 197 672 205 711 q 203 613 191 637 q 240 570 215 589 q 300 536 265 551 q 372 505 335 521 q 463 466 418 488 q 541 414 509 444 q 590 339 574 383 q 591 231 606 294 m 650 1103 l 322 938 l 306 982 l 621 1177 l 650 1103 z "},"ś":{"ha":758,"x_min":-58,"x_max":635,"o":"m 585 175 q 538 83 574 119 q 454 24 503 46 q 349 -6 406 3 q 241 -16 293 -16 q 76 9 155 -16 q -58 75 -4 35 l 0 155 q 123 87 61 111 q 258 64 186 64 q 492 172 468 64 q 483 215 497 199 q 442 242 469 232 q 379 259 415 253 q 302 271 343 265 q 201 288 252 278 q 113 319 151 298 q 55 373 74 339 q 47 463 36 407 q 90 545 58 510 q 166 602 121 579 q 268 636 211 625 q 383 647 325 647 q 528 628 467 647 q 635 572 590 608 l 582 500 q 484 553 536 538 q 366 568 431 568 q 300 563 336 568 q 231 546 264 558 q 172 513 197 533 q 140 463 147 493 q 149 420 135 436 q 190 394 163 404 q 253 377 216 383 q 329 366 289 371 q 430 348 379 358 q 519 318 481 338 q 578 264 558 298 q 585 175 597 231 m 596 851 l 268 686 l 252 730 l 567 925 l 596 851 z "},"Ŝ":{"ha":758,"x_min":-50,"x_max":708,"o":"m 591 231 q 547 130 579 175 q 468 52 514 85 q 369 2 422 20 q 261 -16 315 -16 q 130 12 186 -16 q 49 94 74 40 l 29 0 l -50 0 l 7 269 l 86 269 q 89 186 77 224 q 129 121 102 149 q 194 79 155 94 q 278 64 233 64 q 353 75 317 64 q 418 107 389 86 q 468 157 447 127 q 497 225 489 187 q 495 298 507 268 q 455 351 482 329 q 392 388 428 372 q 318 418 355 403 q 230 453 273 435 q 153 500 186 472 q 106 570 121 529 q 104 672 92 611 q 149 769 117 726 q 224 840 180 811 q 320 885 268 869 q 425 900 372 900 q 538 873 489 900 q 607 793 587 847 l 627 885 l 708 885 l 654 632 l 572 632 q 571 707 581 672 q 539 767 562 742 q 483 806 517 791 q 408 821 449 821 q 338 812 372 821 q 276 786 304 804 q 227 740 248 768 q 197 672 205 711 q 203 613 191 637 q 240 570 215 589 q 300 536 265 551 q 372 505 335 521 q 463 466 418 488 q 541 414 509 444 q 590 339 574 383 q 591 231 606 294 m 661 985 l 615 939 l 481 1078 l 285 938 l 257 982 l 500 1179 l 661 985 z "},"ŝ":{"ha":758,"x_min":-58,"x_max":635,"o":"m 585 175 q 538 83 574 119 q 454 24 503 46 q 349 -6 406 3 q 241 -16 293 -16 q 76 9 155 -16 q -58 75 -4 35 l 0 155 q 123 87 61 111 q 258 64 186 64 q 492 172 468 64 q 483 215 497 199 q 442 242 469 232 q 379 259 415 253 q 302 271 343 265 q 201 288 252 278 q 113 319 151 298 q 55 373 74 339 q 47 463 36 407 q 90 545 58 510 q 166 602 121 579 q 268 636 211 625 q 383 647 325 647 q 528 628 467 647 q 635 572 590 608 l 582 500 q 484 553 536 538 q 366 568 431 568 q 300 563 336 568 q 231 546 264 558 q 172 513 197 533 q 140 463 147 493 q 149 420 135 436 q 190 394 163 404 q 253 377 216 383 q 329 366 289 371 q 430 348 379 358 q 519 318 481 338 q 578 264 558 298 q 585 175 597 231 m 607 733 l 561 688 l 427 827 l 231 686 l 203 730 l 446 928 l 607 733 z "},"Ş":{"ha":758,"x_min":-50,"x_max":708,"o":"m 591 231 q 553 139 581 180 q 488 67 526 98 q 404 16 450 36 q 310 -11 358 -4 l 306 -28 q 216 -187 285 -127 q 43 -252 143 -252 l 60 -172 q 228 -28 197 -172 l 231 -14 q 119 19 167 -8 q 49 94 71 46 l 29 0 l -50 0 l 7 269 l 86 269 q 89 186 77 224 q 129 121 102 149 q 194 79 155 94 q 278 64 233 64 q 353 75 317 64 q 418 107 389 86 q 468 157 447 127 q 497 225 489 187 q 495 298 507 268 q 455 351 482 329 q 392 388 428 372 q 318 418 355 403 q 230 453 273 435 q 153 500 186 472 q 106 570 121 529 q 104 672 92 611 q 149 769 117 726 q 224 840 180 811 q 320 885 268 869 q 425 900 372 900 q 538 873 489 900 q 607 793 587 847 l 627 885 l 708 885 l 654 632 l 572 632 q 571 707 581 672 q 539 767 562 742 q 483 806 517 791 q 408 821 449 821 q 338 812 372 821 q 276 786 304 804 q 227 740 248 768 q 197 672 205 711 q 203 613 191 637 q 240 570 215 589 q 300 536 265 551 q 372 505 335 521 q 463 466 418 488 q 541 414 509 444 q 590 339 574 383 q 591 231 606 294 z "},"ş":{"ha":758,"x_min":-58,"x_max":635,"o":"m 585 175 q 548 96 575 129 q 483 40 521 62 q 399 6 444 18 q 310 -11 354 -7 l 306 -28 q 216 -187 285 -127 q 43 -252 143 -252 l 60 -172 q 228 -28 197 -172 l 231 -16 q 72 11 149 -12 q -58 75 -5 35 l 0 155 q 123 87 61 111 q 258 64 186 64 q 492 172 468 64 q 483 215 497 199 q 442 242 469 232 q 379 259 415 253 q 302 271 343 265 q 201 288 252 278 q 113 319 151 298 q 55 373 74 339 q 47 463 36 407 q 90 545 58 510 q 166 602 121 579 q 268 636 211 625 q 383 647 325 647 q 528 628 467 647 q 635 572 590 608 l 582 500 q 484 553 536 538 q 366 568 431 568 q 300 563 336 568 q 231 546 264 558 q 172 513 197 533 q 140 463 147 493 q 149 420 135 436 q 190 394 163 404 q 253 377 216 383 q 329 366 289 371 q 430 348 379 358 q 519 318 481 338 q 578 264 558 298 q 585 175 597 231 z "},"Š":{"ha":758,"x_min":-50,"x_max":708,"o":"m 591 231 q 547 130 579 175 q 468 52 514 85 q 369 2 422 20 q 261 -16 315 -16 q 130 12 186 -16 q 49 94 74 40 l 29 0 l -50 0 l 7 269 l 86 269 q 89 186 77 224 q 129 121 102 149 q 194 79 155 94 q 278 64 233 64 q 353 75 317 64 q 418 107 389 86 q 468 157 447 127 q 497 225 489 187 q 495 298 507 268 q 455 351 482 329 q 392 388 428 372 q 318 418 355 403 q 230 453 273 435 q 153 500 186 472 q 106 570 121 529 q 104 672 92 611 q 149 769 117 726 q 224 840 180 811 q 320 885 268 869 q 425 900 372 900 q 538 873 489 900 q 607 793 587 847 l 627 885 l 708 885 l 654 632 l 572 632 q 571 707 581 672 q 539 767 562 742 q 483 806 517 791 q 408 821 449 821 q 338 812 372 821 q 276 786 304 804 q 227 740 248 768 q 197 672 205 711 q 203 613 191 637 q 240 570 215 589 q 300 536 265 551 q 372 505 335 521 q 463 466 418 488 q 541 414 509 444 q 590 339 574 383 q 591 231 606 294 m 692 1131 l 450 938 l 289 1133 l 335 1179 l 472 1039 l 665 1177 l 692 1131 z "},"š":{"ha":758,"x_min":-58,"x_max":637,"o":"m 585 175 q 538 83 574 119 q 454 24 503 46 q 349 -6 406 3 q 241 -16 293 -16 q 76 9 155 -16 q -58 75 -4 35 l 0 155 q 123 87 61 111 q 258 64 186 64 q 492 172 468 64 q 483 215 497 199 q 442 242 469 232 q 379 259 415 253 q 302 271 343 265 q 201 288 252 278 q 113 319 151 298 q 55 373 74 339 q 47 463 36 407 q 90 545 58 510 q 166 602 121 579 q 268 636 211 625 q 383 647 325 647 q 528 628 467 647 q 635 572 590 608 l 582 500 q 484 553 536 538 q 366 568 431 568 q 300 563 336 568 q 231 546 264 558 q 172 513 197 533 q 140 463 147 493 q 149 420 135 436 q 190 394 163 404 q 253 377 216 383 q 329 366 289 371 q 430 348 379 358 q 519 318 481 338 q 578 264 558 298 q 585 175 597 231 m 637 879 l 396 686 l 235 882 l 281 928 l 418 787 l 611 925 l 637 879 z "},"Ţ":{"ha":758,"x_min":57,"x_max":753,"o":"m 689 586 l 610 586 l 657 806 l 467 806 l 313 79 l 456 79 l 439 0 l 60 0 l 77 79 l 220 79 l 374 806 l 183 806 l 136 586 l 57 586 l 121 885 l 753 885 l 689 586 m 332 -71 l 176 -253 l 90 -253 l 186 -71 l 332 -71 z "},"ţ":{"ha":758,"x_min":50,"x_max":614,"o":"m 614 201 q 502 43 582 102 q 321 -16 422 -16 q 223 3 265 -16 q 156 54 182 21 q 122 132 131 86 q 125 232 114 178 l 193 553 l 50 553 l 66 632 l 210 632 l 264 885 l 357 885 l 302 632 l 572 632 l 555 553 l 286 553 l 218 232 q 215 167 211 197 q 235 113 220 136 q 276 77 250 90 q 338 64 301 64 q 463 107 407 64 q 541 218 518 150 l 614 201 m 332 -71 l 176 -253 l 90 -253 l 186 -71 l 332 -71 z "},"Ť":{"ha":758,"x_min":57,"x_max":753,"o":"m 689 586 l 610 586 l 657 806 l 467 806 l 313 79 l 456 79 l 439 0 l 60 0 l 77 79 l 220 79 l 374 806 l 183 806 l 136 586 l 57 586 l 121 885 l 753 885 l 689 586 m 692 1131 l 450 938 l 289 1133 l 335 1179 l 472 1039 l 665 1177 l 692 1131 z "},"ť":{"ha":758,"x_min":50,"x_max":778,"o":"m 614 201 q 502 43 582 102 q 321 -16 422 -16 q 223 3 265 -16 q 156 54 182 21 q 122 132 131 86 q 125 232 114 178 l 193 553 l 50 553 l 66 632 l 210 632 l 264 885 l 357 885 l 302 632 l 572 632 l 555 553 l 286 553 l 218 232 q 215 167 211 197 q 235 113 220 136 q 276 77 250 90 q 338 64 301 64 q 463 107 407 64 q 541 218 518 150 l 614 201 m 778 1012 l 654 696 l 587 696 l 653 1012 l 778 1012 z "},"Ŧ":{"ha":758,"x_min":57,"x_max":753,"o":"m 526 412 l 383 412 l 313 79 l 456 79 l 439 0 l 60 0 l 77 79 l 220 79 l 290 412 l 147 412 l 163 489 l 306 489 l 374 806 l 183 806 l 136 586 l 57 586 l 121 885 l 753 885 l 689 586 l 610 586 l 657 806 l 467 806 l 399 489 l 542 489 l 526 412 z "},"ŧ":{"ha":758,"x_min":-3,"x_max":614,"o":"m 376 302 l 233 302 l 218 232 q 215 167 211 197 q 235 113 220 136 q 276 77 250 90 q 338 64 301 64 q 463 107 407 64 q 541 218 518 150 l 614 201 q 502 43 582 102 q 321 -16 422 -16 q 223 3 265 -16 q 156 54 182 21 q 122 132 131 86 q 125 232 114 178 l 140 302 l -3 302 l 14 379 l 157 379 l 193 553 l 50 553 l 66 632 l 210 632 l 264 885 l 357 885 l 302 632 l 572 632 l 555 553 l 286 553 l 250 379 l 393 379 l 376 302 z "},"Ũ":{"ha":758,"x_min":17,"x_max":738,"o":"m 599 315 q 553 179 582 240 q 479 75 524 118 q 376 8 435 32 q 244 -16 318 -16 q 122 8 171 -16 q 50 75 74 32 q 21 180 25 118 q 33 317 17 241 l 154 885 l 248 885 l 126 315 q 115 231 118 275 q 126 149 113 186 q 170 88 139 113 q 261 64 201 64 q 364 88 321 64 q 435 149 407 113 q 480 231 464 186 q 505 315 497 275 l 627 885 l 720 885 l 599 315 m 738 1085 q 549 978 654 978 q 488 990 510 978 q 450 1018 465 1003 q 419 1045 435 1032 q 378 1057 404 1057 q 249 982 309 1057 l 201 1014 q 391 1120 286 1120 q 451 1107 429 1120 q 489 1080 473 1095 q 520 1053 505 1065 q 562 1040 535 1040 q 690 1117 631 1040 l 738 1085 z "},"ũ":{"ha":758,"x_min":-37,"x_max":684,"o":"m 100 632 l 193 632 l 110 241 q 119 110 93 157 q 228 64 146 64 q 327 87 279 64 q 411 151 374 111 q 474 242 449 191 q 513 349 500 293 l 572 632 l 665 632 l 532 0 l 439 0 l 472 158 q 196 -16 368 -16 q 17 241 -37 -16 l 100 632 m 684 833 q 494 726 600 726 q 433 739 456 726 q 396 766 411 751 q 365 793 380 781 q 323 806 350 806 q 195 730 254 806 l 147 762 q 336 868 232 868 q 397 856 375 868 q 435 828 419 843 q 466 801 450 814 q 507 789 481 789 q 636 865 576 789 l 684 833 z "},"Ū":{"ha":758,"x_min":17,"x_max":720,"o":"m 599 315 q 553 179 582 240 q 479 75 524 118 q 376 8 435 32 q 244 -16 318 -16 q 122 8 171 -16 q 50 75 74 32 q 21 180 25 118 q 33 317 17 241 l 154 885 l 248 885 l 126 315 q 115 231 118 275 q 126 149 113 186 q 170 88 139 113 q 261 64 201 64 q 364 88 321 64 q 435 149 407 113 q 480 231 464 186 q 505 315 497 275 l 627 885 l 720 885 l 599 315 m 652 1002 l 273 1002 l 289 1078 l 668 1078 l 652 1002 z "},"ū":{"ha":758,"x_min":-37,"x_max":665,"o":"m 100 632 l 193 632 l 110 241 q 119 110 93 157 q 228 64 146 64 q 327 87 279 64 q 411 151 374 111 q 474 242 449 191 q 513 349 500 293 l 572 632 l 665 632 l 532 0 l 439 0 l 472 158 q 196 -16 368 -16 q 17 241 -37 -16 l 100 632 m 597 750 l 218 750 l 235 827 l 614 827 l 597 750 z "},"Ŭ":{"ha":758,"x_min":17,"x_max":720,"o":"m 599 315 q 553 179 582 240 q 479 75 524 118 q 376 8 435 32 q 244 -16 318 -16 q 122 8 171 -16 q 50 75 74 32 q 21 180 25 118 q 33 317 17 241 l 154 885 l 248 885 l 126 315 q 115 231 118 275 q 126 149 113 186 q 170 88 139 113 q 261 64 201 64 q 364 88 321 64 q 435 149 407 113 q 480 231 464 186 q 505 315 497 275 l 627 885 l 720 885 l 599 315 m 671 1072 q 461 994 575 994 q 285 1072 347 994 l 349 1124 q 475 1060 399 1060 q 629 1124 551 1060 l 671 1072 z "},"ŭ":{"ha":758,"x_min":-37,"x_max":665,"o":"m 100 632 l 193 632 l 110 241 q 119 110 93 157 q 228 64 146 64 q 327 87 279 64 q 411 151 374 111 q 474 242 449 191 q 513 349 500 293 l 572 632 l 665 632 l 532 0 l 439 0 l 472 158 q 196 -16 368 -16 q 17 241 -37 -16 l 100 632 m 616 821 q 407 742 521 742 q 231 821 293 742 l 294 872 q 421 808 345 808 q 575 872 497 808 l 616 821 z "},"Ů":{"ha":758,"x_min":17,"x_max":720,"o":"m 599 315 q 553 179 582 240 q 479 75 524 118 q 376 8 435 32 q 244 -16 318 -16 q 122 8 171 -16 q 50 75 74 32 q 21 180 25 118 q 33 317 17 241 l 154 885 l 248 885 l 126 315 q 115 231 118 275 q 126 149 113 186 q 170 88 139 113 q 261 64 201 64 q 364 88 321 64 q 435 149 407 113 q 480 231 464 186 q 505 315 497 275 l 627 885 l 720 885 l 599 315 m 332 1104 q 356 1164 339 1137 q 399 1213 374 1192 q 455 1245 425 1234 q 517 1257 485 1257 q 574 1245 549 1257 q 616 1213 600 1234 q 638 1164 632 1192 q 637 1104 644 1137 q 613 1044 631 1072 q 570 996 596 1017 q 515 963 545 975 q 453 951 485 951 q 395 963 421 951 q 354 996 370 975 q 331 1044 338 1017 q 332 1104 325 1072 m 393 1104 q 406 1040 385 1067 q 465 1013 428 1013 q 536 1040 503 1013 q 576 1104 568 1067 q 563 1169 585 1142 q 505 1196 542 1196 q 434 1169 467 1196 q 393 1104 401 1142 z "},"ů":{"ha":758,"x_min":-37,"x_max":665,"o":"m 100 632 l 193 632 l 110 241 q 119 110 93 157 q 228 64 146 64 q 327 87 279 64 q 411 151 374 111 q 474 242 449 191 q 513 349 500 293 l 572 632 l 665 632 l 532 0 l 439 0 l 472 158 q 196 -16 368 -16 q 17 241 -37 -16 l 100 632 m 278 852 q 302 912 285 885 q 345 961 319 940 q 401 994 371 982 q 463 1006 431 1006 q 520 994 494 1006 q 562 961 546 982 q 584 912 578 940 q 583 852 590 885 q 559 793 576 821 q 516 744 542 765 q 460 712 490 724 q 399 700 431 700 q 341 712 367 700 q 299 744 315 724 q 277 793 283 765 q 278 852 271 821 m 339 852 q 352 788 330 815 q 411 761 374 761 q 481 788 449 761 q 522 852 514 815 q 509 918 530 890 q 450 945 488 945 q 380 918 412 945 q 339 852 347 890 z "},"Ű":{"ha":758,"x_min":17,"x_max":778,"o":"m 599 315 q 553 179 582 240 q 479 75 524 118 q 376 8 435 32 q 244 -16 318 -16 q 122 8 171 -16 q 50 75 74 32 q 21 180 25 118 q 33 317 17 241 l 154 885 l 248 885 l 126 315 q 115 231 118 275 q 126 149 113 186 q 170 88 139 113 q 261 64 201 64 q 364 88 321 64 q 435 149 407 113 q 480 231 464 186 q 505 315 497 275 l 627 885 l 720 885 l 599 315 m 597 946 l 501 946 l 652 1200 l 778 1200 l 597 946 m 345 946 l 250 946 l 399 1200 l 525 1200 l 345 946 z "},"ű":{"ha":758,"x_min":-37,"x_max":724,"o":"m 100 632 l 193 632 l 110 241 q 119 110 93 157 q 228 64 146 64 q 327 87 279 64 q 411 151 374 111 q 474 242 449 191 q 513 349 500 293 l 572 632 l 665 632 l 532 0 l 439 0 l 472 158 q 196 -16 368 -16 q 17 241 -37 -16 l 100 632 m 543 694 l 447 694 l 597 949 l 724 949 l 543 694 m 290 694 l 196 694 l 345 949 l 471 949 l 290 694 z "},"Ų":{"ha":758,"x_min":17,"x_max":720,"o":"m 393 -257 q 269 -215 309 -257 q 244 -103 229 -172 q 262 -54 250 -75 q 290 -12 273 -32 q 267 -15 278 -14 q 244 -16 256 -16 q 122 8 171 -16 q 50 75 74 32 q 21 180 25 118 q 33 317 17 241 l 154 885 l 248 885 l 126 315 q 115 231 118 275 q 126 149 113 186 q 170 88 139 113 q 261 64 201 64 q 364 88 321 64 q 435 149 407 113 q 480 231 464 186 q 505 315 497 275 l 627 885 l 720 885 l 599 315 q 512 111 572 193 q 354 0 452 29 q 302 -82 314 -31 q 323 -163 293 -131 q 407 -196 353 -196 l 393 -257 z "},"ų":{"ha":758,"x_min":-37,"x_max":665,"o":"m 571 -257 q 447 -215 486 -257 q 422 -103 407 -172 q 445 -45 429 -71 q 481 0 461 -20 l 439 0 l 472 158 q 196 -16 368 -16 q 17 241 -37 -16 l 100 632 l 193 632 l 110 241 q 119 110 93 157 q 228 64 146 64 q 327 87 279 64 q 411 151 374 111 q 474 242 449 191 q 513 349 500 293 l 572 632 l 665 632 l 532 0 q 481 -82 492 -31 q 500 -163 471 -131 q 585 -196 530 -196 l 571 -257 z "},"Ŵ":{"ha":758,"x_min":49,"x_max":796,"o":"m 796 885 l 449 0 l 339 0 l 340 432 l 157 0 l 49 0 l 78 885 l 176 885 l 147 157 l 336 632 l 428 632 l 416 157 l 696 885 l 796 885 m 661 985 l 615 939 l 481 1078 l 285 938 l 257 982 l 500 1179 l 661 985 z "},"ŵ":{"ha":758,"x_min":45,"x_max":720,"o":"m 720 632 l 458 0 l 350 0 l 346 464 l 153 0 l 45 0 l 49 632 l 147 632 l 132 126 l 338 632 l 429 632 l 424 126 l 623 632 l 720 632 m 607 733 l 561 688 l 427 827 l 231 686 l 203 730 l 446 928 l 607 733 z "},"Ŷ":{"ha":758,"x_min":60,"x_max":766,"o":"m 750 806 l 677 806 l 376 382 l 313 79 l 456 79 l 439 0 l 60 0 l 77 79 l 220 79 l 283 382 l 163 806 l 90 806 l 107 885 l 357 885 l 340 806 l 267 806 l 350 472 l 574 806 l 500 806 l 517 885 l 766 885 l 750 806 m 661 985 l 615 939 l 481 1078 l 285 938 l 257 982 l 500 1179 l 661 985 z "},"ŷ":{"ha":758,"x_min":-119,"x_max":718,"o":"m 718 632 l 208 -160 q 115 -247 168 -227 q 4 -268 62 -268 q -119 -244 -61 -268 l -85 -164 q -27 -183 -57 -178 q 22 -189 3 -189 q 90 -167 68 -189 q 131 -114 111 -144 l 191 -18 l 46 632 l 155 632 l 267 79 l 607 632 l 718 632 m 607 733 l 561 688 l 427 827 l 231 686 l 203 730 l 446 928 l 607 733 z "},"Ź":{"ha":758,"x_min":-33,"x_max":708,"o":"m 534 0 l -33 0 l -17 79 l 582 806 l 216 806 l 171 589 l 92 589 l 154 885 l 708 885 l 692 806 l 97 79 l 472 79 l 518 300 l 597 300 l 534 0 m 650 1104 l 322 939 l 306 983 l 621 1178 l 650 1104 z "},"ź":{"ha":758,"x_min":-35,"x_max":653,"o":"m 534 0 l -35 0 l -18 79 l 513 553 l 163 553 l 126 379 l 47 379 l 100 632 l 653 632 l 636 553 l 106 79 l 472 79 l 509 253 l 587 253 l 534 0 m 596 850 l 268 686 l 252 730 l 567 924 l 596 850 z "},"Ż":{"ha":758,"x_min":-33,"x_max":708,"o":"m 534 0 l -33 0 l -17 79 l 582 806 l 216 806 l 171 589 l 92 589 l 154 885 l 708 885 l 692 806 l 97 79 l 472 79 l 518 300 l 597 300 l 534 0 m 528 1011 l 401 1011 l 428 1138 l 554 1138 l 528 1011 z "},"ż":{"ha":758,"x_min":-35,"x_max":653,"o":"m 534 0 l -35 0 l -18 79 l 513 553 l 163 553 l 126 379 l 47 379 l 100 632 l 653 632 l 636 553 l 106 79 l 472 79 l 509 253 l 587 253 l 534 0 m 473 758 l 347 758 l 374 885 l 500 885 l 473 758 z "},"Ž":{"ha":758,"x_min":-33,"x_max":708,"o":"m 534 0 l -33 0 l -17 79 l 582 806 l 216 806 l 171 589 l 92 589 l 154 885 l 708 885 l 692 806 l 97 79 l 472 79 l 518 300 l 597 300 l 534 0 m 692 1132 l 450 939 l 289 1135 l 335 1181 l 472 1040 l 665 1178 l 692 1132 z "},"ž":{"ha":758,"x_min":-35,"x_max":653,"o":"m 534 0 l -35 0 l -18 79 l 513 553 l 163 553 l 126 379 l 47 379 l 100 632 l 653 632 l 636 553 l 106 79 l 472 79 l 509 253 l 587 253 l 534 0 m 637 878 l 396 686 l 235 881 l 281 927 l 418 787 l 611 924 l 637 878 z "},"ſ":{"ha":758,"x_min":60,"x_max":754,"o":"m 313 79 l 456 79 l 439 0 l 60 0 l 77 79 l 220 79 l 319 553 l 176 553 l 193 632 l 336 632 q 446 831 364 762 q 664 900 528 900 q 718 898 696 900 q 754 893 741 896 l 737 814 q 697 819 718 817 q 647 821 676 821 q 504 775 558 821 q 429 632 450 730 l 313 79 z "},"Ǽ":{"ha":758,"x_min":-110,"x_max":753,"o":"m 566 0 l 222 0 l 275 253 l 117 253 l -11 0 l -110 0 l 346 885 l 753 885 l 734 803 l 486 803 l 421 493 l 608 493 l 590 411 l 403 411 l 334 83 l 582 83 l 566 0 m 293 335 l 387 782 l 160 335 l 293 335 m 650 1105 l 322 941 l 306 985 l 621 1179 l 650 1105 z "},"ǽ":{"ha":758,"x_min":-71,"x_max":668,"o":"m 261 115 q 229 69 249 92 q 185 27 210 46 q 131 -4 160 8 q 68 -16 102 -16 q -41 38 -11 -16 q -56 172 -71 92 q -17 266 -45 227 q 48 331 11 306 q 129 367 85 355 q 215 379 172 379 q 246 378 231 379 q 277 375 261 378 l 290 440 q 286 531 301 492 q 222 570 271 570 q 157 545 195 570 q 87 481 119 521 l 41 538 q 94 588 65 567 q 149 622 122 608 q 199 641 175 635 q 239 647 222 647 q 324 624 292 647 q 361 547 357 600 q 442 624 392 600 q 539 647 492 647 q 629 609 602 647 q 663 515 657 571 q 660 397 668 460 q 640 283 652 334 l 350 283 q 341 121 326 171 q 410 71 357 71 q 470 90 441 71 q 521 154 498 110 l 595 129 q 506 20 555 56 q 386 -16 456 -16 q 299 19 335 -16 q 261 115 264 53 m 557 366 q 569 523 581 476 q 510 570 558 570 q 429 525 465 570 q 367 366 392 479 l 557 366 m 260 297 q 236 299 252 298 q 205 300 221 300 q 99 267 147 300 q 36 165 50 235 q 42 100 28 129 q 96 71 56 71 q 142 81 118 71 q 185 110 165 92 q 219 152 204 127 q 240 204 233 176 l 260 297 m 596 852 l 268 688 l 252 732 l 567 926 l 596 852 z "},"Ǿ":{"ha":758,"x_min":-93,"x_max":781,"o":"m -69 127 l -5 184 q -15 306 -18 241 q 4 441 -11 371 q 59 613 24 530 q 149 760 94 696 q 276 862 204 823 q 440 900 349 900 q 585 864 529 900 q 668 766 640 828 l 781 865 l 757 757 l 689 699 q 699 577 701 642 q 682 441 697 513 q 627 270 663 353 q 538 124 591 187 q 412 23 485 61 q 245 -16 339 -16 q 99 19 154 -16 q 17 115 45 54 l -93 20 l -69 127 m 589 441 q 604 625 611 543 l 93 182 q 150 96 110 129 q 262 64 191 64 q 390 98 335 64 q 484 186 444 132 q 549 308 524 240 q 589 441 575 375 m 97 441 q 83 348 87 395 q 81 258 78 301 l 590 700 q 529 789 571 758 q 424 821 488 821 q 297 787 351 821 q 203 698 243 753 q 137 576 163 643 q 97 441 111 509 m 650 1105 l 322 941 l 306 985 l 621 1179 l 650 1105 z "},"ǿ":{"ha":758,"x_min":-96,"x_max":729,"o":"m -78 81 l -7 131 q -14 314 -36 210 q 38 448 1 386 q 128 554 75 510 q 247 622 180 597 q 387 647 314 647 q 519 622 464 647 q 610 550 575 596 l 729 632 l 713 551 l 637 500 q 648 314 669 418 q 596 180 632 240 q 507 76 559 119 q 388 9 454 33 q 245 -16 321 -16 q 113 9 170 -16 q 22 81 57 35 l -96 0 l -78 81 m 555 314 q 553 443 571 386 l 103 136 q 166 83 127 103 q 262 64 205 64 q 367 83 318 64 q 453 135 415 102 q 517 214 492 168 q 555 314 543 260 m 79 314 q 78 189 62 241 l 529 496 q 465 549 504 529 q 370 568 425 568 q 265 549 314 568 q 179 494 216 529 q 116 414 142 460 q 79 314 90 368 m 596 852 l 268 688 l 252 732 l 567 926 l 596 852 z "},"Ș":{"ha":758,"x_min":-50,"x_max":708,"o":"m 591 231 q 547 130 579 175 q 468 52 514 85 q 369 2 422 20 q 261 -16 315 -16 q 130 12 186 -16 q 49 94 74 40 l 29 0 l -50 0 l 7 269 l 86 269 q 89 186 77 224 q 129 121 102 149 q 194 79 155 94 q 278 64 233 64 q 353 75 317 64 q 418 107 389 86 q 468 157 447 127 q 497 225 489 187 q 495 298 507 268 q 455 351 482 329 q 392 388 428 372 q 318 418 355 403 q 230 453 273 435 q 153 500 186 472 q 106 570 121 529 q 104 672 92 611 q 149 769 117 726 q 224 840 180 811 q 320 885 268 869 q 425 900 372 900 q 538 873 489 900 q 607 793 587 847 l 627 885 l 708 885 l 654 632 l 572 632 q 571 707 581 672 q 539 767 562 742 q 483 806 517 791 q 408 821 449 821 q 338 812 372 821 q 276 786 304 804 q 227 740 248 768 q 197 672 205 711 q 203 613 191 637 q 240 570 215 589 q 300 536 265 551 q 372 505 335 521 q 463 466 418 488 q 541 414 509 444 q 590 339 574 383 q 591 231 606 294 m 332 -71 l 176 -253 l 90 -253 l 186 -71 l 332 -71 z "},"ș":{"ha":758,"x_min":-58,"x_max":635,"o":"m 585 175 q 538 83 574 119 q 454 24 503 46 q 349 -6 406 3 q 241 -16 293 -16 q 76 9 155 -16 q -58 75 -4 35 l 0 155 q 123 87 61 111 q 258 64 186 64 q 492 172 468 64 q 483 215 497 199 q 442 242 469 232 q 379 259 415 253 q 302 271 343 265 q 201 288 252 278 q 113 319 151 298 q 55 373 74 339 q 47 463 36 407 q 90 545 58 510 q 166 602 121 579 q 268 636 211 625 q 383 647 325 647 q 528 628 467 647 q 635 572 590 608 l 582 500 q 484 553 536 538 q 366 568 431 568 q 300 563 336 568 q 231 546 264 558 q 172 513 197 533 q 140 463 147 493 q 149 420 135 436 q 190 394 163 404 q 253 377 216 383 q 329 366 289 371 q 430 348 379 358 q 519 318 481 338 q 578 264 558 298 q 585 175 597 231 m 332 -71 l 176 -253 l 90 -253 l 186 -71 l 332 -71 z "},"Ț":{"ha":758,"x_min":57,"x_max":753,"o":"m 689 586 l 610 586 l 657 806 l 467 806 l 313 79 l 456 79 l 439 0 l 60 0 l 77 79 l 220 79 l 374 806 l 183 806 l 136 586 l 57 586 l 121 885 l 753 885 l 689 586 m 332 -71 l 176 -253 l 90 -253 l 186 -71 l 332 -71 z "},"ț":{"ha":758,"x_min":50,"x_max":614,"o":"m 614 201 q 502 43 582 102 q 321 -16 422 -16 q 223 3 265 -16 q 156 54 182 21 q 122 132 131 86 q 125 232 114 178 l 193 553 l 50 553 l 66 632 l 210 632 l 264 885 l 357 885 l 302 632 l 572 632 l 555 553 l 286 553 l 218 232 q 215 167 211 197 q 235 113 220 136 q 276 77 250 90 q 338 64 301 64 q 463 107 407 64 q 541 218 518 150 l 614 201 m 332 -71 l 176 -253 l 90 -253 l 186 -71 l 332 -71 z "},"΄":{"ha":758,"x_min":364,"x_max":555,"o":"m 555 1074 l 432 758 l 364 758 l 431 1074 l 555 1074 z "},"΅":{"ha":758,"x_min":94,"x_max":753,"o":"m 555 1074 l 432 758 l 364 758 l 431 1074 l 555 1074 m 726 758 l 600 758 l 627 885 l 753 885 l 726 758 m 221 758 l 94 758 l 121 885 l 248 885 l 221 758 z "},"Ά":{"ha":758,"x_min":-107,"x_max":608,"o":"m 608 0 l 509 0 l 478 253 l 127 253 l -7 0 l -107 0 l 375 885 l 501 885 l 608 0 m 469 335 l 418 791 l 172 335 l 469 335 m 303 1074 l 180 758 l 112 758 l 178 1074 l 303 1074 z "},"Έ":{"ha":758,"x_min":-33,"x_max":720,"o":"m 532 0 l -33 0 l 154 885 l 720 885 l 703 806 l 231 806 l 163 489 l 511 489 l 494 410 l 146 410 l 77 79 l 549 79 l 532 0 m 177 1074 l 54 758 l -14 758 l 52 1074 l 177 1074 z "},"Ή":{"ha":758,"x_min":-33,"x_max":720,"o":"m 177 1074 l 54 758 l -14 758 l 52 1074 l 177 1074 m 532 0 l 439 0 l 525 410 l 146 410 l 60 0 l -33 0 l 154 885 l 248 885 l 163 489 l 542 489 l 627 885 l 720 885 l 532 0 z "},"Ί":{"ha":758,"x_min":60,"x_max":627,"o":"m 302 1074 l 178 758 l 111 758 l 177 1074 l 302 1074 m 439 0 l 60 0 l 77 79 l 220 79 l 374 806 l 231 806 l 248 885 l 627 885 l 610 806 l 467 806 l 313 79 l 456 79 l 439 0 z "},"Ό":{"ha":758,"x_min":-17,"x_max":701,"o":"m 682 441 q 627 270 663 353 q 538 124 591 187 q 412 23 485 61 q 245 -16 339 -16 q 96 23 153 -16 q 13 124 40 61 q -15 270 -14 187 q 4 441 -16 353 q 59 613 24 530 q 149 760 94 696 q 276 862 204 823 q 440 900 349 900 q 589 862 532 900 q 672 760 646 823 q 700 613 699 696 q 682 441 701 530 m 589 441 q 606 599 607 529 q 583 719 604 669 q 522 794 562 768 q 424 821 482 821 q 297 787 351 821 q 203 698 243 753 q 137 576 163 643 q 97 441 111 509 q 80 308 83 375 q 94 186 77 240 q 151 98 111 132 q 262 64 191 64 q 390 98 335 64 q 484 186 444 132 q 549 308 524 240 q 589 441 575 375 m 174 1074 l 51 758 l -17 758 l 50 1074 l 174 1074 z "},"Ύ":{"ha":758,"x_min":-17,"x_max":766,"o":"m 750 806 l 677 806 l 376 382 l 313 79 l 456 79 l 439 0 l 60 0 l 77 79 l 220 79 l 283 382 l 163 806 l 90 806 l 107 885 l 357 885 l 340 806 l 267 806 l 350 472 l 574 806 l 500 806 l 517 885 l 766 885 l 750 806 m 174 1074 l 51 758 l -17 758 l 50 1074 l 174 1074 z "},"Ώ":{"ha":758,"x_min":-66,"x_max":704,"o":"m 688 503 q 610 312 667 404 q 456 157 553 220 l 439 79 l 582 79 l 566 0 l 329 0 l 371 197 q 457 250 419 215 q 524 327 496 285 q 569 414 551 368 q 595 503 586 460 q 606 615 607 558 q 586 719 604 672 q 528 794 567 765 q 425 823 489 823 q 313 794 364 823 q 221 719 261 765 q 156 615 182 672 q 118 503 131 558 q 108 414 110 460 q 115 327 106 368 q 146 250 123 285 q 211 197 168 215 l 170 0 l -66 0 l -50 79 l 93 79 l 110 157 q 21 308 39 215 q 25 503 4 401 q 78 651 41 579 q 169 779 115 724 q 291 867 222 833 q 440 900 359 900 q 576 867 521 900 q 661 779 631 833 q 698 651 692 724 q 688 503 704 579 m 174 1074 l 51 758 l -17 758 l 50 1074 l 174 1074 z "},"ΐ":{"ha":758,"x_min":94,"x_max":753,"o":"m 439 1 q 401 -11 421 -7 q 351 -16 380 -16 q 295 -5 321 -16 q 253 25 269 5 q 230 74 236 45 q 232 140 224 103 l 319 550 l 176 550 l 193 632 l 429 632 l 325 140 q 380 64 309 64 q 435 75 414 64 l 439 1 m 555 1074 l 432 758 l 364 758 l 431 1074 l 555 1074 m 726 758 l 600 758 l 627 885 l 753 885 l 726 758 m 221 758 l 94 758 l 121 885 l 248 885 l 221 758 z "},"Α":{"ha":758,"x_min":-107,"x_max":608,"o":"m 608 0 l 509 0 l 478 253 l 127 253 l -7 0 l -107 0 l 375 885 l 501 885 l 608 0 m 469 335 l 418 791 l 172 335 l 469 335 z "},"Β":{"ha":758,"x_min":-33,"x_max":688,"o":"m 616 253 q 495 63 590 126 q 249 0 400 0 l -33 0 l 154 885 l 421 885 q 528 876 476 885 q 616 842 579 867 q 670 772 653 817 q 672 656 688 728 q 494 468 643 518 q 616 253 652 416 m 579 656 q 575 732 589 703 q 535 778 562 762 q 473 800 509 794 q 404 806 437 806 l 231 806 l 167 505 l 340 505 q 416 511 378 505 q 487 533 454 517 q 545 579 519 550 q 579 656 570 608 m 524 253 q 493 386 543 345 q 339 428 443 428 l 150 428 l 77 79 l 265 79 q 437 123 370 79 q 524 253 505 167 z "},"Γ":{"ha":758,"x_min":-33,"x_max":753,"o":"m 154 885 l 753 885 l 736 806 l 231 806 l 60 0 l -33 0 l 154 885 z "},"Δ":{"ha":758,"x_min":-107,"x_max":608,"o":"m 608 0 l -107 0 l 375 885 l 501 885 l 608 0 m 498 79 l 416 790 l 35 79 l 498 79 z "},"Ε":{"ha":758,"x_min":-33,"x_max":720,"o":"m 532 0 l -33 0 l 154 885 l 720 885 l 703 806 l 231 806 l 163 489 l 511 489 l 494 410 l 146 410 l 77 79 l 549 79 l 532 0 z "},"Ζ":{"ha":758,"x_min":-33,"x_max":708,"o":"m 534 0 l -33 0 l -17 79 l 582 806 l 216 806 l 171 589 l 92 589 l 154 885 l 708 885 l 692 806 l 97 79 l 472 79 l 518 300 l 597 300 l 534 0 z "},"Η":{"ha":758,"x_min":-33,"x_max":720,"o":"m 532 0 l 439 0 l 525 410 l 146 410 l 60 0 l -33 0 l 154 885 l 248 885 l 163 489 l 542 489 l 627 885 l 720 885 l 532 0 z "},"Θ":{"ha":758,"x_min":-16,"x_max":701,"o":"m 191 482 l 510 482 l 493 403 l 174 403 l 191 482 m 682 441 q 627 270 663 353 q 538 124 591 187 q 412 23 485 61 q 245 -16 339 -16 q 96 23 153 -16 q 13 124 40 61 q -15 270 -14 187 q 4 441 -16 353 q 59 613 24 530 q 149 760 94 696 q 276 862 204 823 q 440 900 349 900 q 589 862 532 900 q 672 760 646 823 q 700 613 699 696 q 682 441 701 530 m 589 441 q 606 599 607 529 q 583 719 604 669 q 522 794 562 768 q 424 821 482 821 q 297 787 351 821 q 203 698 243 753 q 137 576 163 643 q 97 441 111 509 q 80 308 83 375 q 94 186 77 240 q 151 98 111 132 q 262 64 191 64 q 390 98 335 64 q 484 186 444 132 q 549 308 524 240 q 589 441 575 375 z "},"Ι":{"ha":758,"x_min":60,"x_max":627,"o":"m 439 0 l 60 0 l 77 79 l 220 79 l 374 806 l 231 806 l 248 885 l 627 885 l 610 806 l 467 806 l 313 79 l 456 79 l 439 0 z "},"Κ":{"ha":758,"x_min":-33,"x_max":749,"o":"m 561 0 l 447 0 l 244 433 l 129 329 l 60 0 l -33 0 l 154 885 l 248 885 l 155 454 l 627 885 l 749 885 l 319 498 l 561 0 z "},"Λ":{"ha":758,"x_min":-107,"x_max":608,"o":"m 509 0 l 416 790 l -7 0 l -107 0 l 375 885 l 501 885 l 608 0 l 509 0 z "},"Μ":{"ha":758,"x_min":-33,"x_max":720,"o":"m 532 0 l 439 0 l 595 737 l 340 281 l 273 281 l 215 737 l 60 0 l -33 0 l 154 885 l 275 885 l 338 422 l 599 885 l 720 885 l 532 0 z "},"Ν":{"ha":758,"x_min":-33,"x_max":720,"o":"m 532 0 l 416 0 l 218 749 l 60 0 l -33 0 l 154 885 l 285 885 l 475 171 l 627 885 l 720 885 l 532 0 z "},"Ξ":{"ha":758,"x_min":-66,"x_max":753,"o":"m -24 204 l 58 204 l 32 79 l 500 79 l 526 204 l 608 204 l 566 0 l -66 0 l -24 204 m 654 806 l 186 806 l 158 679 l 77 679 l 121 885 l 753 885 l 708 679 l 627 679 l 654 806 m 191 482 l 510 482 l 493 403 l 174 403 l 191 482 z "},"Ο":{"ha":758,"x_min":-16,"x_max":701,"o":"m 682 441 q 627 270 663 353 q 538 124 591 187 q 412 23 485 61 q 245 -16 339 -16 q 96 23 153 -16 q 13 124 40 61 q -15 270 -14 187 q 4 441 -16 353 q 59 613 24 530 q 149 760 94 696 q 276 862 204 823 q 440 900 349 900 q 589 862 532 900 q 672 760 646 823 q 700 613 699 696 q 682 441 701 530 m 589 441 q 606 599 607 529 q 583 719 604 669 q 522 794 562 768 q 424 821 482 821 q 297 787 351 821 q 203 698 243 753 q 137 576 163 643 q 97 441 111 509 q 80 308 83 375 q 94 186 77 240 q 151 98 111 132 q 262 64 191 64 q 390 98 335 64 q 484 186 444 132 q 549 308 524 240 q 589 441 575 375 z "},"Π":{"ha":758,"x_min":-33,"x_max":720,"o":"m 532 0 l 439 0 l 610 806 l 231 806 l 60 0 l -33 0 l 154 885 l 720 885 l 532 0 z "},"Ρ":{"ha":758,"x_min":-33,"x_max":725,"o":"m 697 632 q 578 441 671 504 q 340 379 485 379 l 140 379 l 60 0 l -33 0 l 154 885 l 446 885 q 658 822 591 885 q 697 632 725 758 m 604 632 q 575 765 624 724 q 431 806 526 806 l 231 806 l 157 458 l 357 458 q 519 499 453 458 q 604 632 585 541 z "},"Σ":{"ha":758,"x_min":-37,"x_max":720,"o":"m 532 0 l -37 0 l -21 79 l 278 443 l 134 806 l 150 885 l 720 885 l 656 586 l 574 586 l 621 806 l 244 806 l 387 443 l 90 79 l 467 79 l 513 300 l 595 300 l 532 0 z "},"Τ":{"ha":758,"x_min":57,"x_max":753,"o":"m 689 586 l 610 586 l 657 806 l 467 806 l 313 79 l 456 79 l 439 0 l 60 0 l 77 79 l 220 79 l 374 806 l 183 806 l 136 586 l 57 586 l 121 885 l 753 885 l 689 586 z "},"Υ":{"ha":758,"x_min":60,"x_max":766,"o":"m 750 806 l 677 806 l 376 382 l 313 79 l 456 79 l 439 0 l 60 0 l 77 79 l 220 79 l 283 382 l 163 806 l 90 806 l 107 885 l 357 885 l 340 806 l 267 806 l 350 472 l 574 806 l 500 806 l 517 885 l 766 885 l 750 806 z "},"Φ":{"ha":758,"x_min":-1,"x_max":690,"o":"m 676 444 q 629 321 661 378 q 549 221 596 264 q 444 151 503 178 q 319 117 385 123 l 296 0 l 203 0 l 228 118 q 119 152 165 125 q 44 221 72 179 q 7 321 16 264 q 14 444 -1 378 q 60 568 28 511 q 139 669 92 625 q 243 740 186 713 q 367 775 301 766 l 390 885 l 484 885 l 460 775 q 569 741 522 768 q 644 670 616 713 q 681 569 672 627 q 676 444 690 511 m 583 444 q 589 534 593 492 q 567 610 585 576 q 519 665 550 643 q 443 694 488 686 l 338 199 q 497 281 432 214 q 583 444 562 349 m 107 444 q 121 281 86 349 q 244 199 155 214 l 350 694 q 262 664 302 686 q 191 609 222 642 q 138 534 160 576 q 107 444 117 492 z "},"Χ":{"ha":758,"x_min":-82,"x_max":753,"o":"m 581 0 l 329 0 l 346 79 l 406 79 l 328 370 l 126 79 l 186 79 l 170 0 l -82 0 l -65 79 l 21 79 l 290 446 l 178 806 l 104 806 l 121 885 l 374 885 l 357 806 l 283 806 l 359 522 l 554 806 l 484 806 l 500 885 l 753 885 l 736 806 l 660 806 l 399 446 l 511 79 l 597 79 l 581 0 z "},"Ψ":{"ha":758,"x_min":53,"x_max":720,"o":"m 647 547 q 542 321 618 408 q 342 220 467 235 l 296 0 l 203 0 l 249 220 q 90 322 127 235 q 82 549 53 410 l 154 885 l 248 885 l 175 547 q 165 472 168 511 q 170 397 163 432 q 200 336 178 363 q 265 300 222 310 l 390 885 l 484 885 l 358 300 q 439 336 406 310 q 496 397 472 363 q 533 472 519 432 q 554 547 547 511 l 627 885 l 720 885 l 647 547 z "},"Ϊ":{"ha":758,"x_min":60,"x_max":681,"o":"m 439 0 l 60 0 l 77 79 l 220 79 l 374 806 l 231 806 l 248 885 l 627 885 l 610 806 l 467 806 l 313 79 l 456 79 l 439 0 m 654 1011 l 528 1011 l 554 1138 l 681 1138 l 654 1011 m 401 1011 l 275 1011 l 302 1138 l 428 1138 l 401 1011 z "},"Ϋ":{"ha":758,"x_min":60,"x_max":766,"o":"m 654 1011 l 528 1011 l 554 1138 l 681 1138 l 654 1011 m 401 1011 l 275 1011 l 302 1138 l 428 1138 l 401 1011 m 750 806 l 677 806 l 376 382 l 313 79 l 456 79 l 439 0 l 60 0 l 77 79 l 220 79 l 283 382 l 163 806 l 90 806 l 107 885 l 357 885 l 340 806 l 267 806 l 350 472 l 574 806 l 500 806 l 517 885 l 766 885 l 750 806 z "},"ά":{"ha":758,"x_min":-12,"x_max":703,"o":"m 94 317 q 85 229 85 273 q 97 148 85 184 q 137 87 110 111 q 210 64 164 64 q 287 87 250 64 q 355 147 323 111 q 414 228 387 183 q 464 317 440 273 q 451 404 460 359 q 426 485 443 449 q 383 545 410 521 q 317 568 357 568 q 233 545 271 568 q 168 485 196 521 q 122 404 140 449 q 94 317 104 359 m 1 317 q 43 440 16 380 q 113 546 71 500 q 211 619 155 591 q 335 647 267 647 q 468 594 418 647 q 526 449 518 542 l 603 632 l 703 632 l 547 317 l 570 0 l 469 0 l 471 183 q 350 37 422 90 q 193 -16 277 -16 q 82 12 125 -16 q 16 87 39 40 q -9 193 -7 134 q 1 317 -12 253 m 555 1074 l 432 758 l 364 758 l 431 1074 l 555 1074 z "},"έ":{"ha":758,"x_min":-39,"x_max":632,"o":"m 39 458 q 77 537 47 501 q 153 596 107 572 q 256 634 199 621 q 379 647 314 647 q 544 613 484 647 q 632 511 604 579 l 551 464 q 488 540 534 511 q 361 568 441 568 q 203 538 265 568 q 132 458 142 509 q 135 424 127 441 q 160 393 142 407 q 210 370 179 379 q 286 361 241 361 l 427 361 l 410 282 l 269 282 q 188 273 224 282 q 125 249 151 264 q 83 216 98 235 q 64 179 68 197 q 108 94 53 125 q 262 64 163 64 q 407 90 346 64 q 511 164 468 115 l 567 119 q 431 18 509 52 q 245 -16 354 -16 q 123 -2 178 -16 q 31 36 68 11 q -22 97 -5 61 q -29 179 -39 134 q 28 268 -20 228 q 140 321 75 309 q 52 372 75 332 q 39 458 29 412 m 555 1074 l 432 758 l 364 758 l 431 1074 l 555 1074 z "},"ή":{"ha":758,"x_min":60,"x_max":642,"o":"m 250 525 q 334 612 282 578 q 457 647 386 647 q 601 585 561 647 q 614 392 642 522 l 478 -253 l 385 -253 l 521 392 q 519 519 539 471 q 439 568 500 568 q 309 514 368 568 q 229 361 250 460 l 153 0 l 60 0 l 167 507 q 161 552 174 536 q 125 568 149 568 q 78 558 102 568 l 75 631 q 111 642 90 637 q 151 647 132 647 q 230 617 200 647 q 250 525 260 587 m 555 1074 l 432 758 l 364 758 l 431 1074 l 555 1074 z "},"ί":{"ha":758,"x_min":176,"x_max":555,"o":"m 439 1 q 401 -11 421 -7 q 351 -16 380 -16 q 295 -5 321 -16 q 253 25 269 5 q 230 74 236 45 q 232 140 224 103 l 319 550 l 176 550 l 193 632 l 429 632 l 325 140 q 380 64 309 64 q 435 75 414 64 l 439 1 m 555 1074 l 432 758 l 364 758 l 431 1074 l 555 1074 z "},"ΰ":{"ha":758,"x_min":4,"x_max":753,"o":"m 245 -16 q 133 1 182 -16 q 54 50 85 17 q 14 130 24 82 q 18 243 4 178 l 100 632 l 193 632 l 111 243 q 110 168 102 201 q 139 112 118 135 q 192 77 160 89 q 262 65 224 65 q 374 92 325 65 q 456 160 422 118 q 513 251 490 201 q 546 347 536 301 q 561 482 559 418 q 547 608 562 546 l 644 644 q 657 505 659 579 q 639 347 656 431 q 593 219 625 283 q 512 102 561 154 q 396 17 463 50 q 245 -16 329 -16 m 555 1074 l 432 758 l 364 758 l 431 1074 l 555 1074 m 726 758 l 600 758 l 627 885 l 753 885 l 726 758 m 221 758 l 94 758 l 121 885 l 248 885 l 221 758 z "},"α":{"ha":758,"x_min":-12,"x_max":703,"o":"m 94 317 q 85 229 85 273 q 97 148 85 184 q 137 87 110 111 q 210 64 164 64 q 287 87 250 64 q 355 147 323 111 q 414 228 387 183 q 464 317 440 273 q 451 404 460 359 q 426 485 443 449 q 383 545 410 521 q 317 568 357 568 q 233 545 271 568 q 168 485 196 521 q 122 404 140 449 q 94 317 104 359 m 1 317 q 43 440 16 380 q 113 546 71 500 q 211 619 155 591 q 335 647 267 647 q 468 594 418 647 q 526 449 518 542 l 603 632 l 703 632 l 547 317 l 570 0 l 469 0 l 471 183 q 350 37 422 90 q 193 -16 277 -16 q 82 12 125 -16 q 16 87 39 40 q -9 193 -7 134 q 1 317 -12 253 z "},"β":{"ha":758,"x_min":-86,"x_max":681,"o":"m 264 -16 q 152 1 197 -16 q 69 50 106 17 l 5 -253 l -86 -253 l 102 636 q 146 742 114 693 q 223 826 178 790 q 326 881 269 861 q 444 900 383 900 q 557 880 510 900 q 633 828 604 860 q 671 754 661 796 q 672 668 681 711 q 606 543 657 597 q 475 464 554 489 q 598 380 559 436 q 618 240 636 323 q 575 138 607 184 q 496 58 543 92 q 390 4 449 24 q 264 -16 330 -16 m 281 64 q 443 113 378 64 q 525 240 509 161 q 495 369 542 319 q 336 419 449 419 l 275 419 l 292 498 l 353 498 q 507 547 452 498 q 579 668 562 595 q 580 720 585 693 q 558 769 575 747 q 510 806 542 791 q 428 821 478 821 q 355 810 392 821 q 286 776 318 799 q 229 718 253 753 q 195 636 204 684 l 90 146 q 166 83 121 102 q 281 64 212 64 z "},"γ":{"ha":758,"x_min":66,"x_max":671,"o":"m 671 632 q 606 465 643 551 q 520 294 568 379 q 414 126 472 208 q 289 -28 357 45 l 241 -253 l 149 -253 l 196 -29 l 66 632 l 174 632 l 268 60 q 455 340 376 195 q 576 632 533 485 l 671 632 z "},"δ":{"ha":758,"x_min":4,"x_max":633,"o":"m 317 741 q 333 687 311 713 q 391 633 355 661 q 469 572 427 606 q 544 496 511 539 q 592 399 576 453 q 595 275 608 345 q 549 157 581 210 q 472 65 517 104 q 368 5 427 26 q 243 -16 310 -16 q 129 5 178 -16 q 51 65 81 26 q 13 157 21 104 q 18 275 4 210 q 108 436 35 355 q 309 579 182 517 q 270 613 288 596 q 240 649 252 631 q 223 690 228 668 q 224 741 218 713 q 249 798 229 770 q 298 849 268 827 q 369 886 329 872 q 456 900 408 900 q 555 889 513 900 q 633 850 597 878 l 576 783 q 515 813 550 806 q 439 821 481 821 q 359 801 393 821 q 317 741 325 781 m 501 275 q 480 417 517 353 q 364 529 444 481 q 195 417 264 481 q 110 273 126 353 q 104 197 102 235 q 124 130 107 160 q 174 82 140 100 q 260 64 207 64 q 354 83 313 64 q 426 132 396 102 q 474 199 456 161 q 501 275 493 236 z "},"ε":{"ha":758,"x_min":-39,"x_max":632,"o":"m 39 458 q 77 537 47 501 q 153 596 107 572 q 256 634 199 621 q 379 647 314 647 q 544 613 484 647 q 632 511 604 579 l 551 464 q 488 540 534 511 q 361 568 441 568 q 203 538 265 568 q 132 458 142 509 q 135 424 127 441 q 160 393 142 407 q 210 370 179 379 q 286 361 241 361 l 427 361 l 410 282 l 269 282 q 188 273 224 282 q 125 249 151 264 q 83 216 98 235 q 64 179 68 197 q 108 94 53 125 q 262 64 163 64 q 407 90 346 64 q 511 164 468 115 l 567 119 q 431 18 509 52 q 245 -16 354 -16 q 123 -2 178 -16 q 31 36 68 11 q -22 97 -5 61 q -29 179 -39 134 q 28 268 -20 228 q 140 321 75 309 q 52 372 75 332 q 39 458 29 412 z "},"ζ":{"ha":758,"x_min":-18,"x_max":753,"o":"m 439 -78 q 435 -38 443 -53 q 409 -15 428 -24 q 362 -3 390 -7 q 296 4 334 1 q 178 20 240 8 q 71 66 117 32 q 3 164 25 100 q 5 336 -18 228 q 70 476 21 407 q 190 606 118 545 q 351 718 262 667 q 538 806 440 770 l 231 806 l 248 885 l 753 885 l 736 806 q 492 718 604 772 q 298 600 380 664 q 164 468 215 536 q 98 336 113 399 q 97 212 82 260 q 144 137 111 164 q 224 99 176 110 q 321 85 272 89 q 413 74 370 81 q 485 49 456 66 q 528 2 514 32 q 532 -78 542 -28 q 469 -188 519 -136 q 332 -268 418 -240 l 307 -197 q 402 -142 372 -175 q 439 -78 432 -110 z "},"η":{"ha":758,"x_min":60,"x_max":642,"o":"m 250 525 q 334 612 282 578 q 457 647 386 647 q 601 585 561 647 q 614 392 642 522 l 478 -253 l 385 -253 l 521 392 q 519 519 539 471 q 439 568 500 568 q 309 514 368 568 q 229 361 250 460 l 153 0 l 60 0 l 167 507 q 161 552 174 536 q 125 568 149 568 q 78 558 102 568 l 75 631 q 111 642 90 637 q 151 647 132 647 q 230 617 200 647 q 250 525 260 587 z "},"θ":{"ha":758,"x_min":29,"x_max":659,"o":"m 633 441 q 578 256 612 340 q 495 112 543 172 q 385 18 447 52 q 245 -16 322 -16 q 121 18 168 -16 q 52 112 74 52 q 31 256 29 172 q 54 441 33 340 q 109 626 75 542 q 192 771 143 710 q 301 866 240 832 q 440 900 363 900 q 566 866 518 900 q 636 772 614 832 q 656 627 659 711 q 633 441 654 542 m 262 64 q 358 90 315 64 q 433 163 400 117 q 490 274 467 210 q 532 411 514 338 l 142 411 q 125 274 127 338 q 136 163 123 210 q 179 90 149 117 q 262 64 210 64 m 424 821 q 329 796 371 821 q 256 727 288 771 q 199 622 224 682 q 160 490 175 561 l 550 490 q 563 622 561 561 q 552 727 566 682 q 507 796 538 771 q 424 821 476 821 z "},"ι":{"ha":758,"x_min":176,"x_max":439,"o":"m 439 1 q 401 -11 421 -7 q 351 -16 380 -16 q 295 -5 321 -16 q 253 25 269 5 q 230 74 236 45 q 232 140 224 103 l 319 550 l 176 550 l 193 632 l 429 632 l 325 140 q 380 64 309 64 q 435 75 414 64 l 439 1 z "},"κ":{"ha":758,"x_min":-33,"x_max":686,"o":"m 564 0 l 432 0 l 233 283 l 97 179 l 60 0 l -33 0 l 100 632 l 193 632 l 121 292 l 553 632 l 686 632 l 309 342 l 564 0 z "},"λ":{"ha":758,"x_min":-87,"x_max":585,"o":"m 473 0 l 367 553 l 22 0 l -87 0 l 332 650 l 314 746 q 295 799 307 777 q 236 821 282 821 q 184 815 216 821 q 118 796 153 810 l 118 876 q 253 900 187 900 q 355 879 311 900 q 411 791 399 859 l 585 0 l 473 0 z "},"μ":{"ha":758,"x_min":-86,"x_max":572,"o":"m 382 107 q 303 20 357 56 q 182 -16 249 -16 q 111 5 142 -16 q 72 65 81 26 l 5 -253 l -86 -253 l 100 632 l 193 632 l 106 216 q 118 104 90 144 q 199 64 146 64 q 262 78 231 64 q 322 118 294 92 q 371 183 350 144 q 401 271 392 222 l 478 632 l 572 632 l 465 126 q 469 80 458 96 q 498 64 479 64 q 554 75 532 64 l 557 1 q 523 -11 541 -7 q 481 -16 505 -16 q 401 15 432 -16 q 382 107 371 45 z "},"ν":{"ha":758,"x_min":66,"x_max":671,"o":"m 671 632 q 518 307 612 469 q 286 0 424 144 l 192 0 l 66 632 l 178 632 l 268 90 q 449 354 378 224 q 562 632 519 485 l 671 632 z "},"ξ":{"ha":758,"x_min":-28,"x_max":636,"o":"m 224 467 q 127 547 154 490 q 114 668 100 603 q 157 764 125 721 q 234 837 189 807 q 331 883 278 867 q 439 900 385 900 q 545 888 492 900 q 636 852 599 876 l 591 781 q 510 812 550 804 q 422 821 469 821 q 282 778 343 821 q 207 668 221 736 q 229 548 191 591 q 363 505 267 505 l 529 505 l 513 427 l 346 427 q 249 413 294 427 q 169 376 204 400 q 111 319 134 351 q 81 250 87 288 q 86 166 69 197 q 138 118 103 135 q 222 95 174 102 q 321 85 271 89 q 413 74 370 81 q 485 49 456 66 q 528 2 514 32 q 532 -78 542 -28 q 469 -188 519 -136 q 332 -268 418 -240 l 307 -197 q 402 -142 372 -175 q 439 -78 432 -110 q 435 -38 443 -53 q 409 -15 428 -24 q 362 -3 390 -7 q 296 4 334 1 q 155 23 218 11 q 49 62 92 35 q -11 134 7 89 q -12 253 -28 179 q 65 382 3 326 q 224 467 127 439 z "},"ο":{"ha":758,"x_min":-31,"x_max":664,"o":"m 648 314 q 596 180 632 240 q 507 76 559 119 q 388 9 454 33 q 245 -16 321 -16 q 117 9 172 -16 q 26 76 61 33 q -19 180 -8 119 q -14 314 -31 240 q 38 448 1 386 q 128 554 75 510 q 247 622 180 597 q 387 647 314 647 q 518 622 463 647 q 608 554 574 597 q 653 448 643 510 q 648 314 664 386 m 555 314 q 561 414 567 368 q 530 494 554 460 q 465 549 505 529 q 370 568 425 568 q 265 549 314 568 q 179 494 216 529 q 116 414 142 460 q 79 314 90 368 q 73 214 66 260 q 103 135 79 168 q 166 83 126 102 q 262 64 207 64 q 367 83 318 64 q 453 135 415 102 q 517 214 492 168 q 555 314 543 260 z "},"ρ":{"ha":758,"x_min":-86,"x_max":647,"o":"m 632 315 q 581 181 615 241 q 496 77 546 121 q 380 9 446 33 q 240 -16 315 -16 q 69 50 139 -16 l 5 -253 l -86 -253 l 33 315 q 76 437 46 378 q 151 544 106 497 q 256 618 196 590 q 392 647 317 647 q 515 623 463 647 q 599 554 567 599 q 639 449 631 510 q 632 315 647 387 m 539 315 q 546 415 550 370 q 521 495 542 461 q 463 549 500 529 q 374 568 427 568 q 293 554 332 568 q 222 510 254 541 q 165 431 191 479 q 126 315 140 383 l 90 146 q 162 83 121 102 q 257 64 204 64 q 360 83 314 64 q 443 136 407 103 q 502 215 478 170 q 539 315 526 261 z "},"ς":{"ha":758,"x_min":-17,"x_max":650,"o":"m 1 315 q 54 450 17 389 q 144 555 92 511 q 264 623 197 599 q 404 647 330 647 q 561 610 500 647 q 650 511 623 574 l 575 467 q 506 541 555 513 q 386 568 457 568 q 282 549 330 568 q 196 495 233 529 q 132 415 158 461 q 94 315 106 370 q 96 209 81 252 q 144 140 111 167 q 225 101 178 114 q 321 85 272 89 q 413 74 370 81 q 485 49 456 66 q 528 2 514 32 q 532 -78 542 -28 q 469 -188 519 -136 q 332 -268 418 -240 l 307 -197 q 402 -142 372 -175 q 439 -78 432 -110 q 435 -38 443 -53 q 409 -15 428 -24 q 362 -3 390 -7 q 296 4 334 1 q 161 28 222 9 q 58 83 100 47 q 0 176 17 119 q 1 315 -17 232 z "},"σ":{"ha":758,"x_min":-31,"x_max":757,"o":"m 490 553 q 539 514 517 541 q 577 452 562 488 q 598 376 593 416 q 595 293 604 335 q 547 168 581 224 q 463 70 513 111 q 351 7 412 29 q 222 -16 290 -16 q 102 9 153 -16 q 20 76 52 33 q -21 180 -11 119 q -14 314 -31 240 q 39 445 1 386 q 129 546 77 504 q 248 610 182 587 q 386 632 314 632 l 757 632 l 741 553 l 490 553 m 368 553 q 177 488 253 553 q 79 314 102 422 q 72 215 66 261 q 97 136 77 170 q 153 83 118 103 q 237 64 187 64 q 331 81 288 64 q 410 128 375 98 q 468 200 444 158 q 501 293 492 243 q 508 374 511 334 q 489 449 504 414 q 450 512 475 485 q 389 553 425 539 l 368 553 z "},"τ":{"ha":758,"x_min":50,"x_max":699,"o":"m 319 553 l 50 553 l 66 632 l 699 632 l 682 553 l 412 553 l 325 140 q 380 64 309 64 q 413 66 400 64 q 436 74 425 69 l 439 1 q 351 -16 407 -16 q 295 -5 321 -16 q 253 25 269 5 q 230 74 236 45 q 232 140 224 103 l 319 553 z "},"υ":{"ha":758,"x_min":4,"x_max":659,"o":"m 245 -16 q 133 1 182 -16 q 54 50 85 17 q 14 130 24 82 q 18 243 4 178 l 100 632 l 193 632 l 111 243 q 110 168 102 201 q 139 112 118 135 q 192 77 160 89 q 262 65 224 65 q 374 92 325 65 q 456 160 422 118 q 513 251 490 201 q 546 347 536 301 q 561 482 559 418 q 547 608 562 546 l 644 644 q 657 505 659 579 q 639 347 656 431 q 593 219 625 283 q 512 102 561 154 q 396 17 463 50 q 245 -16 329 -16 z "},"φ":{"ha":758,"x_min":-28,"x_max":665,"o":"m 475 647 q 570 623 530 647 q 633 555 610 599 q 661 450 656 511 q 650 315 665 389 q 603 191 636 249 q 523 91 570 134 q 418 22 476 49 q 293 -12 359 -5 l 241 -253 l 149 -253 l 200 -12 q 91 22 138 -5 q 16 92 45 49 q -20 192 -12 135 q -14 315 -28 249 q 55 482 4 404 q 178 607 106 559 l 221 543 q 131 448 168 507 q 79 315 94 389 q 93 152 58 220 q 216 68 127 83 l 310 504 q 327 559 315 533 q 358 606 339 586 q 406 636 378 625 q 475 647 435 647 m 310 68 q 470 152 404 83 q 557 315 536 220 q 564 415 568 370 q 545 495 559 461 q 507 549 530 529 q 457 568 484 568 q 421 553 433 568 q 403 504 410 538 l 310 68 z "},"χ":{"ha":758,"x_min":-125,"x_max":699,"o":"m 404 -268 l 273 109 l -16 -253 l -125 -253 l 236 183 l 74 602 l 165 648 l 306 258 l 589 632 l 699 632 l 345 183 l 496 -220 l 404 -268 z "},"ψ":{"ha":758,"x_min":4,"x_max":665,"o":"m 599 315 q 493 90 568 176 q 293 -12 418 3 l 241 -253 l 149 -253 l 200 -12 q 42 90 79 3 q 33 317 4 178 l 100 632 l 193 632 l 126 315 q 115 240 118 279 q 120 165 113 200 q 150 104 127 131 q 216 68 172 78 l 364 758 l 457 758 l 310 68 q 389 104 355 78 q 446 165 422 131 q 483 240 469 200 q 505 315 497 279 l 572 632 l 665 632 l 599 315 z "},"ω":{"ha":758,"x_min":-33,"x_max":667,"o":"m 272 110 q 199 19 245 54 q 98 -16 153 -16 q 21 7 50 -16 q -21 71 -8 31 q -31 168 -33 111 q -16 293 -29 225 q 8 383 -5 335 q 39 478 21 431 q 76 569 57 525 q 117 644 96 612 l 201 608 q 160 538 179 578 q 126 455 142 498 q 98 370 110 412 q 78 293 86 328 q 60 120 53 176 q 115 64 68 64 q 198 119 157 64 q 261 275 239 175 l 310 504 l 403 504 l 354 275 q 350 119 332 175 q 410 64 368 64 q 489 120 457 64 q 546 293 521 176 q 560 370 554 328 q 568 455 566 412 q 568 538 570 498 q 557 608 566 578 l 656 644 q 665 569 663 612 q 663 478 667 525 q 654 383 660 431 q 639 293 648 335 q 604 168 625 225 q 551 71 582 111 q 482 7 521 31 q 393 -16 443 -16 q 308 19 339 -16 q 272 110 277 54 z "},"ϊ":{"ha":758,"x_min":176,"x_max":627,"o":"m 439 1 q 401 -11 421 -7 q 351 -16 380 -16 q 295 -5 321 -16 q 253 25 269 5 q 230 74 236 45 q 232 140 224 103 l 319 550 l 176 550 l 193 632 l 429 632 l 325 140 q 380 64 309 64 q 435 75 414 64 l 439 1 m 600 758 l 473 758 l 500 885 l 627 885 l 600 758 m 347 758 l 221 758 l 248 885 l 374 885 l 347 758 z "},"ϋ":{"ha":758,"x_min":4,"x_max":659,"o":"m 245 -16 q 133 1 182 -16 q 54 50 85 17 q 14 130 24 82 q 18 243 4 178 l 100 632 l 193 632 l 111 243 q 110 168 102 201 q 139 112 118 135 q 192 77 160 89 q 262 65 224 65 q 374 92 325 65 q 456 160 422 118 q 513 251 490 201 q 546 347 536 301 q 561 482 559 418 q 547 608 562 546 l 644 644 q 657 505 659 579 q 639 347 656 431 q 593 219 625 283 q 512 102 561 154 q 396 17 463 50 q 245 -16 329 -16 m 600 758 l 473 758 l 500 885 l 627 885 l 600 758 m 347 758 l 221 758 l 248 885 l 374 885 l 347 758 z "},"ό":{"ha":758,"x_min":-31,"x_max":664,"o":"m 648 314 q 596 180 632 240 q 507 76 559 119 q 388 9 454 33 q 245 -16 321 -16 q 117 9 172 -16 q 26 76 61 33 q -19 180 -8 119 q -14 314 -31 240 q 38 448 1 386 q 128 554 75 510 q 247 622 180 597 q 387 647 314 647 q 518 622 463 647 q 608 554 574 597 q 653 448 643 510 q 648 314 664 386 m 555 314 q 561 414 567 368 q 530 494 554 460 q 465 549 505 529 q 370 568 425 568 q 265 549 314 568 q 179 494 216 529 q 116 414 142 460 q 79 314 90 368 q 73 214 66 260 q 103 135 79 168 q 166 83 126 102 q 262 64 207 64 q 367 83 318 64 q 453 135 415 102 q 517 214 492 168 q 555 314 543 260 m 555 1074 l 432 758 l 364 758 l 431 1074 l 555 1074 z "},"ύ":{"ha":758,"x_min":4,"x_max":659,"o":"m 245 -16 q 133 1 182 -16 q 54 50 85 17 q 14 130 24 82 q 18 243 4 178 l 100 632 l 193 632 l 111 243 q 110 168 102 201 q 139 112 118 135 q 192 77 160 89 q 262 65 224 65 q 374 92 325 65 q 456 160 422 118 q 513 251 490 201 q 546 347 536 301 q 561 482 559 418 q 547 608 562 546 l 644 644 q 657 505 659 579 q 639 347 656 431 q 593 219 625 283 q 512 102 561 154 q 396 17 463 50 q 245 -16 329 -16 m 555 1074 l 432 758 l 364 758 l 431 1074 l 555 1074 z "},"ώ":{"ha":758,"x_min":-33,"x_max":667,"o":"m 272 110 q 199 19 245 54 q 98 -16 153 -16 q 21 7 50 -16 q -21 71 -8 31 q -31 168 -33 111 q -16 293 -29 225 q 8 383 -5 335 q 39 478 21 431 q 76 569 57 525 q 117 644 96 612 l 201 608 q 160 538 179 578 q 126 455 142 498 q 98 370 110 412 q 78 293 86 328 q 60 120 53 176 q 115 64 68 64 q 198 119 157 64 q 261 275 239 175 l 310 504 l 403 504 l 354 275 q 350 119 332 175 q 410 64 368 64 q 489 120 457 64 q 546 293 521 176 q 560 370 554 328 q 568 455 566 412 q 568 538 570 498 q 557 608 566 578 l 656 644 q 665 569 663 612 q 663 478 667 525 q 654 383 660 431 q 639 293 648 335 q 604 168 625 225 q 551 71 582 111 q 482 7 521 31 q 393 -16 443 -16 q 308 19 339 -16 q 272 110 277 54 m 555 1074 l 432 758 l 364 758 l 431 1074 l 555 1074 z "},"Ё":{"ha":758,"x_min":-33,"x_max":720,"o":"m 532 0 l -33 0 l 154 885 l 720 885 l 703 806 l 231 806 l 163 489 l 511 489 l 494 410 l 146 410 l 77 79 l 549 79 l 532 0 m 654 1011 l 528 1011 l 554 1138 l 681 1138 l 654 1011 m 401 1011 l 275 1011 l 302 1138 l 428 1138 l 401 1011 z "},"Ђ":{"ha":758,"x_min":-33,"x_max":669,"o":"m 28 885 l 374 885 l 357 806 l 231 806 l 160 473 q 436 647 264 647 q 614 390 669 647 l 561 140 q 534 74 553 103 q 490 25 515 45 q 435 -5 465 5 q 375 -16 406 -16 q 296 1 318 -16 l 329 75 q 349 66 338 69 q 379 64 359 64 q 468 140 452 64 l 521 390 q 512 522 539 475 q 403 568 485 568 q 305 545 351 568 q 221 481 258 521 q 157 390 183 441 q 119 283 131 339 l 60 0 l -33 0 l 138 806 l 11 806 l 28 885 z "},"Ѓ":{"ha":758,"x_min":-33,"x_max":753,"o":"m 154 885 l 753 885 l 736 806 l 231 806 l 60 0 l -33 0 l 154 885 m 650 1104 l 322 939 l 306 983 l 621 1178 l 650 1104 z "},"Є":{"ha":758,"x_min":-9,"x_max":752,"o":"m 618 232 q 467 51 560 119 q 255 -16 374 -16 q 148 2 193 -16 q 71 51 102 20 q 22 124 39 81 q -2 218 4 167 q -5 325 -9 269 q 12 441 -1 382 q 67 613 31 530 q 157 760 103 696 q 284 862 211 823 q 450 900 357 900 q 583 871 532 900 q 651 782 635 842 l 673 885 l 752 885 l 690 595 l 611 595 q 612 684 621 642 q 579 755 603 725 q 517 803 555 786 q 433 821 479 821 q 316 792 368 821 q 226 717 264 764 q 160 610 187 670 q 116 489 132 551 l 511 489 l 494 410 l 99 410 q 88 292 88 350 q 103 186 87 234 q 125 137 111 159 q 160 98 139 115 q 208 73 180 82 q 271 64 235 64 q 545 264 437 64 l 618 232 z "},"Ѕ":{"ha":758,"x_min":-50,"x_max":708,"o":"m 591 231 q 547 130 579 175 q 468 52 514 85 q 369 2 422 20 q 261 -16 315 -16 q 130 12 186 -16 q 49 94 74 40 l 29 0 l -50 0 l 7 269 l 86 269 q 89 186 77 224 q 129 121 102 149 q 194 79 155 94 q 278 64 233 64 q 353 75 317 64 q 418 107 389 86 q 468 157 447 127 q 497 225 489 187 q 495 298 507 268 q 455 351 482 329 q 392 388 428 372 q 318 418 355 403 q 230 453 273 435 q 153 500 186 472 q 106 570 121 529 q 104 672 92 611 q 149 769 117 726 q 224 840 180 811 q 320 885 268 869 q 425 900 372 900 q 538 873 489 900 q 607 793 587 847 l 627 885 l 708 885 l 654 632 l 572 632 q 571 707 581 672 q 539 767 562 742 q 483 806 517 791 q 408 821 449 821 q 338 812 372 821 q 276 786 304 804 q 227 740 248 768 q 197 672 205 711 q 203 613 191 637 q 240 570 215 589 q 300 536 265 551 q 372 505 335 521 q 463 466 418 488 q 541 414 509 444 q 590 339 574 383 q 591 231 606 294 z "},"І":{"ha":758,"x_min":60,"x_max":627,"o":"m 439 0 l 60 0 l 77 79 l 220 79 l 374 806 l 231 806 l 248 885 l 627 885 l 610 806 l 467 806 l 313 79 l 456 79 l 439 0 z "},"Ї":{"ha":758,"x_min":60,"x_max":681,"o":"m 439 0 l 60 0 l 77 79 l 220 79 l 374 806 l 231 806 l 248 885 l 627 885 l 610 806 l 467 806 l 313 79 l 456 79 l 439 0 m 654 1010 l 528 1010 l 554 1137 l 681 1137 l 654 1010 m 401 1010 l 275 1010 l 302 1137 l 428 1137 l 401 1010 z "},"Ј":{"ha":758,"x_min":-20,"x_max":720,"o":"m 603 338 q 476 77 567 170 q 237 -16 385 -16 q 53 46 119 -16 q -20 232 -14 109 l 68 262 q 122 108 74 153 q 254 64 170 64 q 361 89 317 64 q 435 153 406 114 q 482 240 464 192 q 510 338 500 289 l 627 885 l 720 885 l 603 338 z "},"Љ":{"ha":758,"x_min":-161,"x_max":639,"o":"m 519 250 q 511 381 538 336 q 421 427 484 427 l 370 427 l 296 79 l 347 79 q 455 122 410 79 q 519 250 501 165 m 467 885 l 386 505 l 436 505 q 592 441 546 505 q 612 250 639 378 q 512 62 585 123 q 328 0 439 0 l 186 0 l 357 806 l 231 806 l 89 140 q 63 74 81 103 q 22 25 46 45 q -29 -5 -1 5 q -85 -16 -57 -16 q -130 -13 -113 -16 q -161 -3 -147 -9 l -127 75 q -110 66 -121 69 q -83 64 -100 64 q -4 140 -21 64 l 154 885 l 467 885 z "},"Њ":{"ha":758,"x_min":-33,"x_max":639,"o":"m 519 250 q 511 381 538 336 q 421 427 484 427 l 370 427 l 296 79 l 347 79 q 455 122 410 79 q 519 250 501 165 m -33 0 l 154 885 l 248 885 l 167 505 l 293 505 l 374 885 l 467 885 l 386 505 l 436 505 q 592 441 546 505 q 612 250 639 378 q 512 62 585 123 q 328 0 439 0 l 186 0 l 277 427 l 150 427 l 60 0 l -33 0 z "},"Ћ":{"ha":758,"x_min":-33,"x_max":669,"o":"m 28 885 l 374 885 l 357 806 l 231 806 l 160 473 q 436 647 264 647 q 614 390 669 647 l 532 0 l 439 0 l 521 390 q 512 522 539 475 q 403 568 485 568 q 305 545 351 568 q 221 481 258 521 q 157 390 183 441 q 119 283 131 339 l 60 0 l -33 0 l 138 806 l 11 806 l 28 885 z "},"Ќ":{"ha":758,"x_min":-33,"x_max":749,"o":"m 561 0 l 447 0 l 244 433 l 129 329 l 60 0 l -33 0 l 154 885 l 248 885 l 155 454 l 627 885 l 749 885 l 319 498 l 561 0 m 650 1104 l 322 939 l 306 983 l 621 1178 l 650 1104 z "},"Ў":{"ha":758,"x_min":-66,"x_max":772,"o":"m 772 885 l 262 93 q 170 5 222 26 q 58 -16 117 -16 q -66 8 -7 -16 l -32 89 q 26 70 -3 75 q 75 64 56 64 q 143 86 121 64 q 184 139 165 109 l 243 235 l 100 885 l 210 885 l 319 332 l 661 885 l 772 885 m 671 1074 q 461 995 575 995 q 285 1074 347 995 l 349 1125 q 475 1061 399 1061 q 629 1125 551 1061 l 671 1074 z "},"Џ":{"ha":758,"x_min":-33,"x_max":720,"o":"m 532 0 l 296 0 l 249 -216 l 155 -216 l 203 0 l -33 0 l 154 885 l 248 885 l 77 79 l 456 79 l 627 885 l 720 885 l 532 0 z "},"А":{"ha":758,"x_min":-107,"x_max":608,"o":"m 608 0 l 509 0 l 478 253 l 127 253 l -7 0 l -107 0 l 375 885 l 501 885 l 608 0 m 469 335 l 418 791 l 172 335 l 469 335 z "},"Б":{"ha":758,"x_min":-33,"x_max":720,"o":"m 524 250 q 494 381 542 336 q 350 427 446 427 l 150 427 l 77 79 l 277 79 q 439 122 372 79 q 524 250 505 165 m 167 505 l 367 505 q 577 441 511 505 q 616 250 643 378 q 496 62 589 123 q 258 0 404 0 l -33 0 l 154 885 l 720 885 l 703 806 l 231 806 l 167 505 z "},"В":{"ha":758,"x_min":-33,"x_max":688,"o":"m 616 253 q 495 63 590 126 q 249 0 400 0 l -33 0 l 154 885 l 421 885 q 528 876 476 885 q 616 842 579 867 q 670 772 653 817 q 672 656 688 728 q 494 468 643 518 q 616 253 652 416 m 579 656 q 575 732 589 703 q 535 778 562 762 q 473 800 509 794 q 404 806 437 806 l 231 806 l 167 505 l 340 505 q 416 511 378 505 q 487 533 454 517 q 545 579 519 550 q 579 656 570 608 m 524 253 q 493 386 543 345 q 339 428 443 428 l 150 428 l 77 79 l 265 79 q 437 123 370 79 q 524 253 505 167 z "},"Г":{"ha":758,"x_min":-33,"x_max":753,"o":"m 154 885 l 753 885 l 736 806 l 231 806 l 60 0 l -33 0 l 154 885 z "},"Д":{"ha":758,"x_min":-113,"x_max":627,"o":"m -50 79 q 33 151 -4 113 q 105 253 71 189 q 170 415 139 317 q 235 667 201 514 l 281 885 l 627 885 l 456 79 l 582 79 l 518 -216 l 435 -216 l 482 0 l 17 0 l -31 -216 l -113 -216 l -50 79 m 328 667 q 274 456 301 547 q 216 293 248 364 q 146 170 184 222 q 61 79 109 118 l 363 79 l 517 806 l 357 806 l 328 667 z "},"Е":{"ha":758,"x_min":-33,"x_max":720,"o":"m 532 0 l -33 0 l 154 885 l 720 885 l 703 806 l 231 806 l 163 489 l 511 489 l 494 410 l 146 410 l 77 79 l 549 79 l 532 0 z "},"Ж":{"ha":758,"x_min":-110,"x_max":796,"o":"m 203 0 l 277 351 l 254 419 l -12 0 l -110 0 l 212 500 l 78 885 l 179 885 l 307 492 l 390 885 l 484 885 l 400 492 l 694 885 l 796 885 l 497 500 l 608 0 l 511 0 l 422 419 l 370 351 l 296 0 l 203 0 z "},"З":{"ha":758,"x_min":-2,"x_max":692,"o":"m 609 244 q 563 138 597 186 q 482 56 529 90 q 379 3 435 22 q 267 -16 323 -16 q 151 2 203 -16 q 64 54 99 19 q 14 139 29 88 q 7 257 -2 190 l 99 269 q 138 115 85 168 q 283 64 189 64 q 361 77 323 64 q 431 115 399 91 q 485 172 463 138 q 515 244 507 205 q 517 333 527 298 q 479 386 508 367 q 404 412 450 406 q 294 419 357 419 l 311 498 q 402 506 357 498 q 485 532 447 513 q 550 580 522 550 q 587 656 577 610 q 563 775 603 730 q 444 821 523 821 q 355 804 400 821 q 277 759 311 787 q 218 695 244 733 q 180 606 191 657 l 96 606 l 155 885 l 234 885 l 212 782 q 265 838 235 815 q 328 874 295 860 q 395 894 361 888 q 461 900 429 900 q 564 883 518 900 q 640 836 610 867 q 681 759 669 804 q 680 656 692 713 q 609 530 664 580 q 467 468 553 481 q 543 441 511 461 q 592 390 574 420 q 614 322 610 360 q 609 244 618 285 z "},"И":{"ha":758,"x_min":-33,"x_max":720,"o":"m 154 885 l 248 885 l 96 171 l 589 885 l 720 885 l 532 0 l 439 0 l 597 749 l 82 0 l -33 0 l 154 885 z "},"Й":{"ha":758,"x_min":-33,"x_max":720,"o":"m 154 885 l 248 885 l 96 171 l 589 885 l 720 885 l 532 0 l 439 0 l 597 749 l 82 0 l -33 0 l 154 885 m 616 1072 q 407 994 521 994 q 231 1072 293 994 l 294 1124 q 421 1060 345 1060 q 575 1124 497 1060 l 616 1072 z "},"К":{"ha":758,"x_min":-33,"x_max":749,"o":"m 561 0 l 447 0 l 244 433 l 129 329 l 60 0 l -33 0 l 154 885 l 248 885 l 155 454 l 627 885 l 749 885 l 319 498 l 561 0 z "},"Л":{"ha":758,"x_min":-82,"x_max":720,"o":"m 720 885 l 532 0 l 439 0 l 610 806 l 323 806 l 182 140 q 155 74 174 103 q 111 25 136 45 q 56 -5 86 5 q -4 -16 26 -16 q -82 1 -61 -16 l -50 75 q -31 66 -41 69 q 0 64 -20 64 q 89 140 72 64 l 248 885 l 720 885 z "},"М":{"ha":758,"x_min":-33,"x_max":720,"o":"m 532 0 l 439 0 l 595 737 l 340 281 l 273 281 l 215 737 l 60 0 l -33 0 l 154 885 l 275 885 l 338 422 l 599 885 l 720 885 l 532 0 z "},"Н":{"ha":758,"x_min":-33,"x_max":720,"o":"m 532 0 l 439 0 l 525 410 l 146 410 l 60 0 l -33 0 l 154 885 l 248 885 l 163 489 l 542 489 l 627 885 l 720 885 l 532 0 z "},"О":{"ha":758,"x_min":-16,"x_max":701,"o":"m 682 441 q 627 270 663 353 q 538 124 591 187 q 412 23 485 61 q 245 -16 339 -16 q 96 23 153 -16 q 13 124 40 61 q -15 270 -14 187 q 4 441 -16 353 q 59 613 24 530 q 149 760 94 696 q 276 862 204 823 q 440 900 349 900 q 589 862 532 900 q 672 760 646 823 q 700 613 699 696 q 682 441 701 530 m 589 441 q 606 599 607 529 q 583 719 604 669 q 522 794 562 768 q 424 821 482 821 q 297 787 351 821 q 203 698 243 753 q 137 576 163 643 q 97 441 111 509 q 80 308 83 375 q 94 186 77 240 q 151 98 111 132 q 262 64 191 64 q 390 98 335 64 q 484 186 444 132 q 549 308 524 240 q 589 441 575 375 z "},"П":{"ha":758,"x_min":-33,"x_max":720,"o":"m 532 0 l 439 0 l 610 806 l 231 806 l 60 0 l -33 0 l 154 885 l 720 885 l 532 0 z "},"Р":{"ha":758,"x_min":-33,"x_max":725,"o":"m 697 632 q 578 441 671 504 q 340 379 485 379 l 140 379 l 60 0 l -33 0 l 154 885 l 446 885 q 658 822 591 885 q 697 632 725 758 m 604 632 q 575 765 624 724 q 431 806 526 806 l 231 806 l 157 458 l 357 458 q 519 499 453 458 q 604 632 585 541 z "},"С":{"ha":758,"x_min":-7,"x_max":753,"o":"m 619 232 q 468 52 561 118 q 256 -14 375 -14 q 106 24 163 -14 q 22 124 50 61 q -6 270 -5 187 q 12 441 -7 353 q 67 613 32 530 q 158 760 103 696 q 284 862 212 823 q 450 900 357 900 q 584 871 532 900 q 652 782 636 842 l 673 885 l 753 885 l 690 595 l 611 595 q 613 683 623 642 q 579 755 603 725 q 517 803 555 786 q 433 821 479 821 q 307 787 361 821 q 213 698 253 753 q 146 576 172 643 q 106 441 119 509 q 89 308 92 375 q 103 187 86 240 q 160 99 121 134 q 272 65 200 65 q 546 264 437 65 l 619 232 z "},"Т":{"ha":758,"x_min":57,"x_max":753,"o":"m 689 586 l 610 586 l 657 806 l 467 806 l 313 79 l 456 79 l 439 0 l 60 0 l 77 79 l 220 79 l 374 806 l 183 806 l 136 586 l 57 586 l 121 885 l 753 885 l 689 586 z "},"У":{"ha":758,"x_min":-66,"x_max":772,"o":"m 772 885 l 262 93 q 170 5 222 26 q 58 -16 117 -16 q -66 8 -7 -16 l -32 89 q 26 70 -3 75 q 75 64 56 64 q 143 86 121 64 q 184 139 165 109 l 243 235 l 100 885 l 210 885 l 319 332 l 661 885 l 772 885 z "},"Ф":{"ha":758,"x_min":-1,"x_max":690,"o":"m 676 444 q 629 321 661 378 q 549 221 596 264 q 444 151 503 178 q 319 117 385 123 l 296 0 l 203 0 l 228 118 q 119 152 165 125 q 44 221 72 179 q 7 321 16 264 q 14 444 -1 378 q 60 568 28 511 q 139 669 92 625 q 243 740 186 713 q 367 775 301 766 l 390 885 l 484 885 l 460 775 q 569 741 522 768 q 644 670 616 713 q 681 569 672 627 q 676 444 690 511 m 583 444 q 589 534 593 492 q 567 610 585 576 q 519 665 550 643 q 443 694 488 686 l 338 199 q 497 281 432 214 q 583 444 562 349 m 107 444 q 121 281 86 349 q 244 199 155 214 l 350 694 q 262 664 302 686 q 191 609 222 642 q 138 534 160 576 q 107 444 117 492 z "},"Х":{"ha":758,"x_min":-82,"x_max":753,"o":"m 581 0 l 329 0 l 346 79 l 406 79 l 328 370 l 126 79 l 186 79 l 170 0 l -82 0 l -65 79 l 21 79 l 290 446 l 178 806 l 104 806 l 121 885 l 374 885 l 357 806 l 283 806 l 359 522 l 554 806 l 484 806 l 500 885 l 753 885 l 736 806 l 660 806 l 399 446 l 511 79 l 597 79 l 581 0 z "},"Ц":{"ha":758,"x_min":-33,"x_max":720,"o":"m 665 79 l 602 -216 l 518 -216 l 566 0 l -33 0 l 154 885 l 248 885 l 77 79 l 456 79 l 627 885 l 720 885 l 549 79 l 665 79 z "},"Ч":{"ha":758,"x_min":17,"x_max":720,"o":"m 154 885 l 248 885 l 164 494 q 173 363 146 410 q 282 317 200 317 q 380 340 334 317 q 464 404 427 364 q 528 494 501 443 q 567 602 554 546 l 627 885 l 720 885 l 532 0 l 439 0 l 525 411 q 250 237 422 237 q 71 494 17 237 l 154 885 z "},"Ш":{"ha":758,"x_min":-66,"x_max":753,"o":"m 390 885 l 484 885 l 313 79 l 489 79 l 660 885 l 753 885 l 566 0 l -66 0 l 121 885 l 214 885 l 43 79 l 220 79 l 390 885 z "},"Щ":{"ha":758,"x_min":-66,"x_max":753,"o":"m -66 0 l 121 885 l 214 885 l 43 79 l 220 79 l 390 885 l 484 885 l 313 79 l 489 79 l 660 885 l 753 885 l 582 79 l 665 79 l 602 -216 l 518 -216 l 566 0 l -66 0 z "},"Ъ":{"ha":758,"x_min":93,"x_max":643,"o":"m 121 885 l 374 885 l 293 505 l 414 505 q 590 441 536 505 q 616 250 643 378 q 509 62 589 123 q 306 0 429 0 l 93 0 l 264 806 l 104 806 l 121 885 m 524 250 q 508 381 542 336 q 399 427 473 427 l 277 427 l 203 79 l 325 79 q 453 122 400 79 q 524 250 505 165 z "},"Ы":{"ha":758,"x_min":-66,"x_max":753,"o":"m 121 885 l 214 885 l 134 505 l 225 505 q 381 441 335 505 q 401 250 428 378 q 301 62 374 123 q 117 0 228 0 l -66 0 l 121 885 m 309 250 q 299 381 326 336 q 210 427 272 427 l 117 427 l 43 79 l 136 79 q 244 122 199 79 q 309 250 290 165 m 660 885 l 753 885 l 566 0 l 472 0 l 660 885 z "},"Ь":{"ha":758,"x_min":-33,"x_max":643,"o":"m 524 250 q 494 381 542 336 q 350 427 446 427 l 150 427 l 77 79 l 277 79 q 439 122 372 79 q 524 250 505 165 m 167 505 l 367 505 q 577 441 511 505 q 616 250 643 378 q 496 62 589 123 q 258 0 404 0 l -33 0 l 154 885 l 248 885 l 167 505 z "},"Э":{"ha":758,"x_min":-23,"x_max":691,"o":"m 64 264 q 252 64 87 64 q 320 73 288 64 q 379 98 351 82 q 430 137 406 115 q 473 186 453 159 q 533 292 509 234 q 572 410 557 350 l 178 410 l 195 489 l 589 489 q 596 610 598 551 q 576 717 595 670 q 518 792 557 764 q 414 821 479 821 q 322 803 367 821 q 240 755 277 786 q 176 684 203 725 q 139 595 149 642 l 60 595 l 121 885 l 201 885 l 179 782 q 284 871 220 842 q 431 900 349 900 q 580 862 524 900 q 663 760 636 823 q 690 613 690 696 q 672 441 691 530 q 640 325 659 382 q 592 218 620 269 q 528 124 564 167 q 448 51 492 81 q 351 2 404 20 q 236 -16 298 -16 q 52 51 117 -16 q -23 232 -12 119 l 64 264 z "},"Ю":{"ha":758,"x_min":-33,"x_max":758,"o":"m 154 885 l 248 885 l 161 482 l 278 482 q 562 900 375 900 q 661 441 758 900 q 368 -16 564 -16 q 261 403 180 -16 l 144 403 l 60 0 l -33 0 l 154 885 m 385 64 q 443 92 416 64 q 491 170 469 119 q 531 289 513 220 q 568 441 550 358 q 596 595 586 525 q 607 715 607 665 q 592 793 607 765 q 546 821 578 821 q 488 793 514 821 q 440 715 463 765 q 399 595 418 665 q 363 441 380 525 q 334 289 345 358 q 324 170 323 220 q 339 92 325 119 q 385 64 353 64 z "},"Я":{"ha":758,"x_min":-75,"x_max":720,"o":"m 272 383 q 175 406 218 387 q 104 456 132 425 q 67 532 77 488 q 68 632 57 576 q 189 822 96 758 q 428 885 282 885 l 720 885 l 532 0 l 439 0 l 519 379 l 382 379 l 43 0 l -75 0 l 272 383 m 164 632 q 192 499 144 541 q 338 458 240 458 l 536 458 l 610 806 l 411 806 q 249 764 314 806 q 164 632 183 722 z "},"а":{"ha":758,"x_min":-52,"x_max":632,"o":"m -32 171 q 19 271 -20 231 q 111 335 57 311 q 229 369 164 358 q 359 379 294 379 q 404 378 385 379 q 442 376 424 378 q 477 373 460 375 q 517 368 494 371 l 526 414 q 523 490 536 460 q 483 537 509 519 q 427 561 457 554 q 374 568 396 568 q 239 549 302 568 q 118 498 176 530 l 90 568 q 231 625 155 603 q 392 647 307 647 q 490 634 443 647 q 571 593 538 621 q 618 521 604 566 q 619 414 632 476 l 532 0 l 439 0 l 461 106 q 394 52 429 75 q 321 15 358 29 q 249 -8 285 0 q 182 -16 212 -16 q 3 33 57 -16 q -32 171 -52 81 m 199 64 q 308 81 257 64 q 396 124 358 98 q 458 179 433 150 q 488 232 482 208 l 500 292 q 414 299 456 298 q 342 300 372 300 q 244 293 292 300 q 158 271 196 286 q 94 231 121 256 q 61 171 68 207 q 83 97 52 131 q 199 64 115 64 z "},"б":{"ha":758,"x_min":-24,"x_max":705,"o":"m 98 301 q 120 129 75 193 q 267 64 164 64 q 358 80 314 64 q 437 129 401 97 q 498 204 473 160 q 536 301 524 248 q 515 474 558 410 q 368 539 472 539 q 188 474 256 539 q 98 301 121 410 m 26 441 q 87 627 49 543 q 178 772 126 711 q 291 866 231 832 q 416 900 351 900 q 467 894 447 900 q 502 879 486 888 q 531 865 517 871 q 566 859 545 859 q 614 868 593 859 q 668 900 636 878 l 705 844 q 626 798 669 817 q 549 779 583 779 q 504 785 522 779 q 471 800 486 791 q 440 814 456 808 q 400 821 424 821 q 317 798 358 821 q 240 732 277 775 q 176 628 204 689 q 132 490 147 567 q 183 545 154 521 q 247 585 212 568 q 316 610 281 602 q 385 618 351 618 q 504 598 452 618 q 590 538 557 578 q 635 439 624 498 q 629 301 646 380 q 578 176 614 235 q 492 76 543 118 q 379 9 441 33 q 250 -16 317 -16 q 33 96 90 -16 q 26 441 -24 207 z "},"в":{"ha":758,"x_min":-33,"x_max":643,"o":"m 602 180 q 506 44 582 89 q 302 0 429 0 l -33 0 l 100 632 l 415 632 q 505 625 461 632 q 581 600 549 618 q 628 550 612 582 q 632 467 643 518 q 590 385 621 418 q 488 334 559 351 q 591 276 568 314 q 602 180 614 237 m 538 461 q 533 508 545 490 q 500 536 521 526 q 452 549 479 546 q 399 553 425 553 l 176 553 l 138 371 l 359 371 q 416 374 387 371 q 471 388 446 378 q 514 416 497 399 q 538 461 532 433 m 510 184 q 481 266 521 240 q 363 292 441 292 l 121 292 l 77 79 l 318 79 q 448 106 397 79 q 510 184 498 132 z "},"г":{"ha":758,"x_min":-33,"x_max":699,"o":"m 100 632 l 699 632 l 682 553 l 176 553 l 60 0 l -33 0 l 100 632 z "}}}
